<?xml version="1.0" encoding="UTF-8"?>
<svg width="90px" height="90px" viewBox="0 0 90 90" version="1.1" xmlns="http://www.w3.org/2000/svg" xmlns:xlink="http://www.w3.org/1999/xlink">
    <!-- Generator: Sketch 51.1 (57501) - http://www.bohemiancoding.com/sketch -->
    <title>icon_4</title>
    <desc>Created with Sketch.</desc>
    <defs></defs>
    <g id="Page-1" stroke="none" stroke-width="1" fill="none" fill-rule="evenodd">
        <g id="Main-HD-SMM-(2)" transform="translate(-979.000000, -4256.000000)" fill="#2F80ED" fill-rule="nonzero">
            <g id="5th-screen" transform="translate(0.000000, 3780.000000)">
                <g id="content" transform="translate(320.000000, 206.000000)">
                    <g id="1/2/3">
                        <g id="Group-2" transform="translate(654.000000, 20.000000)">
                            <g id="Group-3" transform="translate(0.000000, 235.000000)">
                                <g id="icon_4" transform="translate(5.000000, 15.000000)">
                                    <g id="seo">
                                        <path d="M13.5,75 L13.5,42 L16.5,42 L16.5,39 L12,39 C11.170875,39 10.5,39.671625 10.5,40.5 L10.5,76.5 C10.5,77.328375 11.170875,78 12,78 L36,78 L36,75 L13.5,75 Z" id="Shape"></path>
                                        <path d="M78,39 L73.5,39 L73.5,42 L76.5,42 L76.5,75 L54,75 L54,78 L78,78 C78.829125,78 79.5,77.328375 79.5,76.5 L79.5,40.5 C79.5,39.671625 78.829125,39 78,39 Z" id="Shape"></path>
                                        <path d="M88.5,81 L51,81 L51,56.1211875 L56.5605,50.5606875 C56.84175,50.2794375 57,49.897875 57,49.5001875 L57,42.0001875 C57,41.6025 56.84175,41.2209375 56.5605,40.9396875 L50.5605,34.9396875 C50.1328125,34.5105 49.4881875,34.38375 48.9256875,34.6145625 C48.3646875,34.8465 48,35.393625 48,36 L48,43.5 L42,43.5 L42,36 C42,35.393625 41.6353125,34.8465 41.074125,34.6141875 C40.511625,34.3828125 39.8685,34.510125 39.4393125,34.9393125 L33.4393125,40.9393125 C33.1580625,41.2205625 32.9998125,41.602125 32.9998125,41.9998125 L32.9998125,49.4998125 C32.9998125,49.8975 33.1580625,50.2790625 33.4393125,50.5603125 L39,56.1211875 L39,81 L1.5,81 C0.670875,81 0,81.671625 0,82.5 L0,85.5 C0,87.981375 2.018625,90 4.5,90 L85.5,90 C87.981375,90 90,87.981375 90,85.5 L90,82.5 C90,81.671625 89.329125,81 88.5,81 Z M36,48.879 L36,42.6211875 L39,39.6211875 L39,45 C39,45.828375 39.670875,46.5 40.5,46.5 L49.5,46.5 C50.329125,46.5 51,45.828375 51,45 L51,39.621 L54,42.621 L54,48.8788125 L48.4395,54.4393125 C48.15825,54.7205625 48,55.102125 48,55.4998125 L48,80.9998125 L42,80.9998125 L42,55.5 C42,55.1023125 41.84175,54.72075 41.5605,54.4395 L36,48.879 Z M87,85.5 C87,86.326875 86.327625,87 85.5,87 L4.5,87 C3.672375,87 3,86.326875 3,85.5 L3,84 L40.5,84 L49.5,84 L87,84 L87,85.5 Z" id="Shape"></path>
                                        <path d="M71.373,49.324875 L68.8505625,47.7406875 L68.8505625,45.84375 L71.373,44.2603125 C71.9105625,43.922625 72.1771875,43.28175 72.0380625,42.6615 C71.6968125,41.1418125 71.622,40.821 71.389125,39.81525 L71.15175,38.78325 C71.008125,38.16 70.4851875,37.6970625 69.8495625,37.629 L66.9009375,37.3125 L66.0763125,35.6015625 L67.674375,33.06375 C68.0143125,32.5239375 67.97475,31.828125 67.577625,31.329375 L65.1020625,28.2238125 C64.703625,27.7243125 64.0355625,27.5338125 63.4306875,27.7455 L60.6035625,28.74225 L60.40425,28.5825 C59.9559375,28.220625 59.608875,27.942375 59.1255,27.5578125 L59.4654375,24.6061875 C59.53875,23.972625 59.2033125,23.36175 58.629,23.08425 L55.051875,21.3571875 C54.4790625,21.084 53.7935625,21.1996875 53.3439375,21.6495 L51.2315625,23.761875 L49.3843125,23.3385 L48.3969375,20.5063125 C48.1875,19.9035 47.6191875,19.5 46.9805625,19.5 L43.019625,19.5 C42.381,19.5 41.8125,19.9035 41.6030625,20.5063125 L40.6156875,23.3385 L38.7684375,23.762625 L36.65475,21.6489375 C36.203625,21.199875 35.5179375,21.0841875 34.9468125,21.357375 L31.3711875,23.0844375 C30.796875,23.3619375 30.4614375,23.9728125 30.53475,24.606375 L30.8746875,27.558 C30.3913125,27.9425625 30.0440625,28.2208125 29.5959375,28.5826875 L29.396625,28.7424375 L26.5695,27.7456875 C25.9659375,27.534 25.2965625,27.7245 24.898125,28.224 L22.4225625,31.3288125 C22.024125,31.8283125 21.9845625,32.524125 22.3245,33.0639375 L23.9240625,35.6025 L23.0990625,37.3125 L20.15025,37.629 C19.5144375,37.6970625 18.9915,38.16 18.8480625,38.78325 L18.6106875,39.81525 C18.3778125,40.8208125 18.303,41.141625 17.96175,42.6615 C17.822625,43.2819375 18.08925,43.9228125 18.6268125,44.2603125 L21.14925,45.84375 L21.14925,47.7406875 L18.6268125,49.324875 C18.08925,49.6625625 17.822625,50.3034375 17.96175,50.9236875 C18.2986875,52.4251875 18.3763125,52.756125 18.601875,53.7339375 L18.8480625,54.80175 C18.9916875,55.4229375 19.511625,55.8849375 20.1444375,55.95525 L23.1005625,56.284125 L23.922375,57.984 L22.3243125,60.5203125 C21.984375,61.060125 22.0239375,61.7559375 22.422375,62.2554375 L24.8979375,65.361 C25.296375,65.85975 25.96575,66.0530625 26.5693125,65.8393125 L29.3964375,64.8425625 L29.59575,65.0023125 C30.0440625,65.3641875 30.391125,65.6424375 30.8745,66.02775 L30.5345625,68.994 C30.46125,69.6298125 30.7996875,70.24275 31.3783125,70.5181875 L33.8495625,71.701875 L35.1504375,68.99775 L33.6358125,68.2734375 L33.9493125,65.5408125 C34.0093125,65.0251875 33.796875,64.515375 33.3898125,64.1938125 C32.5183125,63.5045625 32.09775,63.1655625 31.47675,62.6660625 L30.6241875,61.9805625 C30.2199375,61.6554375 29.674875,61.5594375 29.1856875,61.735875 L26.5783125,62.65575 L25.431375,61.218 L26.903625,58.8785625 C27.1805625,58.4405625 27.2113125,57.8911875 26.98575,57.4254375 L25.440375,54.231375 C25.2148125,53.7669375 24.768,53.450625 24.255375,53.3941875 L21.5323125,53.09175 L21.525,53.05875 C21.36525,52.3636875 21.2803125,51.9975 21.12225,51.3001875 L23.448375,49.83975 C23.884875,49.5658125 24.15,49.0854375 24.15,48.5698125 L24.15,45.014625 C24.15,44.49825 23.884875,44.0184375 23.448375,43.7446875 L21.12225,42.28425 C21.282,41.577375 21.3669375,41.2111875 21.5325,40.4979375 L24.24975,40.206375 C24.766875,40.1514375 25.218,39.832125 25.4435625,39.363375 L26.986125,36.15825 C27.2116875,35.6925 27.1809375,35.143875 26.904,34.705875 L25.43175,32.3671875 L26.5771875,30.9294375 L29.1860625,31.8493125 C29.67525,32.0236875 30.2203125,31.9291875 30.6245625,31.604625 L31.477125,30.919125 C32.0983125,30.419625 32.5186875,30.0804375 33.3901875,29.391375 C33.7974375,29.0698125 34.009875,28.55925 33.9496875,28.043625 L33.6361875,25.3205625 L35.287125,24.5236875 L37.2354375,26.47125 C37.600125,26.8351875 38.130375,26.986125 38.6285625,26.8726875 L42.093,26.0780625 C42.597,25.963125 43.0070625,25.5969375 43.1769375,25.1090625 L44.0859375,22.5 L45.9140625,22.5 L46.8238125,25.108875 C46.9936875,25.59675 47.4039375,25.9629375 47.90775,26.077875 L51.3676875,26.87175 C51.8775,26.9851875 52.3989375,26.8351875 52.765125,26.4703125 L54.7119375,24.5235 L56.364375,25.320375 L56.050875,28.0434375 C55.990875,28.5590625 56.2033125,29.069625 56.610375,29.3911875 C57.481875,30.0804375 57.9024375,30.4194375 58.5234375,30.9189375 L59.376,31.6044375 C59.77875,31.9288125 60.3223125,32.0233125 60.8145,31.849125 L63.421875,30.92925 L64.5673125,32.36625 L63.0950625,34.7056875 C62.819625,35.1436875 62.788875,35.6923125 63.0144375,36.1580625 L64.5598125,39.36825 C64.785375,39.83475 65.2351875,40.15125 65.7508125,40.2061875 L68.4680625,40.49775 C68.633625,41.2111875 68.7185625,41.577375 68.8783125,42.2840625 L66.5521875,43.7445 C66.1156875,44.0184375 65.8505625,44.49825 65.8505625,45.0144375 L65.8505625,48.569625 C65.8505625,49.08525 66.1156875,49.5658125 66.5521875,49.8395625 L68.8783125,51.3 C68.7200625,51.9973125 68.635125,52.3635 68.4755625,53.0585625 L65.745,53.394 C65.232375,53.4504375 64.7855625,53.76675 64.56,54.2311875 L63.014625,57.42525 C62.7890625,57.891 62.8198125,58.440375 63.09525,58.878375 L64.5675,61.2178125 L63.4220625,62.6555625 L60.8146875,61.7356875 C60.3225,61.55925 59.779125,61.6550625 59.3761875,61.980375 L58.523625,62.665875 C57.9024375,63.165375 57.4820625,63.5045625 56.6105625,64.193625 C56.2033125,64.5151875 55.990875,65.025 56.0510625,65.540625 L56.3645625,68.27325 L54.8499375,68.9975625 L56.1508125,71.7016875 L58.6220625,70.51875 C59.1991875,70.2425625 59.539125,69.630375 59.4658125,68.9938125 L59.125875,66.0275625 C59.60925,65.64225 59.9565,65.364 60.404625,65.002125 L60.6039375,64.842375 L63.4310625,65.839125 C64.036125,66.0530625 64.704,65.8595625 65.1024375,65.3608125 L67.578,62.2546875 C67.9749375,61.7559375 68.0145,61.060125 67.67475,60.5203125 L66.078,57.984 L66.8998125,56.284125 L69.8559375,55.95525 C70.48875,55.8849375 71.0086875,55.42275 71.1523125,54.80175 L71.3985,53.7339375 C71.6240625,52.756125 71.7016875,52.4251875 72.038625,50.9236875 C72.1771875,50.3034375 71.9105625,49.6625625 71.373,49.324875 Z" id="Shape"></path>
                                        <path d="M45,28.5 C35.074125,28.5 27,36.7096875 27,46.800375 C27,52.267875 29.3818125,57.4044375 33.53475,60.893625 L35.4654375,58.59675 C31.9921875,55.6786875 30,51.3793125 30,46.800375 C30,38.3634375 36.7295625,31.5 45,31.5 C53.2704375,31.5 60,38.3634375 60,46.800375 C60,51.3795 58.0078125,55.678875 54.53475,58.59675 L56.4654375,60.893625 C60.6181875,57.40425 63,52.267875 63,46.800375 C63,36.7096875 54.925875,28.5 45,28.5 Z" id="Shape"></path>
                                        <path d="M46.0605,0.4395 C45.4745625,-0.1464375 44.52525,-0.1464375 43.9393125,0.4395 L39.4393125,4.9395 L41.5605,7.0606875 L43.5,5.1211875 L43.5,16.5 L46.5,16.5 L46.5,5.1211875 L48.4395,7.0606875 L50.5606875,4.9395 L46.0605,0.4395 Z" id="Shape"></path>
                                        <path d="M76.8193125,13.1799375 L70.4559375,13.1799375 L70.4559375,16.1799375 L73.1985,16.1799375 L65.15325,24.2263125 L67.2744375,26.3475 L75.3193125,18.3015 L75.3193125,21.0440625 L78.3193125,21.0440625 L78.3193125,14.6799375 C78.3193125,13.8515625 77.6484375,13.1799375 76.8193125,13.1799375 Z" id="Shape"></path>
                                        <path d="M16.8013125,16.1799375 L19.543875,16.1799375 L19.543875,13.1799375 L13.1806875,13.1799375 C12.3515625,13.1799375 11.6806875,13.8515625 11.6806875,14.6799375 L11.6806875,21.043875 L14.6806875,21.043875 L14.6806875,18.3013125 L22.7255625,26.3473125 L24.84675,24.226125 L16.8013125,16.1799375 Z" id="Shape"></path>
                                    </g>
                                </g>
                            </g>
                        </g>
                    </g>
                </g>
            </g>
        </g>
    </g>
</svg>