<?xml version="1.0" encoding="UTF-8"?>
<svg width="90px" height="91px" viewBox="0 0 90 91" version="1.1" xmlns="http://www.w3.org/2000/svg" xmlns:xlink="http://www.w3.org/1999/xlink">
    <!-- Generator: Sketch 51.1 (57501) - http://www.bohemiancoding.com/sketch -->
    <title>icon_1</title>
    <desc>Created with Sketch.</desc>
    <defs></defs>
    <g id="Page-1" stroke="none" stroke-width="1" fill="none" fill-rule="evenodd">
        <g id="Main-HD-SMM-(2)" transform="translate(-366.000000, -4042.000000)" fill="#2F80ED" fill-rule="nonzero">
            <g id="5th-screen" transform="translate(0.000000, 3780.000000)">
                <g id="content" transform="translate(320.000000, 206.000000)">
                    <g id="1/2/3">
                        <g id="Group-1">
                            <g id="icon_1" transform="translate(46.000000, 56.000000)">
                                <g id="business-(1)">
                                    <path d="M88.4709356,19.0208732 L66.0177131,19.0208732 L66.0177131,2.55517672 C66.0177131,1.72852391 65.3474844,1.05829522 64.5208316,1.05829522 L25.6019127,1.05829522 C24.7752599,1.05829522 24.1050312,1.72852391 24.1050312,2.55517672 L24.1050312,19.0208732 L1.65180873,19.0208732 C0.825155925,19.0208732 0.154927235,19.6911019 0.154927235,20.5177547 L0.154927235,44.4678586 C0.154927235,45.2945114 0.825155925,45.9647401 1.65180873,45.9647401 L16.0009148,45.9647401 L20.052973,50.0167983 C20.3454262,50.3092516 20.7282536,50.4553846 21.1112682,50.4553846 C21.4942827,50.4553846 21.8772973,50.3092516 22.1695634,50.0167983 L26.2216216,45.9647401 L34.5832017,45.9647401 C35.4098545,45.9647401 36.0800832,45.2945114 36.0800832,44.4678586 L36.0800832,28.0021622 L39.9510187,28.0021622 L44.0030769,32.0542204 C44.2955301,32.3466736 44.6783576,32.4928067 45.0613721,32.4928067 C45.4443867,32.4928067 45.8274012,32.3466736 46.1196674,32.0542204 L50.1717256,28.0021622 L54.0177755,28.0021622 L54.0177755,44.6205405 C54.0177755,45.0211435 54.1777547,45.4047193 54.4629106,45.6853846 C54.7486279,45.9667983 55.1535343,46.1393139 55.5337422,46.117422 L66.9029314,45.9727859 L70.9469439,50.0167983 C71.2393971,50.3092516 71.6222245,50.4553846 72.0052391,50.4553846 C72.3882536,50.4553846 72.7712682,50.3092516 73.0635343,50.0167983 L77.1155925,45.9647401 L88.4709356,45.9647401 C89.2975884,45.9647401 89.967817,45.2945114 89.967817,44.4678586 L89.967817,20.5177547 C89.967817,19.6911019 89.2975884,19.0208732 88.4709356,19.0208732 Z M33.0863202,42.9709771 L25.6019127,42.9709771 C25.205052,42.9709771 24.8242827,43.1288981 24.5436175,43.4095634 L21.1112682,46.8419127 L17.6789189,43.4095634 C17.3982536,43.1288981 17.0174844,42.9709771 16.6206237,42.9709771 L3.14869023,42.9709771 L3.14869023,22.0146362 L33.0863202,22.0146362 L33.0863202,42.9709771 Z M49.5520166,25.0083992 C49.1551559,25.0083992 48.7743867,25.1663202 48.4937214,25.4469854 L45.0613721,28.8793347 L41.6290229,25.4469854 C41.3483576,25.1663202 40.9675884,25.0083992 40.5707277,25.0083992 L36.0800832,25.0083992 L36.0800832,20.5177547 C36.0800832,19.6911019 35.4098545,19.0208732 34.5832017,19.0208732 L27.0987942,19.0208732 L27.0987942,4.05205821 L63.0239501,4.05205821 L63.0239501,25.0083992 L49.5520166,25.0083992 Z M86.9740541,42.9709771 L76.4958836,42.9709771 C76.0990229,42.9709771 75.7182536,43.1288981 75.4375884,43.4095634 L72.0052391,46.8419127 L68.5728898,43.4095634 C68.287921,43.1245946 67.9062162,42.9943659 67.4955094,42.9709771 L57.0115385,43.1047609 L57.0115385,28.0021622 L64.5208316,28.0021622 C65.3474844,28.0021622 66.0177131,27.3319335 66.0177131,26.5052807 L66.0177131,22.0146362 L86.9740541,22.0146362 L86.9740541,42.9709771 Z" id="Shape"></path>
                                    <path d="M86.2256133,83.3867775 L83.9802911,83.3867775 C83.9802911,80.9105613 81.9658628,78.8961331 79.4896466,78.8961331 L72.0052391,78.8961331 C71.1800832,78.8961331 70.5083576,78.2244075 70.5083576,77.3992516 L70.5083576,75.9023701 C70.5083576,70.1245946 65.8079626,65.4241996 60.0301871,65.4241996 L51.0488981,65.4241996 L51.0488981,63.8154262 C54.7654678,61.6892931 57.0364241,57.7994595 57.0364241,53.4491476 C57.0364241,50.1981081 55.7588358,47.1575676 53.4382952,44.8873597 C51.1185031,42.6171518 48.0830146,41.4192723 44.7939917,41.4769023 C38.5308524,41.6134927 33.2816632,46.8168399 33.0923077,53.0754886 C32.9577755,57.515052 35.2798129,61.6299792 39.0740333,63.8139293 L39.0740333,65.4240125 L31.5896258,65.4240125 C25.8118503,65.4240125 21.1114553,70.1244075 21.1114553,75.902183 L21.1114553,77.3990644 C21.1114553,78.2242204 20.4397297,78.8959459 19.6145738,78.8959459 C18.7894179,78.8959459 18.1176923,78.2242204 18.1176923,77.3990644 L18.1176923,54.1974012 C18.1176923,52.1341372 16.4387526,50.4551975 14.3754886,50.4551975 C12.3122245,50.4551975 10.6332848,52.1341372 10.6332848,54.1974012 L10.6332848,56.4427235 C8.15706861,56.4427235 6.14264033,58.4571518 6.14264033,60.933368 L6.14264033,80.3928274 C6.14264033,86.1706029 10.8430353,90.8709979 16.6208108,90.8709979 L22.6083368,90.8709979 C25.5369854,90.8709979 28.1894595,89.6628274 30.0927443,87.7193139 L30.0927443,90.8709979 L33.0865073,90.8709979 L33.0865073,80.3928274 C33.0865073,79.5661746 32.4162786,78.8959459 31.5896258,78.8959459 C30.762973,78.8959459 30.0927443,79.5661746 30.0927443,80.3928274 C30.0927443,84.5195426 26.735052,87.8772349 22.6083368,87.8772349 L16.6208108,87.8772349 C12.4940956,87.8772349 9.13640333,84.5195426 9.13640333,80.3928274 L9.13640333,60.933368 C9.13640333,60.1082121 9.8081289,59.4364865 10.6332848,59.4364865 L12.1301663,59.4364865 C12.9568191,59.4364865 13.6270478,58.7662578 13.6270478,57.939605 L13.6270478,54.1974012 C13.6270478,53.7844491 13.9625364,53.4489605 14.3754886,53.4489605 C14.7884407,53.4489605 15.1239293,53.7844491 15.1239293,54.1974012 L15.1239293,77.3990644 C15.1239293,79.8752807 17.1383576,81.8897089 19.6145738,81.8897089 C22.09079,81.8897089 24.1052183,79.8752807 24.1052183,77.3990644 L24.1052183,75.902183 C24.1052183,71.7754678 27.4629106,68.4177755 31.5896258,68.4177755 L40.5709148,68.4177755 C41.3975676,68.4177755 42.0677963,67.7475468 42.0677963,66.920894 L42.0677963,62.9090644 C42.0677963,62.3301455 41.7338046,61.8032432 41.2104574,61.5555094 C37.9886071,60.0337422 35.9764241,56.7404158 36.0845738,53.166237 C36.2264033,48.4738877 40.1630146,44.5722661 44.8596674,44.4706653 C47.3132432,44.4150936 49.605343,45.3257588 51.344158,47.0273389 C53.0844699,48.7296674 54.0426611,51.0099792 54.0426611,53.4489605 C54.0426611,56.9542827 52.0772557,60.0606861 48.912474,61.5553222 C48.3891268,61.8030561 48.0551351,62.3301455 48.0551351,62.9088773 L48.0551351,66.9207069 C48.0551351,67.7473597 48.7253638,68.4175884 49.5520166,68.4175884 L60.0301871,68.4175884 C64.1569023,68.4175884 67.5145946,71.7752807 67.5145946,75.9019958 L67.5145946,77.3988773 C67.5145946,79.8750936 69.5290229,81.8895218 72.0052391,81.8895218 L79.4896466,81.8895218 C80.3148025,81.8895218 80.9865281,82.5612474 80.9865281,83.3864033 L80.9865281,84.8832848 C80.9865281,85.7099376 81.6567568,86.3801663 82.4834096,86.3801663 L86.2256133,86.3801663 C86.6385655,86.3801663 86.9740541,86.7156549 86.9740541,87.1286071 C86.9740541,87.5415593 86.6385655,87.8770478 86.2256133,87.8770478 L69.0114761,87.8770478 C64.8847609,87.8770478 61.5270686,84.5193555 61.5270686,80.3926403 C61.5270686,79.5659875 60.8568399,78.8957588 60.0301871,78.8957588 C59.2035343,78.8957588 58.5333056,79.5659875 58.5333056,80.3926403 L58.5333056,90.8708108 L61.5270686,90.8708108 L61.5270686,87.7191268 C63.4303534,89.6626403 66.0828274,90.8708108 69.0114761,90.8708108 L86.2256133,90.8708108 C88.2888773,90.8708108 89.967817,89.1918711 89.967817,87.1286071 C89.967817,85.065343 88.2888773,83.3867775 86.2256133,83.3867775 Z" id="Shape"></path>
                                    <path d="M20.6726819,4.49064449 L16.1820374,0 L14.065447,2.11677755 L16.0009148,4.05224532 L9.13621622,4.05224532 C8.30956341,4.05224532 7.63933472,4.72247401 7.63933472,5.54912682 L7.63933472,16.0272973 L10.6330977,16.0272973 L10.6330977,7.04600832 L16.0009148,7.04600832 L14.065447,8.98128898 L16.1822245,11.0980665 L20.672869,6.60742204 C21.2574012,6.0227027 21.2574012,5.07536383 20.6726819,4.49064449 Z" id="Shape"></path>
                                    <path d="M84.4188773,8.98128898 L82.4834096,10.9167568 L82.4834096,5.54893971 C82.4834096,4.7222869 81.8131809,4.05205821 80.9865281,4.05205821 L69.0114761,4.05205821 L69.0114761,7.04582121 L79.4896466,7.04582121 L79.4896466,10.9167568 L77.5541788,8.98128898 L75.4374012,11.0980665 L79.9280457,15.588711 C80.220499,15.8811642 80.6033264,16.0272973 80.986341,16.0272973 C81.3693555,16.0272973 81.7523701,15.8811642 82.0446362,15.588711 L86.5352807,11.0980665 L84.4188773,8.98128898 Z" id="Shape"></path>
                                    <rect id="Rectangle-path" x="7.63933472" y="30.9959252" width="2.99376299" height="2.99376299"></rect>
                                    <rect id="Rectangle-path" x="13.6268607" y="30.9959252" width="2.99376299" height="2.99376299"></rect>
                                    <rect id="Rectangle-path" x="19.6143867" y="30.9959252" width="2.99376299" height="2.99376299"></rect>
                                    <rect id="Rectangle-path" x="25.6019127" y="30.9959252" width="2.99376299" height="2.99376299"></rect>
                                    <rect id="Rectangle-path" x="34.5832017" y="13.0333472" width="2.99376299" height="2.99376299"></rect>
                                    <rect id="Rectangle-path" x="40.5707277" y="13.0333472" width="2.99376299" height="2.99376299"></rect>
                                    <rect id="Rectangle-path" x="46.5582536" y="13.0333472" width="2.99376299" height="2.99376299"></rect>
                                    <rect id="Rectangle-path" x="52.5457796" y="13.0333472" width="2.99376299" height="2.99376299"></rect>
                                    <rect id="Rectangle-path" x="61.5270686" y="30.9959252" width="2.99376299" height="2.99376299"></rect>
                                    <rect id="Rectangle-path" x="67.5145946" y="30.9959252" width="2.99376299" height="2.99376299"></rect>
                                    <rect id="Rectangle-path" x="73.5021206" y="30.9959252" width="2.99376299" height="2.99376299"></rect>
                                    <rect id="Rectangle-path" x="79.4896466" y="30.9959252" width="2.99376299" height="2.99376299"></rect>
                                </g>
                            </g>
                        </g>
                    </g>
                </g>
            </g>
        </g>
    </g>
</svg>