<?xml version="1.0" encoding="UTF-8"?>
<svg width="90px" height="90px" viewBox="0 0 90 90" version="1.1" xmlns="http://www.w3.org/2000/svg" xmlns:xlink="http://www.w3.org/1999/xlink">
    <!-- Generator: Sketch 51.1 (57501) - http://www.bohemiancoding.com/sketch -->
    <title>icon_5</title>
    <desc>Created with Sketch.</desc>
    <defs></defs>
    <g id="Page-1" stroke="none" stroke-width="1" fill="none" fill-rule="evenodd">
        <g id="Main-HD-SMM-(2)" transform="translate(-1209.000000, -4256.000000)" fill="#2F80ED" fill-rule="nonzero">
            <g id="5th-screen" transform="translate(0.000000, 3780.000000)">
                <g id="content" transform="translate(320.000000, 206.000000)">
                    <g id="1/2/3">
                        <g id="Group-2" transform="translate(654.000000, 20.000000)">
                            <g id="Group-4" transform="translate(230.000000, 235.000000)">
                                <g id="icon_5" transform="translate(5.000000, 15.000000)">
                                    <g id="content">
                                        <rect id="Rectangle-path" x="10.5" y="16.5" width="40.5" height="3"></rect>
                                        <rect id="Rectangle-path" x="15" y="22.5" width="36" height="3"></rect>
                                        <rect id="Rectangle-path" x="10.5" y="28.5" width="18" height="3"></rect>
                                        <rect id="Rectangle-path" x="31.5" y="28.5" width="19.5" height="3"></rect>
                                        <rect id="Rectangle-path" x="10.5" y="34.5" width="9" height="3"></rect>
                                        <rect id="Rectangle-path" x="22.5" y="34.5" width="28.5" height="3"></rect>
                                        <path d="M88.5,16.5 L61.5,16.5 L61.5,1.5 C61.5,0.670875 60.829125,0 60,0 L1.5,0 C0.670875,0 0,0.670875 0,1.5 L0,42 C0,42.829125 0.670875,43.5 1.5,43.5 L15,43.5 L15,72 C15,72.829125 15.670875,73.5 16.5,73.5 L45,73.5 L45,81 L34.5,81 C33.670875,81 33,81.670875 33,82.5 L33,88.5 C33,89.329125 33.670875,90 34.5,90 L70.5,90 C71.329125,90 72,89.329125 72,88.5 L72,82.5 C72,81.670875 71.329125,81 70.5,81 L60,81 L60,73.5 L88.5,73.5 C89.329125,73.5 90,72.829125 90,72 L90,18 C90,17.170875 89.329125,16.5 88.5,16.5 Z M3,3 L58.5,3 L58.5,10.5 L21,10.5 L21,7.5 C21,6.670875 20.329125,6 19.5,6 L3,6 L3,3 Z M3,40.5 L3,9 L18,9 L18,12 C18,12.829125 18.670875,13.5 19.5,13.5 L58.5,13.5 L58.5,40.5 L3,40.5 Z M69,84 L69,87 L36,87 L36,84 L46.5,84 C47.329125,84 48,83.329125 48,82.5 L48,73.5 L57,73.5 L57,82.5 C57,83.329125 57.670875,84 58.5,84 L69,84 Z M87,58.5 L84,58.5 L84,61.5 L87,61.5 L87,70.5 L18,70.5 L18,61.5 L60,61.5 L60,58.5 L18,58.5 L18,43.5 L60,43.5 C60.829125,43.5 61.5,42.829125 61.5,42 L61.5,19.5 L87,19.5 L87,58.5 Z" id="Shape"></path>
                                        <path d="M82.0605,57.4395 L77.1211875,52.5 L80.5606875,49.0605 C80.989875,48.6313125 81.118875,47.9866875 80.8858125,47.4256875 C80.65425,46.8646875 80.106375,46.5 79.5,46.5 L64.5,46.5 C63.670875,46.5 63,47.170875 63,48 L63,63 C63,63.606375 63.3646875,64.15425 63.925875,64.3858125 C64.488375,64.6186875 65.1315,64.489875 65.5606875,64.0606875 L69,60.6211875 L73.9395,65.5606875 C74.2325625,65.85375 74.6161875,66.0001875 75,66.0001875 C75.3838125,66.0001875 75.767625,65.85375 76.0605,65.5606875 L82.0605,59.5606875 C82.6464375,58.9745625 82.6464375,58.0254375 82.0605,57.4395 Z M75,62.379 L70.0605,57.4395 C69.767625,57.1464375 69.3838125,57 69,57 C68.6161875,57 68.232375,57.1464375 67.9395,57.4395 L66,59.379 L66,49.5 L75.879,49.5 L73.9395,51.4395 C73.3535625,52.0254375 73.3535625,52.97475 73.9395,53.5606875 L78.879,58.5 L75,62.379 Z" id="Shape"></path>
                                        <rect id="Rectangle-path" x="28.5" y="46.5" width="3" height="9"></rect>
                                        <rect id="Rectangle-path" x="34.5" y="46.5" width="15" height="3"></rect>
                                        <rect id="Rectangle-path" x="52.5" y="46.5" width="7.5" height="3"></rect>
                                        <rect id="Rectangle-path" x="34.5" y="52.5" width="9" height="3"></rect>
                                        <rect id="Rectangle-path" x="46.5" y="52.5" width="13.5" height="3"></rect>
                                        <rect id="Rectangle-path" x="51" y="64.5" width="3" height="3"></rect>
                                    </g>
                                </g>
                            </g>
                        </g>
                    </g>
                </g>
            </g>
        </g>
    </g>
</svg>