<?xml version="1.0" encoding="UTF-8"?>
<svg width="90px" height="63px" viewBox="0 0 90 63" version="1.1" xmlns="http://www.w3.org/2000/svg" xmlns:xlink="http://www.w3.org/1999/xlink">
    <!-- Generator: Sketch 51.1 (57501) - http://www.bohemiancoding.com/sketch -->
    <title>icon_3</title>
    <desc>Created with Sketch.</desc>
    <defs></defs>
    <g id="Page-1" stroke="none" stroke-width="1" fill="none" fill-rule="evenodd">
        <g id="Main-HD-SMM-(2)" transform="translate(-1209.000000, -4031.000000)" fill="#2F80ED" fill-rule="nonzero">
            <g id="5th-screen" transform="translate(0.000000, 3780.000000)">
                <g id="content" transform="translate(320.000000, 206.000000)">
                    <g id="1/2/3">
                        <g id="Group-2" transform="translate(654.000000, 20.000000)">
                            <g transform="translate(230.000000, 0.000000)" id="icon_3">
                                <g transform="translate(5.000000, 15.000000)">
                                    <g id="business" transform="translate(0.000000, 10.000000)">
                                        <path d="M85.5,0 L4.5,0 C2.018625,0 0,2.018625 0,4.5 L0,58.5 C0,60.981375 2.018625,63 4.5,63 L85.5,63 C87.981375,63 90,60.981375 90,58.5 L90,4.5 C90,2.018625 87.981375,0 85.5,0 Z M87,58.5 C87,59.327625 86.326875,60 85.5,60 L4.5,60 C3.673125,60 3,59.327625 3,58.5 L3,36.9271875 L27.829125,49.34175 C28.0408125,49.4473125 28.270125,49.5 28.5,49.5 C28.749,49.5 28.998,49.4385 29.2228125,49.314 L47.975625,39 L48,39 C48,38.9956875 47.9986875,38.99175 47.9986875,38.98725 L87,17.5365 L87,58.5 Z M12.08925,38.1174375 C12.500625,36.0575625 14.3206875,34.5 16.5,34.5 L16.5,40.323 L12.08925,38.1174375 Z M30.18975,15 C30.8578125,17.5854375 33.2094375,19.5 36,19.5 L39,19.5 L40.5,19.5 C41.326875,19.5 42,20.172375 42,21 C42,21.827625 41.326875,22.5 40.5,22.5 L39,22.5 C38.171625,22.5 37.5,23.170875 37.5,24 L37.5,31.5 L33,31.5 C32.171625,31.5 31.5,32.170875 31.5,33 C31.5,34.65375 30.1545,36 28.5,36 C26.8455,36 25.5,34.65375 25.5,33 C25.5,32.170875 24.828375,31.5 24,31.5 L19.5,31.5 L19.5,24 C19.5,23.170875 18.828375,22.5 18,22.5 L16.5,22.5 C15.673125,22.5 15,21.827625 15,21 C15,20.172375 15.673125,19.5 16.5,19.5 L18,19.5 C18.828375,19.5 19.5,18.829125 19.5,18 L19.5,15 L30.18975,15 Z M19.5,12 L19.5,10.5 C19.5,9.672375 20.173125,9 21,9 L31.5,9 C32.326875,9 33,9.672375 33,10.5 C33,11.329125 33.671625,12 34.5,12 L36,12 C36.826875,12 37.5,12.672375 37.5,13.5 L37.5,16.5 L36,16.5 C34.3455,16.5 33,15.15375 33,13.5 C33,12.670875 32.328375,12 31.5,12 L19.5,12 Z M40.5,34.5 C42.410625,34.5 44.03625,35.7016875 44.6878125,37.3850625 L40.5,39.6885 L40.5,34.5 Z M37.5,34.5 L37.5,41.3385 L28.467,46.3066875 L19.5,41.823 L19.5,34.5 L22.68975,34.5 C23.3578125,37.0854375 25.7094375,39 28.5,39 C31.2905625,39 33.642375,37.0854375 34.31025,34.5 L37.5,34.5 Z M87,14.1133125 L47.328,35.93325 C46.151625,33.3264375 43.5403125,31.5 40.5,31.5 L40.5,25.5 C42.981375,25.5 45,23.481375 45,21 C45,18.518625 42.981375,16.5 40.5,16.5 L40.5,13.5 C40.5,11.018625 38.481375,9 36,9 L35.7429375,9 C35.124,7.2538125 33.455625,6 31.5,6 L21,6 C18.518625,6 16.5,8.018625 16.5,10.5 L16.5,16.5 C14.018625,16.5 12,18.518625 12,21 C12,23.481375 14.018625,25.5 16.5,25.5 L16.5,31.5 C13.1491875,31.5 10.3378125,33.724125 9.379125,36.762375 L3,33.5728125 L3,4.5 C3,3.672375 3.673125,3 4.5,3 L85.5,3 C86.326875,3 87,3.672375 87,4.5 L87,14.1133125 Z" id="Shape"></path>
                                        <rect id="Rectangle-path" x="45" y="9" width="16.5" height="3"></rect>
                                        <rect id="Rectangle-path" x="64.5" y="9" width="16.5" height="3"></rect>
                                        <rect id="Rectangle-path" x="58.5" y="16.5" width="9" height="3"></rect>
                                        <rect id="Rectangle-path" x="45" y="54" width="36" height="3"></rect>
                                        <polygon id="Shape" points="66 48 45 48 45 51 66 51 81 51 81 48"></polygon>
                                        <rect id="Rectangle-path" x="58.5" y="42" width="22.5" height="3"></rect>
                                        <path d="M16.5,45 L7.5,45 C6.671625,45 6,45.670875 6,46.5 L6,55.5 C6,56.329125 6.671625,57 7.5,57 L16.5,57 C17.328375,57 18,56.329125 18,55.5 L18,46.5 C18,45.670875 17.328375,45 16.5,45 Z M15,54 L9,54 L9,48 L15,48 L15,54 Z" id="Shape"></path>
                                        <rect id="Rectangle-path" x="31.5" y="22.5" width="3" height="3"></rect>
                                        <rect id="Rectangle-path" x="22.5" y="22.5" width="3" height="3"></rect>
                                        <rect id="Rectangle-path" x="25.5" y="27" width="6" height="3"></rect>
                                    </g>
                                </g>
                            </g>
                        </g>
                    </g>
                </g>
            </g>
        </g>
    </g>
</svg>