<?xml version="1.0" encoding="UTF-8"?>
<svg width="90px" height="90px" viewBox="0 0 90 90" version="1.1" xmlns="http://www.w3.org/2000/svg" xmlns:xlink="http://www.w3.org/1999/xlink">
    <!-- Generator: Sketch 51.1 (57501) - http://www.bohemiancoding.com/sketch -->
    <title>icon_2</title>
    <desc>Created with Sketch.</desc>
    <defs></defs>
    <g id="Page-1" stroke="none" stroke-width="1" fill="none" fill-rule="evenodd">
        <g id="Main-HD-SMM-(2)" transform="translate(-979.000000, -4021.000000)" fill="#2F80ED" fill-rule="nonzero">
            <g id="5th-screen" transform="translate(0.000000, 3780.000000)">
                <g id="content" transform="translate(320.000000, 206.000000)">
                    <g id="1/2/3">
                        <g id="Group-2" transform="translate(654.000000, 20.000000)">
                            <g id="Group-1">
                                <g id="icon_2" transform="translate(5.000000, 15.000000)">
                                    <g id="loudspeaker-(1)">
                                        <rect id="Rectangle-path" x="74.2072222" y="44.0103704" width="5.92592593" height="2.96296296"></rect>
                                        <rect id="Rectangle-path" transform="translate(76.430727, 35.856974) rotate(-45.000000) translate(-76.430727, -35.856974) " x="73.2877945" y="34.3755071" width="6.28586564" height="2.96293455"></rect>
                                        <rect id="Rectangle-path" transform="translate(76.429769, 55.122712) rotate(-45.000000) translate(-76.429769, -55.122712) " x="74.9483021" y="51.9797793" width="2.96293455" height="6.28586564"></rect>
                                        <path d="M69.7625926,39.5659259 L66.7996296,39.5659259 L66.7996296,33.64 C66.7996296,31.1892593 64.8059259,29.1955556 62.3551852,29.1955556 C61.0203704,29.1955556 59.8351852,29.7992593 59.0198148,30.7338889 C58.8627778,30.7748148 58.7096296,30.832963 58.5703704,30.9259259 L50.0548148,36.602963 L25.3181481,36.602963 C25.2987037,36.602963 25.2825926,36.6133333 25.2631481,36.6140741 C25.1090741,36.62 24.957963,36.6512963 24.8103704,36.7053704 C24.7766667,36.7177778 24.7425926,36.7255556 24.7101852,36.7401852 C24.6924074,36.7481481 24.6731481,36.7503704 24.6555556,36.7592593 C21.3264815,38.4244444 19.2590741,41.7709259 19.2590741,45.4918519 C19.2590741,49.2127778 21.3264815,52.5592593 24.6555556,54.2244444 C24.6685185,54.2309259 24.6833333,54.227963 24.6962963,54.2340741 C24.8866667,54.322963 25.0938889,54.3807407 25.3181481,54.3807407 L32.7133333,54.3807407 L32.5924074,69.1840741 C32.5894444,69.5790741 32.7442593,69.9581481 33.022037,70.2387037 C33.2998148,70.5192593 33.6788889,70.677037 34.0738889,70.677037 L39.9998148,70.677037 C40.812963,70.677037 41.4740741,70.0216667 41.4812963,69.207037 L41.6024074,54.3805556 L50.0548148,54.3805556 L58.5703704,60.0575926 C58.7101852,60.1507407 58.8637037,60.2111111 59.0218519,60.252037 C59.8372222,61.1853704 61.0214815,61.787963 62.3551852,61.787963 C64.8059259,61.787963 66.7996296,59.7942593 66.7996296,57.3435185 L66.7996296,51.4175926 L69.7625926,51.4175926 C70.5814815,51.4175926 71.2440741,50.755 71.2440741,49.9361111 L71.2440741,41.0472222 C71.2440741,40.2285185 70.5814815,39.5659259 69.7625926,39.5659259 Z M23.8366667,49.9203704 C22.8007407,48.7209259 22.222037,47.1801852 22.222037,45.4918519 C22.222037,43.8035185 22.8007407,42.2625926 23.8366667,41.0633333 L23.8366667,49.9203704 Z M38.53,67.7140741 L35.567037,67.7140741 L35.677037,54.3807407 L38.64,54.3807407 L38.53,67.7140741 Z M49.0218519,51.4177778 L40.132963,51.4177778 L34.207037,51.4177778 L26.7996296,51.4177778 L26.7996296,39.5659259 L49.0218519,39.5659259 L49.0218519,51.4177778 Z M57.9107407,56.0575926 L51.9848148,52.1064815 L51.9848148,38.8772222 L57.9107407,34.9261111 L57.9107407,56.0575926 Z M63.8366667,41.0474074 L63.8366667,49.9362963 L63.8366667,57.3437037 C63.8366667,58.1611111 63.1725926,58.8251852 62.3551852,58.8251852 C61.5377778,58.8251852 60.8737037,58.1611111 60.8737037,57.3437037 L60.8737037,33.64 C60.8737037,32.8225926 61.5377778,32.1585185 62.3551852,32.1585185 C63.1725926,32.1585185 63.8366667,32.8225926 63.8366667,33.64 L63.8366667,41.0474074 Z M68.2811111,48.4548148 L66.7996296,48.4548148 L66.7996296,42.5288889 L68.2811111,42.5288889 L68.2811111,48.4548148 Z" id="Shape"></path>
                                        <path d="M73.8959259,59.4603704 L71.2194444,58.1901852 C66.8318519,67.4359259 57.9192593,73.7653704 47.8185185,74.9035185 L45.7146296,71.3975926 C45.1792593,70.5035185 43.7094444,70.5035185 43.1740741,71.3975926 L41.07,74.9037037 C36.2075926,74.3566667 31.5364815,72.6144444 27.5144444,69.8090741 L25.8188889,72.2396296 C29.8777778,75.0696296 34.5340741,76.9246296 39.4038889,77.6801852 L38.7298148,78.8035185 C38.455,79.2607407 38.4477778,79.8307407 38.7109259,80.2951852 C38.9727778,80.7596296 39.4661111,81.0475926 40,81.0475926 L48.8888889,81.0475926 C49.4227778,81.0475926 49.9161111,80.7596296 50.177963,80.2951852 C50.4412963,79.8307407 50.4340741,79.2607407 50.1590741,78.8035185 L49.4851852,77.6805556 C60.0466667,76.0396296 69.2638889,69.2233333 73.8959259,59.4603704 Z M42.6185185,78.0844444 L44.4442593,75.0403704 L46.27,78.0844444 L42.6185185,78.0844444 Z" id="Shape"></path>
                                        <path d="M71.1861111,26.8662963 L68.7555556,28.5618519 C69.6916667,29.902963 70.5205556,31.3266667 71.217963,32.795 L73.8944444,31.5218519 C73.1262963,29.9074074 72.2148148,28.3405556 71.1861111,26.8662963 Z" id="Shape"></path>
                                        <path d="M49.49,13.2940741 L50.1588889,12.1788889 C50.4337037,11.7216667 50.4409259,11.1516667 50.1777778,10.6872222 C49.9146296,10.2227778 49.4225926,9.9362963 48.8887037,9.9362963 L39.9998148,9.9362963 C39.4659259,9.9362963 38.9725926,10.2242593 38.7107407,10.6887037 C38.4474074,11.1531481 38.4546296,11.7231481 38.7296296,12.1803704 L39.4111111,13.3159259 C25.3568519,15.4640741 14.4164815,26.4046296 12.2683333,40.4587037 L11.1327778,39.7772222 C10.677037,39.5051852 10.1055556,39.4951852 9.64111111,39.7583333 C9.17666667,40.0201852 8.8887037,40.5135185 8.8887037,41.0474074 L8.8887037,49.9362963 C8.8887037,50.4701852 9.17666667,50.9635185 9.64111111,51.2253704 C9.86685185,51.3540741 10.1185185,51.4177778 10.3703704,51.4177778 C10.6351852,51.4177778 10.8985185,51.3468519 11.1327778,51.2064815 L12.2561111,50.5324074 C13.0118519,55.4022222 14.8666667,60.0585185 17.6966667,64.1174074 L20.1272222,62.4218519 C17.3218519,58.3998148 15.5796296,53.7287037 15.0325926,48.8662963 L18.5387037,46.7622222 C18.9857407,46.4946296 19.2592593,46.0127778 19.2592593,45.492037 C19.2592593,44.9712963 18.9857407,44.4894444 18.5387037,44.2218519 L15.0424074,42.1235185 C16.5775926,28.3664815 27.3188889,17.6251852 41.0759259,16.09 L43.1742593,19.5862963 C43.4418519,20.0333333 43.9237037,20.3068519 44.4431481,20.3068519 C44.4446296,20.3068519 44.4446296,20.3068519 44.4446296,20.3068519 C44.9640741,20.3068519 45.4472222,20.0333333 45.7148148,19.5877778 L47.827037,16.0666667 C52.6909259,16.6281481 57.3587037,18.3727778 61.3759259,21.1675926 L63.0687037,18.7340741 C59.0148148,15.9142593 54.3607407,14.0587037 49.49,13.2940741 Z M11.8516667,47.3177778 L11.8516667,43.6661111 L14.8957407,45.4918519 L11.8516667,47.3177778 Z M44.4457407,15.9461111 L42.6185185,12.8992593 L46.2744444,12.8992593 L44.4457407,15.9461111 Z" id="Shape"></path>
                                        <path d="M54.0146296,60.4672222 C51.1572222,62.3001852 47.8485185,63.2696296 44.4442593,63.2696296 L44.4442593,66.2325926 C48.4155556,66.2325926 52.2785185,65.1012963 55.6146296,62.9614815 L54.0146296,60.4672222 Z" id="Shape"></path>
                                        <path d="M44.4442593,24.7511111 C37.3507407,24.7511111 30.8201852,28.3288889 26.9746296,34.3214815 L29.4688889,35.9216667 C32.7661111,30.7827778 38.365,27.7142593 44.4442593,27.7142593 C47.8485185,27.7142593 51.1572222,28.6835185 54.0146296,30.5166667 L55.6148148,28.0224074 C52.2785185,25.8825926 48.4155556,24.7511111 44.4442593,24.7511111 Z" id="Shape"></path>
                                        <path d="M87.4072222,8.45481481 L83.5761111,8.45481481 L89.9361111,2.09481481 L87.8412963,0 L81.4812963,6.36 L81.4812963,2.52888889 C81.4812963,1.93 81.1211111,1.38888889 80.5668519,1.16018519 C80.0112963,0.928703704 79.3761111,1.05740741 78.9522222,1.4812963 L68.5818519,11.8516667 C68.3040741,12.1294444 68.1477778,12.5055556 68.1477778,12.8990741 L68.1477778,19.6931481 L62.6561111,25.1851852 L64.7511111,27.2801852 L70.242963,21.7883333 L77.037037,21.7883333 C77.4305556,21.7883333 77.8066667,21.632037 78.0844444,21.3542593 L88.4548148,10.9838889 C88.8787037,10.56 89.0061111,9.92333333 88.7759259,9.36925926 C88.5472222,8.81518519 88.0061111,8.45481481 87.4072222,8.45481481 Z M71.1109259,13.5127778 L78.5183333,6.10537037 L78.5183333,9.32296296 L71.1109259,16.7303704 L71.1109259,13.5127778 Z M76.4235185,18.8251852 L73.2059259,18.8251852 L80.6133333,11.4177778 L83.8309259,11.4177778 L76.4235185,18.8251852 Z" id="Shape"></path>
                                        <path d="M15.1053704,82.557963 L10.4116667,81.6194444 L29.1953704,62.8357407 L27.1005556,60.7407407 L8.31685185,79.5244444 L7.37833333,74.8307407 C7.24666667,74.1724074 6.68814815,73.6848148 6.01833333,73.642963 C5.32537037,73.6155556 4.7337037,74.0162963 4.52092593,74.6527778 L0.0764814815,87.9861111 C-0.101481481,88.5185185 0.0374074074,89.1059259 0.433888889,89.5024074 C0.715925926,89.7844444 1.095,89.9364815 1.4812963,89.9364815 C1.63759259,89.9364815 1.79666667,89.9118519 1.95,89.8598148 L15.2833333,85.4153704 C15.92,85.2040741 16.3351852,84.5892593 16.2931481,83.917963 C16.2512963,83.247963 15.7637037,82.6894444 15.1053704,82.557963 Z M3.82351852,86.1125926 L5.56685185,80.8825926 L5.95462963,82.8198148 C6.07185185,83.4057407 6.53037037,83.8644444 7.1162963,83.9814815 L9.05351852,84.3692593 L3.82351852,86.1125926 Z" id="Shape"></path>
                                    </g>
                                </g>
                            </g>
                        </g>
                    </g>
                </g>
            </g>
        </g>
    </g>
</svg>