<?xml version="1.0" encoding="UTF-8"?>
<svg width="91px" height="82px" viewBox="0 0 91 82" version="1.1" xmlns="http://www.w3.org/2000/svg" xmlns:xlink="http://www.w3.org/1999/xlink">
    <!-- Generator: Sketch 51.1 (57501) - http://www.bohemiancoding.com/sketch -->
    <title>icon_3</title>
    <desc>Created with Sketch.</desc>
    <defs></defs>
    <g id="Page-1" stroke="none" stroke-width="1" fill="none" fill-rule="evenodd">
        <g id="Main-HD-SMM-(2)" transform="translate(-1056.000000, -2185.000000)" fill="#2F80ED" fill-rule="nonzero">
            <g id="3rd-screen-copy-2" transform="translate(0.000000, 1954.000000)">
                <g id="content" transform="translate(341.000000, 216.000000)">
                    <g id="Group-2+" transform="translate(49.000000, 0.000000)">
                        <g id="1/2/3/4">
                            <g id="Group-3" transform="translate(608.333333, 0.000000)">
                                <g id="icon_3" transform="translate(58.000000, 15.000000)">
                                    <g id="table">
                                        <path d="M89.105541,19.3260404 C88.3170651,19.2081836 87.5841654,19.75036 87.4661322,20.5377773 L83.3257956,48.1397272 L73.3291419,48.1397272 L73.1202461,43.3347702 L73.5366263,43.3347702 C73.9298939,43.3347702 74.3058711,43.1740404 74.5777533,42.8901608 C74.8496354,42.6061048 74.9936042,42.2234232 74.9768431,41.8305085 L74.475599,30.2987174 C74.4419004,29.5278848 73.807097,28.9198991 73.0353822,28.9198991 L61.0229896,28.9198991 L61.0229896,23.8670547 C62.7006842,23.2719486 63.9058932,21.6695905 63.9058932,19.7905866 L63.9058932,14.9856296 C63.9058932,14.1893906 63.2605039,13.5441777 62.4644414,13.5441777 L56.6984577,13.5441777 C55.9023952,13.5441777 55.2570059,14.1893906 55.2570059,14.9856296 L55.2570059,19.7905866 C55.2570059,21.6697669 56.4622148,23.272125 58.1399095,23.8670547 L58.1399095,28.9198991 L50.4520488,28.9198991 L50.4520488,14.9856296 C50.4520488,12.5709772 48.8237552,10.5308906 46.6081185,9.90155664 L46.6081185,1.53178516 C46.6081185,0.735546224 45.9627292,0.0903333333 45.1666667,0.0903333333 C44.3706042,0.0903333333 43.7252148,0.735546224 43.7252148,1.53178516 L43.7252148,9.90155664 C41.5095781,10.5308906 39.8812845,12.5709772 39.8812845,14.9856296 L39.8812845,28.9198991 L32.1934238,28.9198991 L32.1934238,23.8670547 C33.8711185,23.2719486 35.0763275,21.6695905 35.0763275,19.7905866 L35.0763275,14.9856296 C35.0763275,14.1893906 34.4309382,13.5441777 33.6348757,13.5441777 L27.8688919,13.5441777 C27.0728294,13.5441777 26.4274401,14.1893906 26.4274401,14.9856296 L26.4274401,19.7905866 C26.4274401,21.6697669 27.6326491,23.272125 29.3103437,23.8670547 L29.3103437,28.9198991 L17.2979512,28.9198991 C16.5260599,28.9198991 15.8914329,29.5278848 15.8577344,30.2987174 L15.3564902,41.8305085 C15.3395527,42.2234232 15.4835215,42.6061048 15.7555801,42.8901608 C16.0274622,43.1742168 16.4036159,43.3347702 16.796707,43.3347702 L17.2132637,43.3347702 L17.0043678,48.1397272 L7.00753776,48.1397272 L2.86720117,20.5377773 C2.74899154,19.75036 2.01626823,19.2076543 1.22779232,19.3260404 C0.440551432,19.4440736 -0.101801432,20.1782083 0.0162317708,20.9652728 L4.32470833,49.6886263 L4.32470833,80.3326217 C4.32470833,81.1288607 4.97009766,81.7740736 5.76616016,81.7740736 C6.56222266,81.7740736 7.20761198,81.1288607 7.20761198,80.3326217 L7.20761198,56.7884382 L16.6282142,56.7884382 L15.8579108,74.5040046 C15.8409733,74.8969193 15.9849421,75.2796009 16.2568242,75.5636569 C16.5287064,75.8477129 16.90486,76.0082663 17.2979512,76.0082663 C19.0790352,76.0082663 20.4661458,75.7684948 21.6224831,75.4149245 L21.6224831,80.3326217 C21.6224831,81.1288607 22.2678724,81.7740736 23.0639349,81.7740736 C23.8599974,81.7740736 24.5053867,81.1288607 24.5053867,80.3326217 L24.5053867,74.1567858 C24.6595885,74.0729805 24.812026,73.9893516 24.9616406,73.9067812 C26.370276,73.1297734 27.6225924,72.4423932 29.7911217,72.2317331 L29.7911217,80.3326217 C29.7911217,81.1288607 30.4365111,81.7740736 31.2325736,81.7740736 C32.0286361,81.7740736 32.6740254,81.1288607 32.6740254,80.3326217 L32.6740254,72.2317331 C34.8427311,72.4423932 36.0948711,73.129597 37.5035065,73.9069577 C39.2888249,74.8918027 41.3123268,76.0082663 45.167196,76.0082663 C49.0220651,76.0082663 51.0453906,74.8918027 52.830709,73.9067812 C54.2389915,73.1299499 55.4911315,72.4425697 57.6589551,72.2319095 L57.6589551,80.3326217 C57.6589551,81.1288607 58.3043444,81.7740736 59.1004069,81.7740736 C59.8964694,81.7740736 60.5418587,81.1288607 60.5418587,80.3326217 L60.5418587,72.2317331 C62.7107409,72.4422168 63.9632337,73.129597 65.3720456,73.9069577 C65.5216602,73.9893516 65.6737448,74.0729805 65.8277702,74.1566094 L65.8277702,80.3329746 C65.8277702,81.1292135 66.4731595,81.7744264 67.269222,81.7744264 C68.0652845,81.7744264 68.7106738,81.1292135 68.7106738,80.3329746 L68.7106738,75.4149245 C69.8670111,75.7684948 71.2539453,76.0084427 73.0352057,76.0084427 C73.4284733,76.0084427 73.8044505,75.8477129 74.0763327,75.5638333 C74.3482148,75.2797773 74.4921836,74.8970957 74.4754225,74.504181 L73.7052956,56.7886146 L83.1257214,56.7886146 L83.1257214,80.3327982 C83.1257214,81.1290371 83.7711107,81.77425 84.5671732,81.77425 C85.3632357,81.77425 86.008625,81.1290371 86.008625,80.3327982 L86.008625,49.6888027 L90.3171016,20.9654492 C90.4351348,20.1782083 89.8927819,19.4438971 89.105541,19.3260404 Z M16.7534811,53.9055345 L7.20761198,53.9055345 L7.20761198,51.0226309 L16.878748,51.0226309 L16.7534811,53.9055345 Z M58.1399095,16.4270814 L61.0228132,16.4270814 L61.0228132,19.7905866 C61.0228132,20.5855905 60.3761888,21.2320384 59.5813613,21.2320384 C58.7865339,21.2320384 58.1399095,20.5854141 58.1399095,19.7905866 L58.1399095,16.4270814 Z M42.7641882,14.9856296 C42.7641882,13.6607995 43.8418366,12.583151 45.1666667,12.583151 C46.4914967,12.583151 47.5691452,13.6607995 47.5691452,14.9856296 L47.5691452,28.9198991 L42.7641882,28.9198991 L42.7641882,14.9856296 Z M29.3103437,16.4270814 L32.1932474,16.4270814 L32.1932474,19.7905866 C32.1932474,20.5855905 31.546623,21.2320384 30.7517956,21.2320384 C29.9569681,21.2320384 29.3103437,20.5854141 29.3103437,19.7905866 L29.3103437,16.4270814 Z M65.844002,43.3349466 L70.234696,43.3349466 L71.5268861,73.0533783 C69.3975247,72.8354844 68.1593229,72.1521621 66.7648021,71.3829173 C64.9796602,70.3978958 62.9563346,69.2814323 59.1014655,69.2814323 C55.2460671,69.2817852 53.2230944,70.3978958 51.4379525,71.3829173 C49.7431439,72.317832 48.2792852,73.1253626 45.1673724,73.1253626 C42.0549303,73.1253626 40.5910716,72.317832 38.896263,71.3829173 C37.1109447,70.3978958 35.0874427,69.2814323 31.2323971,69.2814323 C27.377528,69.2814323 25.354026,70.3978958 23.5687077,71.3829173 C23.1671478,71.6043398 22.7784674,71.8181758 22.3776133,72.0164857 C21.3857109,72.5069674 20.3218242,72.8982943 18.8062708,73.0533783 L20.0984609,43.3349466 L60.0776654,43.3349466 C60.8737279,43.3349466 61.5191172,42.6897337 61.5191172,41.8934948 C61.5191172,41.0972559 60.8737279,40.452043 60.0776654,40.452043 L18.3022038,40.452043 L18.6783574,31.8031556 L71.6551523,31.8031556 L72.031306,40.452043 L65.844002,40.452043 C65.0479395,40.452043 64.4025501,41.0972559 64.4025501,41.8934948 C64.4025501,42.6897337 65.0479395,43.3349466 65.844002,43.3349466 Z M83.1258978,53.9055345 L73.5800286,53.9055345 L73.4547617,51.0226309 L83.1258978,51.0226309 L83.1258978,53.9055345 Z" id="Shape"></path>
                                    </g>
                                </g>
                            </g>
                        </g>
                    </g>
                </g>
            </g>
        </g>
    </g>
</svg>