<?xml version="1.0" encoding="UTF-8"?>
<svg width="91px" height="90px" viewBox="0 0 91 90" version="1.1" xmlns="http://www.w3.org/2000/svg" xmlns:xlink="http://www.w3.org/1999/xlink">
    <!-- Generator: Sketch 51.1 (57501) - http://www.bohemiancoding.com/sketch -->
    <title>icon_6</title>
    <desc>Created with Sketch.</desc>
    <defs></defs>
    <g id="Page-1" stroke="none" stroke-width="1" fill="none" fill-rule="evenodd">
        <g id="Main-HD-SMM-(2)" transform="translate(-872.000000, -2402.000000)" fill="#2F80ED" fill-rule="nonzero">
            <g id="3rd-screen-copy-2" transform="translate(0.000000, 1954.000000)">
                <g id="content" transform="translate(341.000000, 216.000000)">
                    <g id="Group-2+" transform="translate(49.000000, 0.000000)">
                        <g id="5/6/7/8" transform="translate(155.000000, 217.000000)">
                            <g id="Group-2" transform="translate(309.666667, 0.000000)">
                                <g id="icon_6" transform="translate(18.000000, 15.000000)">
                                    <g id="advertising">
                                        <path d="M26.871,16.155842 C25.701,17.3219127 23.799,17.3219127 22.629,16.155842 L20.508,18.2724324 C21.678,19.44 23.214,20.0237838 24.75,20.0237838 C26.286,20.0237838 27.822,19.44 28.992,18.2724324 L26.871,16.155842 Z" id="Shape"></path>
                                        <path d="M89.3355,19.7124324 C88.9185,19.4340125 88.392,19.3831185 87.9285,19.5717256 L63.0105,29.810395 L53.091,25.5682328 C52.629,25.3721414 52.095,25.4185447 51.675,25.6939709 C51.2535,25.970894 51,26.4409148 51,26.9438669 L51,41.9126819 L51,55.9384615 L44.307,48.4226195 C42.315,46.1877755 39.4545,44.9064449 36.459,44.9064449 L28.5,44.9064449 L28.5,43.4095634 C31.809,43.4095634 34.5,40.724158 34.5,37.4220374 C34.5,36.5957588 33.828,35.9251559 33,35.9251559 C31.3455,35.9251559 30,34.5824532 30,32.9313929 L33,32.9313929 C33.828,32.9313929 34.5,32.26079 34.5,31.4345114 L34.5,28.4407484 L37.5,28.4407484 C37.962,28.4407484 38.3985,28.2281913 38.682,27.8644491 C38.9655,27.5007069 39.0675,27.0276923 38.955,26.5801247 L34.872,10.2790852 C38.9385,9.41837838 42,5.80939709 42,1.4968815 C42,0.670602911 41.328,0 40.5,0 L12,0 C7.8645,0 4.5,3.3575052 4.5,7.48440748 L4.5,19.7348857 C2.7585,20.3545946 1.5,22.0011642 1.5,23.950104 C1.5,26.4259459 3.519,28.4407484 6,28.4407484 L7.5,28.4407484 L7.5,37.4220374 C7.5,40.724158 10.191,43.4095634 13.5,43.4095634 L13.5,44.9064449 L10.5,44.9064449 C4.71,44.9064449 0,49.6066528 0,55.3846154 L0,88.3160083 C0,89.1422869 0.672,89.8128898 1.5,89.8128898 L42,89.8128898 C42.828,89.8128898 43.5,89.1422869 43.5,88.3160083 L43.5,68.1634927 L46.3245,71.1827027 C49.332,74.399501 53.7495,75.3919335 57.8505,73.7827859 C61.9515,72.1676507 64.5,68.4329314 64.5,64.0335967 L64.5,44.147526 L87.9285,53.7739709 C88.113,53.8503119 88.3065,53.8877339 88.5,53.8877339 C88.7925,53.8877339 89.0835,53.8024116 89.3355,53.6347609 C89.7495,53.356341 90,52.8893139 90,52.3908524 L90,20.956341 C90,20.4578794 89.7495,19.9908524 89.3355,19.7124324 Z M30.573,47.9002079 L27.918,53.1991684 L24.9555,51.2277755 L23.532,49.8072349 L27.354,47.9002079 L30.573,47.9002079 Z M26.565,55.8980457 L24.8055,59.4112266 L24.09,54.4176299 L24.1905,54.3173389 L26.565,55.8980457 Z M21,47.7235759 L16.5,45.4782536 L16.5,43.4095634 L25.5,43.4095634 L25.5,45.4782536 L21,47.7235759 Z M21.879,52.3908524 L21,53.2680249 L20.121,52.3908524 L21,51.5136798 L21.879,52.3908524 Z M7.5,25.4469854 L6,25.4469854 C5.1735,25.4469854 4.5,24.7748857 4.5,23.950104 C4.5,23.1253222 5.1735,22.4532225 6,22.4532225 L7.5,22.4532225 L7.5,25.4469854 Z M9,19.4594595 L7.5,19.4594595 L7.5,7.48440748 C7.5,5.00856549 9.519,2.99376299 12,2.99376299 L38.811,2.99376299 C38.142,5.57288981 35.79,7.48440748 33,7.48440748 L16.5,7.48440748 C15.672,7.48440748 15,8.1550104 15,8.98128898 L15,13.4719335 C15,16.7740541 12.309,19.4594595 9,19.4594595 Z M10.5,37.4220374 L10.5,26.9438669 L10.5,22.3289813 C10.533,22.3229938 10.5615,22.3095218 10.5945,22.3050312 C11.055,22.2227027 11.5035,22.1044491 11.937,21.953264 C12.012,21.927817 12.084,21.8993763 12.1575,21.8724324 C12.5895,21.7092723 13.008,21.5191684 13.407,21.2961331 C13.461,21.2661954 13.5105,21.2317672 13.563,21.2018295 C13.974,20.9593347 14.37,20.6913929 14.736,20.3890229 C14.742,20.3830353 14.748,20.3770478 14.7555,20.3725572 C15.1215,20.0686902 15.4575,19.730395 15.771,19.3726403 C15.804,19.3352183 15.84,19.2992931 15.873,19.2603742 C16.1685,18.9116008 16.4325,18.5358836 16.6725,18.1451975 C16.7115,18.0808316 16.752,18.0164657 16.791,17.9506029 C17.0175,17.5599168 17.214,17.1527651 17.379,16.7276507 C17.4075,16.6543035 17.4345,16.5794595 17.4615,16.5046154 C17.619,16.0690229 17.748,15.6214553 17.8365,15.1589189 C17.8485,15.1005405 17.853,15.0391684 17.8635,14.9792931 C17.946,14.488316 18,13.9868607 18,13.4719335 L18,10.4781705 L31.8285,10.4781705 L35.5785,25.4469854 L33,25.4469854 C32.172,25.4469854 31.5,26.1175884 31.5,26.9438669 L31.5,29.9376299 L28.5,29.9376299 C27.672,29.9376299 27,30.6082328 27,31.4345114 L27,32.9313929 C27,35.6197921 28.785,37.8995426 31.2345,38.6539709 C30.762,39.6928067 29.715,40.4158004 28.5,40.4158004 L27,40.4158004 L15,40.4158004 L13.5,40.4158004 C11.8455,40.4158004 10.5,39.0730977 10.5,37.4220374 Z M14.646,47.9002079 L18.468,49.8072349 L17.0445,51.2277755 L14.082,53.1991684 L11.427,47.9002079 L14.646,47.9002079 Z M17.91,54.4176299 L17.1945,59.4112266 L15.4335,55.8980457 L17.8095,54.3173389 L17.91,54.4176299 Z M19.5,86.8191268 L3,86.8191268 L3,55.3846154 C3,52.0405821 5.2245,49.2354262 8.262,48.2789189 L19.5,70.7066944 L19.5,86.8191268 Z M21,67.0064033 L19.551,64.1144283 L20.598,56.803659 C20.73,56.8410811 20.8635,56.8814969 21,56.8814969 C21.1365,56.8814969 21.27,56.8410811 21.402,56.803659 L22.449,64.1144283 L21,67.0064033 Z M61.5,64.0335967 C61.5,67.7907692 59.046,70.092973 56.7495,70.9970894 C54.453,71.9012058 51.084,71.886237 48.516,69.1409563 L43.095,63.3450312 C42.675,62.8944699 42.0225,62.7492723 41.448,62.9738046 C40.8765,63.1983368 40.5,63.7506861 40.5,64.3659044 L40.5,86.8191268 L22.5,86.8191268 L22.5,70.7066944 L33.927,47.9002079 L36.459,47.9002079 C38.5995,47.9002079 40.6425,48.8162994 42.0645,50.4119751 L51.3795,60.8691892 C51.795,61.3347193 52.452,61.4933888 53.034,61.2733472 C53.616,61.0533056 54,60.4964657 54,59.8752599 L54,49.3970894 L61.5,49.3970894 L61.5,64.0335967 Z M61.5,41.9126819 L61.5,46.4033264 L54,46.4033264 L54,43.4095634 L55.5,43.4095634 C56.1885,43.4095634 56.7885,42.9425364 56.955,42.2764241 L58.1715,37.4220374 L61.5,37.4220374 L61.5,41.9126819 Z M61.5,34.4282744 L57,34.4282744 C56.3115,34.4282744 55.7115,34.8953015 55.545,35.5614137 L54.3285,40.4158004 L54,40.4158004 L54,29.2146362 L61.5,32.4209563 L61.5,34.4282744 Z M87,50.1560083 L64.5,40.9097713 L64.5,35.9251559 L64.5,32.437422 L87,23.191185 L87,50.1560083 Z" id="Shape"></path>
                                        <rect id="Rectangle-path" x="72" y="4.49064449" width="3" height="11.975052"></rect>
                                        <rect id="Rectangle-path" transform="translate(83.239855, 11.973155) rotate(-50.192962) translate(-83.239855, -11.973155) " x="77.3823919" y="10.4762834" width="11.7149255" height="2.99374395"></rect>
                                        <rect id="Rectangle-path" transform="translate(63.748032, 11.974039) rotate(-39.807038) translate(-63.748032, -11.974039) " x="62.2480417" y="6.12875359" width="2.99998092" height="11.6905701"></rect>
                                        <rect id="Rectangle-path" x="28.5" y="65.8627859" width="9" height="2.99376299"></rect>
                                    </g>
                                </g>
                            </g>
                        </g>
                    </g>
                </g>
            </g>
        </g>
    </g>
</svg>