<?xml version="1.0" encoding="UTF-8"?>
<svg width="100px" height="71px" viewBox="0 0 100 71" version="1.1" xmlns="http://www.w3.org/2000/svg" xmlns:xlink="http://www.w3.org/1999/xlink">
    <!-- Generator: Sketch 51.1 (57501) - http://www.bohemiancoding.com/sketch -->
    <title>icon_5</title>
    <desc>Created with Sketch.</desc>
    <defs></defs>
    <g id="Page-1" stroke="none" stroke-width="1" fill="none" fill-rule="evenodd">
        <g id="Main-HD-SMM-(2)" transform="translate(-569.000000, -2412.000000)" fill="#2F80ED" fill-rule="nonzero">
            <g id="3rd-screen-copy-2" transform="translate(0.000000, 1954.000000)">
                <g id="content" transform="translate(341.000000, 216.000000)">
                    <g id="Group-2+" transform="translate(49.000000, 0.000000)">
                        <g id="5/6/7/8" transform="translate(155.000000, 217.000000)">
                            <g id="Group-1">
                                <g id="icon_5" transform="translate(24.000000, 15.000000)">
                                    <g id="pacman" transform="translate(0.000000, 10.000000)">
                                        <path d="M67.5388672,3.84785156 C66.2748047,3.22851562 65.4308594,2.375 64.9580078,1.23828125 C64.6728516,0.552539062 64.0080078,0.097265625 63.2642578,0.0779296875 C63.2480469,0.0775390625 63.2320312,0.07734375 63.2160156,0.07734375 C62.4919922,0.07734375 61.8279297,0.49375 61.515625,1.1484375 C60.9224609,2.39101562 60.0085937,3.30253906 58.7226562,3.934375 C58.0416016,4.26855469 57.6287109,4.97402344 57.6708984,5.73144531 C57.7126953,6.49101562 58.2027344,7.14804687 58.9191406,7.40527344 C60.2009766,7.86582031 61.0431641,8.63535156 61.4941406,9.75800781 C61.7835937,10.4787109 62.4664062,10.9382812 63.2416016,10.9382812 C63.2552734,10.9382812 63.2693359,10.9380859 63.2832031,10.9378906 C64.0763672,10.9210937 64.7589844,10.4283203 65.0222656,9.68203125 C65.4689453,8.41621094 66.1746094,7.67558594 67.2431641,7.35078125 C67.9955078,7.121875 68.5222656,6.46796875 68.5847656,5.68515625 C68.6472656,4.91074219 68.2367187,4.18964844 67.5388672,3.84785156 Z M63.1779297,6.87929687 C62.7574219,6.36035156 62.2597656,5.90839844 61.6861328,5.52519531 C62.2509766,5.08183594 62.7511719,4.57734375 63.1847656,4.0140625 C63.5794922,4.54101562 64.0443359,5.01679687 64.5777344,5.43984375 C64.0429688,5.83066406 63.5744141,6.3125 63.1779297,6.87929687 Z" id="Shape"></path>
                                        <path d="M96.3056641,59.0339844 C95.0416016,58.4146484 94.1976562,57.5611328 93.7248047,56.4244141 C93.4396484,55.7386719 92.7748047,55.2833984 92.0310547,55.2640625 C91.278125,55.2470703 90.6015625,55.6654297 90.2820312,56.3345703 C89.6888672,57.5771484 88.775,58.4886719 87.4890625,59.1205078 C86.8080078,59.4546875 86.3951172,60.1601563 86.4373047,60.9175781 C86.4794922,61.6769531 86.9697266,62.3337891 87.6859375,62.5912109 C88.9677734,63.0517578 89.8099609,63.8212891 90.2609375,64.9439453 C90.5503906,65.6646484 91.2332031,66.1242188 92.0083984,66.1242188 C92.0220703,66.1242188 92.0361328,66.1240234 92.05,66.1238281 C92.8431641,66.1070313 93.5257812,65.6142578 93.7890625,64.8679688 C94.2357422,63.6021484 94.9414062,62.8615234 96.0099609,62.5367188 C96.7625,62.3078125 97.2890625,61.6539063 97.3515625,60.8710938 C97.4142578,60.096875 97.0035156,59.3755859 96.3056641,59.0339844 Z M91.9451172,62.0652344 C91.5246094,61.5462891 91.0269531,61.0943359 90.4533203,60.7111328 C91.0181641,60.2675781 91.5181641,59.7630859 91.9519531,59.1998047 C92.3466797,59.7267578 92.8115234,60.2025391 93.3449219,60.6255859 C92.8099609,61.0166016 92.3417969,61.4984375 91.9451172,62.0652344 Z" id="Shape"></path>
                                        <path d="M11.3742188,63.9263672 C10.1101563,63.3070313 9.26621094,62.4535156 8.79335938,61.3167969 C8.50820312,60.6310547 7.84355469,60.1757813 7.09960938,60.1564453 C7.08339844,60.1560547 7.06738281,60.1558594 7.05136719,60.1558594 C6.32734375,60.1558594 5.66328125,60.5722656 5.35097656,61.2269531 C4.7578125,62.4695313 3.84394531,63.3810547 2.55800781,64.0128906 C1.87695312,64.3470703 1.4640625,65.0525391 1.50625,65.8099609 C1.5484375,66.5693359 2.03867187,67.2261719 2.75488281,67.4835938 C4.03671875,67.9441406 4.87890625,68.7136719 5.32988281,69.8363281 C5.61933594,70.5570313 6.30214844,71.0166016 7.07734375,71.0166016 C7.09101562,71.0166016 7.10507812,71.0164063 7.11894531,71.0162109 C7.91210937,70.9994141 8.59472656,70.5066406 8.85800781,69.7603516 C9.3046875,68.4945313 10.0101563,67.7539063 11.0789063,67.4291016 C11.8314453,67.2001953 12.3580078,66.5462891 12.4205078,65.7634766 C12.4828125,64.9892578 12.0720703,64.2679688 11.3742188,63.9263672 Z M7.01347656,66.9576172 C6.59296875,66.4386719 6.0953125,65.9867187 5.52167969,65.6035156 C6.08652344,65.1599609 6.58652344,64.6554688 7.0203125,64.0921875 C7.41503906,64.6191406 7.87988281,65.0949219 8.41328125,65.5179688 C7.87851563,65.9089844 7.41015625,66.3908203 7.01347656,66.9576172 Z" id="Shape"></path>
                                        <path d="M98.4345703,24.4679688 L88.6009766,24.4679688 C87.7902344,24.4679688 87.1332031,25.125 87.1332031,25.9357422 C87.1332031,26.7464844 87.7902344,27.4035156 88.6009766,27.4035156 L98.4345703,27.4035156 C99.2453125,27.4035156 99.9023438,26.7464844 99.9023438,25.9357422 C99.9021484,25.125 99.2453125,24.4679688 98.4345703,24.4679688 Z" id="Shape"></path>
                                        <path d="M56.8003906,40.4171875 C56.8003906,41.2279297 57.4574219,41.8849609 58.2681641,41.8849609 L77.3986328,41.8849609 C77.4013672,41.8917969 77.4046875,41.8982422 77.4074219,41.9052734 C77.7277344,42.7033203 78.4845703,43.2125 79.3441406,43.2125 C79.359375,43.2125 79.3748047,43.2123047 79.3900391,43.2119141 C80.2462891,43.1939453 80.9849609,42.6751953 81.2929687,41.8851562 L98.5320312,41.8851562 C99.3427734,41.8851562 99.9998047,41.228125 99.9998047,40.4173828 C99.9998047,39.6066406 99.3427734,38.9496094 98.5320312,38.9496094 L83.1621094,38.9496094 C83.7152344,38.4734375 84.3574219,38.1232422 85.0964844,37.8984375 C85.9326172,37.6441406 86.5183594,36.9173828 86.5882812,36.0478516 C86.6294922,35.5324219 86.4806641,35.0388672 86.1880859,34.6443359 L98.5322266,34.6443359 C99.3429687,34.6443359 100,33.9873047 100,33.1765625 C100,32.3658203 99.3429687,31.7087891 98.5322266,31.7087891 L82.4082031,31.7087891 C81.9257812,31.1246094 81.5359375,30.4755859 81.2365234,29.7556641 C80.9205078,28.9955078 80.1832031,28.4908203 79.3583984,28.4697266 C78.5375,28.4472656 77.7738281,28.9140625 77.4199219,29.6554687 C77.0570313,30.4158203 76.6197266,31.0982422 76.1042969,31.7089844 L35.3439453,31.7089844 L39.6492188,27.4037109 L82.7300781,27.4037109 C83.5408203,27.4037109 84.1978516,26.7466797 84.1978516,25.9359375 C84.1978516,25.1251953 83.5408203,24.4681641 82.7300781,24.4681641 L42.5845703,24.4681641 L46.8898438,20.1628906 L98.434375,20.1628906 C99.2451172,20.1628906 99.9021484,19.5058594 99.9021484,18.6951172 C99.9021484,17.884375 99.2451172,17.2273437 98.434375,17.2273437 L49.8255859,17.2273437 L53.6744141,13.3783203 C54.2072266,12.8453125 54.503125,12.1076172 54.4863281,11.3541016 C54.4693359,10.5986328 54.1396484,9.87246094 53.58125,9.36171875 C47.6732422,3.95976563 40.0076172,0.984375 31.9960937,0.984375 C23.4556641,0.984375 15.4373047,4.27773438 9.41835937,10.2580078 C3.39921875,16.2386719 0.0544921875,24.2353516 0.0005859375,32.7751953 C-0.053515625,41.3623047 3.24921875,49.4449219 9.3,55.5337891 C15.3511719,61.6234375 23.4115234,64.9769531 31.9962891,64.9769531 C40.0056641,64.9769531 47.6699219,62.003125 53.5771484,56.6033203 C54.1376953,56.0910156 54.4689453,55.3630859 54.4859375,54.6058594 C54.5029297,53.8419922 54.2148438,53.1238281 53.6748047,52.5835937 L50.2167969,49.1255859 L98.434375,49.1255859 C99.2451172,49.1255859 99.9021484,48.4685547 99.9021484,47.6578125 C99.9021484,46.8470703 99.2451172,46.1900391 98.434375,46.1900391 L47.2814453,46.1900391 L42.9761719,41.8847656 L52.3974609,41.8847656 C53.2082031,41.8847656 53.8652344,41.2277344 53.8652344,40.4169922 C53.8652344,39.60625 53.2082031,38.9492188 52.3974609,38.9492188 L40.040625,38.9492188 L35.7353516,34.6439453 L72.2734375,34.6439453 C71.9214844,35.046875 71.7296875,35.5771484 71.7607422,36.1337891 C71.8076172,36.9759766 72.3517578,37.7048828 73.1464844,37.9904297 C73.8646484,38.2486328 74.4980469,38.5681641 75.0529297,38.9492188 L58.2679687,38.9492188 C57.4576172,38.9494141 56.8003906,39.6066406 56.8003906,40.4171875 Z M51.48125,54.5416016 C46.1320312,59.3792969 39.21875,62.0414063 31.9960937,62.0414063 C24.1990234,62.0414063 16.8783203,58.9957031 11.3820312,53.4646484 C5.88652344,47.9341797 2.88691406,40.5931641 2.93613281,32.7933594 C2.98496094,25.0341797 6.021875,17.7705078 11.4875,12.3404297 C16.9529297,6.91054687 24.2361328,3.92011719 31.9962891,3.92011719 C39.2189453,3.92011719 46.1320312,6.58242187 51.4814453,11.4199219 C51.48125,11.4201172 51.4814453,11.4199219 51.48125,11.4201172 L30.9583984,31.9429687 C30.3851562,32.5164062 30.3851562,33.4455078 30.9583984,34.01875 L51.48125,54.5416016 Z M79.2716797,32.35 C80.0941406,33.7005859 81.2091797,34.8455078 82.6058594,35.7732422 C81.2167969,36.5337891 80.1078125,37.6697266 79.2900391,39.1703125 C78.4185547,37.8101563 77.2236328,36.7242188 75.7169922,35.9226563 C77.1609375,34.9714844 78.3498047,33.7765625 79.2716797,32.35 Z" id="Shape"></path>
                                        <path d="M30.8220703,10.1822266 C27.6386719,10.1822266 25.0490234,12.771875 25.0490234,15.9552734 C25.0490234,19.1386719 27.6386719,21.7283203 30.8220703,21.7283203 C34.0054688,21.7283203 36.5951172,19.1386719 36.5951172,15.9552734 C36.5951172,12.771875 34.0052734,10.1822266 30.8220703,10.1822266 Z M30.8220703,18.7929688 C29.2574219,18.7929688 27.9845703,17.5201172 27.9845703,15.9554688 C27.9845703,14.3908203 29.2576172,13.1179688 30.8220703,13.1179688 C32.3865234,13.1179688 33.6595703,14.3910156 33.6595703,15.9554688 C33.6595703,17.5199219 32.3865234,18.7929688 30.8220703,18.7929688 Z" id="Shape"></path>
                                    </g>
                                </g>
                            </g>
                        </g>
                    </g>
                </g>
            </g>
        </g>
    </g>
</svg>