<?xml version="1.0" encoding="UTF-8"?>
<svg width="81px" height="78px" viewBox="0 0 81 78" version="1.1" xmlns="http://www.w3.org/2000/svg" xmlns:xlink="http://www.w3.org/1999/xlink">
    <!-- Generator: Sketch 51.1 (57501) - http://www.bohemiancoding.com/sketch -->
    <title>icon_4</title>
    <desc>Created with Sketch.</desc>
    <defs></defs>
    <g id="Page-1" stroke="none" stroke-width="1" fill="none" fill-rule="evenodd">
        <g id="Main-HD-SMM-(2)" transform="translate(-1360.000000, -2185.000000)" fill="#2F80ED" fill-rule="nonzero">
            <g id="3rd-screen-copy-2" transform="translate(0.000000, 1954.000000)">
                <g id="content" transform="translate(341.000000, 216.000000)">
                    <g id="Group-2+" transform="translate(49.000000, 0.000000)">
                        <g id="1/2/3/4">
                            <g id="Group-4" transform="translate(902.000000, 0.000000)">
                                <g id="icon_4" transform="translate(63.000000, 15.000000)">
                                    <g id="exercise" transform="translate(5.000000, 0.000000)">
                                        <path d="M78.2920207,13.0007077 C75.331777,5.71777757 69.0849294,0.906187243 61.5834176,0.128449842 C60.7618751,0.0435497753 59.923407,0 59.0901468,0 C51.6055606,0 44.6135528,3.47958305 39.9998084,9.40543177 C35.386498,3.47958305 28.3944901,0 20.9099039,0 C20.0766437,0 19.2373076,0.0435497753 18.4166331,0.128449842 C10.9151213,0.90530745 4.66827374,5.71777757 1.70759608,13.0007077 C-1.43448927,20.729693 -0.181127051,29.491116 4.97901036,35.8647796 L12.739614,45.4510089 C13.032123,45.8121641 13.4574329,46 13.8853468,46 C14.2164809,46 14.548049,45.8887061 14.8266704,45.65908 C15.4594274,45.1334035 15.5509992,44.1876255 15.0319475,43.5462561 L7.27177789,33.9604667 C2.80558999,28.443282 1.72408769,20.8497848 4.44997693,14.144879 C6.98838262,7.90142488 12.3225499,3.77827293 18.7212939,3.11534857 C19.4421508,3.04100602 20.1794992,3.00273501 20.9120738,3.00273501 C28.101113,3.00273501 34.7754405,6.66355551 38.7655417,12.7939562 C39.0393892,13.2158172 39.5041921,13.4687578 40.0015443,13.4687578 C40.4988965,13.4687578 40.9636995,13.2158172 41.237547,12.7939562 C45.2276482,6.66267572 51.9011076,3.00273501 59.0905808,3.00273501 C59.8231554,3.00273501 60.5600699,3.04012623 61.2813608,3.11534857 C67.6801048,3.77827293 73.014272,7.90142488 75.5526777,14.144879 C78.278567,20.8497848 77.1970647,28.4428421 72.7308768,33.9604667 L67.5633615,40.3433681 C67.0443099,40.9838577 67.1358817,41.9296357 67.7686387,42.456192 C68.4005276,42.9823085 69.3336055,42.8894903 69.8530911,42.2481209 L75.0206064,35.8652195 C80.1807438,29.491116 81.434974,20.729693 78.2920207,13.0007077 Z" id="Shape"></path>
                                        <path d="M55.4516206,59.3333161 C54.811176,58.8189949 53.864795,58.91001 53.3403953,59.5363829 L40.9991998,74.2250195 L28.6597626,59.5385295 C28.1344838,58.9121566 27.1885423,58.8211415 26.5485373,59.3354627 C25.9080927,59.848496 25.8149052,60.7715266 26.3406236,61.3974701 L39.8396303,77.4642129 C40.1244677,77.8025144 40.5499655,78 40.9991998,78 C41.4484341,78 41.8739319,77.8029437 42.1574506,77.4642129 L55.6586552,61.3953236 C56.1852527,60.7702387 56.0920651,59.8467787 55.4516206,59.3333161 Z" id="Shape"></path>
                                        <path d="M60.5358522,47 L22.4641478,47 C21.6559279,47 21,47.6470588 21,48.4443504 L21,58.5556496 C21,59.3529412 21.6559279,60 22.4641478,60 L60.5358522,60 C61.3449301,60 62,59.3537876 62,58.5556496 L62,48.4443504 C62,47.6470588 61.3440721,47 60.5358522,47 Z M59.0717044,57.1112992 L23.9287246,57.1112992 L23.9287246,49.8887008 L59.0717044,49.8887008 L59.0717044,57.1112992 Z" id="Shape"></path>
                                        <path d="M7.60008203,47 L3.39991797,47 C2.6271534,47 2,47.6470588 2,48.4443504 L2,58.5556496 C2,59.3529412 2.6271534,60 3.39991797,60 L7.60008203,60 C8.37366694,60 9,59.3537876 9,58.5556496 L9,48.4443504 C9,47.6470588 8.3728466,47 7.60008203,47 Z M6.20016407,57.1112992 L4.8002461,57.1112992 L4.8002461,49.8887008 L6.20016407,49.8887008 L6.20016407,57.1112992 Z" id="Shape"></path>
                                        <path d="M20.9057883,37 L17.0942117,37 C15.3878542,37 14,38.4361195 14,40.201819 L14,67.798181 C14,69.5638805 15.3878542,71 17.0942117,71 L20.9057883,71 C22.6121458,71 24,69.5638805 24,67.798181 L24,40.201819 C24,38.4361195 22.6121458,37 20.9057883,37 Z M21.1426778,67.798181 C21.1426778,67.9333045 21.0363705,68.0437419 20.9053698,68.0437419 L17.0937932,68.0437419 C16.963211,68.0437419 16.8564852,67.9337375 16.8564852,67.798181 L16.8564852,40.201819 C16.8564852,40.0666955 16.9627924,39.9562581 17.0937932,39.9562581 L20.9053698,39.9562581 C21.035952,39.9562581 21.1426778,40.0662625 21.1426778,40.201819 L21.1426778,67.798181 Z" id="Shape"></path>
                                        <path d="M13.1718567,43 L8.82814331,43 C7.26862548,43 6,44.3024083 6,45.9034551 L6,62.0965449 C6,63.6975917 7.26862548,65 8.82814331,65 L13.1718567,65 C14.7313745,65 16,63.6975917 16,62.0965449 L16,45.9034551 C16,44.3024083 14.7313745,43 13.1718567,43 Z M13.1425582,62.0677552 L8.85660472,62.0969746 L8.82730621,45.9331042 L13.1425582,45.9030254 L13.1425582,62.0677552 Z" id="Shape"></path>
                                        <path d="M79.6000819,47 L75.3999179,47 C74.6271534,47 74,47.6470588 74,48.4443504 L74,58.5556496 C74,59.3529412 74.6271534,60 75.3999179,60 L79.6000819,60 C80.3736668,60 80.9999998,59.3537876 80.9999998,58.5556496 L80.9999998,48.4443504 C81.00041,47.6470588 80.3732566,47 79.6000819,47 Z M78.2001639,57.1112992 L76.800246,57.1112992 L76.800246,49.8887008 L78.2001639,49.8887008 L78.2001639,57.1112992 Z" id="Shape"></path>
                                        <path d="M66.9057883,37 L63.0942117,37 C61.3878542,37 60,38.4361195 60,40.201819 L60,67.798181 C60,69.5638805 61.3878542,71 63.0942117,71 L66.9057883,71 C68.6121458,71 70,69.5638805 70,67.798181 L70,40.201819 C70,38.4361195 68.6121458,37 66.9057883,37 Z M67.1426778,67.798181 C67.1426778,67.9333045 67.0363705,68.0437419 66.9053698,68.0437419 L63.0937932,68.0437419 C62.963211,68.0437419 62.8564852,67.9337375 62.8564852,67.798181 L62.8564852,40.201819 C62.8564852,40.0666955 62.9627924,39.9562581 63.0937932,39.9562581 L66.9053698,39.9562581 C67.035952,39.9562581 67.1426778,40.0662625 67.1426778,40.201819 L67.1426778,67.798181 Z" id="Shape"></path>
                                        <path d="M74.1718567,43 L69.8281433,43 C68.2686255,43 67,44.3024083 67,45.9034551 L67,62.0965449 C67,63.6975917 68.2686255,65 69.8281433,65 L74.1718567,65 C75.7313745,65 77,63.6975917 77,62.0965449 L77,45.9034551 C77,44.3024083 75.7313745,43 74.1718567,43 Z M69.8566047,62.0660364 L69.8273062,45.9322448 L74.1425582,45.9021661 L74.1718567,62.0660364 L69.8566047,62.0660364 Z" id="Shape"></path>
                                        <path d="M41.5,47 C40.6719895,47 40,47.6470588 40,48.4443504 L40,58.5556496 C40,59.3529412 40.6719895,60 41.5,60 C42.3288895,60 43,59.3537876 43,58.5556496 L43,48.4443504 C43,47.6470588 42.3280105,47 41.5,47 Z" id="Shape"></path>
                                        <path d="M34.5,47 C33.6719895,47 33,47.6470588 33,48.4443504 L33,58.5556496 C33,59.3529412 33.6719895,60 34.5,60 C35.3288895,60 36,59.3537876 36,58.5556496 L36,48.4443504 C36,47.6470588 35.3280105,47 34.5,47 Z" id="Shape"></path>
                                        <path d="M49.4999999,47 C48.6719894,47 48,47.6470588 48,48.4443504 L48,58.5556496 C48,59.3529412 48.6719894,60 49.4999999,60 C50.3288894,60 50.9999998,59.3537876 50.9999998,58.5556496 L50.9999998,48.4443504 C51.0004393,47.6470588 50.3284499,47 49.4999999,47 Z" id="Shape"></path>
                                    </g>
                                </g>
                            </g>
                        </g>
                    </g>
                </g>
            </g>
        </g>
    </g>
</svg>