<?xml version="1.0" encoding="UTF-8"?>
<svg width="80px" height="83px" viewBox="0 0 80 83" version="1.1" xmlns="http://www.w3.org/2000/svg" xmlns:xlink="http://www.w3.org/1999/xlink">
    <!-- Generator: Sketch 51.1 (57501) - http://www.bohemiancoding.com/sketch -->
    <title>icon_8</title>
    <desc>Created with Sketch.</desc>
    <defs></defs>
    <g id="Page-1" stroke="none" stroke-width="1" fill="none" fill-rule="evenodd">
        <g id="Main-HD-SMM-(2)" transform="translate(-1474.000000, -2402.000000)" fill="#2F80ED" fill-rule="nonzero">
            <g id="3rd-screen-copy-2" transform="translate(0.000000, 1954.000000)">
                <g id="content" transform="translate(341.000000, 216.000000)">
                    <g id="Group-2+" transform="translate(49.000000, 0.000000)">
                        <g id="5/6/7/8" transform="translate(155.000000, 217.000000)">
                            <g id="Group-4" transform="translate(883.000000, 0.000000)">
                                <g id="icon_8" transform="translate(41.000000, 15.000000)">
                                    <g id="buildings" transform="translate(5.000000, 0.000000)">
                                        <path d="M77.3228369,79.787234 L77.3228369,17.2873759 L72.6008511,17.2873759 L61.9625532,5.31914894 L54.7165957,5.31914894 L54.7165957,0 L2.85446809,0 L2.85446809,79.787234 L0.194893617,79.787234 L0.194893617,82.4468085 L29.4502128,82.4468085 L34.7693617,82.4468085 L45.4076596,82.4468085 L48.067234,82.4468085 L58.7055319,82.4468085 L61.3651064,82.4468085 L72.0034043,82.4468085 L77.3225532,82.4468085 L79.9821277,82.4468085 L79.9821277,79.787234 L77.3228369,79.787234 Z M60.7696454,7.9787234 L69.0419858,17.2873759 L54.7163121,17.2873759 L54.7163121,13.2978723 L52.0567376,13.2978723 L52.0567376,17.2873759 L37.7310638,17.2873759 L46.0062411,7.9787234 L60.7696454,7.9787234 Z M37.4292199,11.968227 L37.4292199,9.30865248 L41.2643972,9.30865248 L38.9001418,11.968227 L37.4292199,11.968227 Z M29.4502128,79.787234 L14.822695,79.787234 L14.822695,59.8402837 L29.4504965,59.8402837 L29.4504965,79.787234 L29.4502128,79.787234 Z M29.4502128,43.8831206 L24.1310638,43.8831206 L24.1310638,41.2235461 L29.4502128,41.2235461 L29.4502128,43.8831206 Z M29.4502128,33.2448227 L24.1310638,33.2448227 L24.1310638,30.5852482 L29.4502128,30.5852482 L29.4502128,33.2448227 Z M29.4502128,22.6065248 L24.1310638,22.6065248 L24.1310638,19.9469504 L29.4502128,19.9469504 L29.4502128,22.6065248 Z M21.4714894,17.2873759 L21.4714894,25.2660993 L29.4502128,25.2660993 L29.4502128,27.9256738 L21.4714894,27.9256738 L21.4714894,35.9043972 L29.4502128,35.9043972 L29.4502128,38.5639716 L21.4714894,38.5639716 L21.4714894,46.542695 L29.4502128,46.542695 L29.4502128,51.861844 L8.17361702,51.861844 L8.17361702,54.5214184 L29.4502128,54.5214184 L29.4502128,57.1809929 L8.17361702,57.1809929 L8.17361702,59.8405674 L12.1631206,59.8405674 L12.1631206,79.7875177 L5.51404255,79.7875177 L5.51404255,2.65957447 L52.0567376,2.65957447 L52.0567376,5.31914894 L44.8107801,5.31914894 L43.6286525,6.64907801 L34.7696454,6.64907801 L34.7696454,14.6278014 L36.5370213,14.6278014 L34.172766,17.2873759 L32.1103546,17.2873759 L29.4507801,17.2873759 L21.4714894,17.2873759 Z M42.7483688,79.787234 L37.4292199,79.787234 L37.4292199,71.8085106 C37.4292199,70.341844 38.6221277,69.1489362 40.0887943,69.1489362 C41.555461,69.1489362 42.7483688,70.341844 42.7483688,71.8085106 L42.7483688,79.787234 Z M56.0462411,79.787234 L50.7270922,79.787234 L50.7270922,71.8085106 C50.7270922,70.341844 51.92,69.1489362 53.3866667,69.1489362 C54.8533333,69.1489362 56.0462411,70.341844 56.0462411,71.8085106 L56.0462411,79.787234 Z M69.3441135,79.787234 L64.0249645,79.787234 L64.0249645,71.8085106 C64.0249645,70.341844 65.2178723,69.1489362 66.684539,69.1489362 C68.1512057,69.1489362 69.3441135,70.341844 69.3441135,71.8085106 L69.3441135,79.787234 Z M74.6632624,79.787234 L72.0036879,79.787234 L72.0036879,71.8085106 C72.0036879,68.8748936 69.618156,66.4893617 66.684539,66.4893617 C63.750922,66.4893617 61.3653901,68.8748936 61.3653901,71.8085106 L61.3653901,79.787234 L58.7058156,79.787234 L58.7058156,71.8085106 C58.7058156,68.8748936 56.3202837,66.4893617 53.3866667,66.4893617 C50.4530496,66.4893617 48.0675177,68.8748936 48.0675177,71.8085106 L48.0675177,79.787234 L45.4079433,79.787234 L45.4079433,71.8085106 C45.4079433,68.8748936 43.0224113,66.4893617 40.0887943,66.4893617 C37.1551773,66.4893617 34.7696454,68.8748936 34.7696454,71.8085106 L34.7696454,79.787234 L32.1100709,79.787234 L32.1100709,46.542695 L32.1100709,38.5639716 L32.1100709,35.9043972 L32.1100709,27.9256738 L32.1100709,25.2660993 L32.1100709,19.9469504 L74.6632624,19.9469504 L74.6632624,79.787234 Z" id="Shape"></path>
                                        <path d="M45.4079433,54.5214184 L34.7696454,54.5214184 L34.7696454,62.5001418 L45.4079433,62.5001418 L45.4079433,54.5214184 Z M42.7483688,59.8405674 L37.4292199,59.8405674 L37.4292199,57.1809929 L42.7483688,57.1809929 L42.7483688,59.8405674 Z" id="Shape"></path>
                                        <path d="M58.7058156,54.5214184 L48.0675177,54.5214184 L48.0675177,62.5001418 L58.7058156,62.5001418 L58.7058156,54.5214184 Z M56.0462411,59.8405674 L50.7270922,59.8405674 L50.7270922,57.1809929 L56.0462411,57.1809929 L56.0462411,59.8405674 Z" id="Shape"></path>
                                        <path d="M72.0036879,54.5214184 L61.3653901,54.5214184 L61.3653901,62.5001418 L72.0036879,62.5001418 L72.0036879,54.5214184 Z M69.3441135,59.8405674 L64.0249645,59.8405674 L64.0249645,57.1809929 L69.3441135,57.1809929 L69.3441135,59.8405674 Z" id="Shape"></path>
                                        <path d="M45.4079433,43.8831206 L34.7696454,43.8831206 L34.7696454,51.861844 L45.4079433,51.861844 L45.4079433,43.8831206 Z M42.7483688,49.2022695 L37.4292199,49.2022695 L37.4292199,46.542695 L42.7483688,46.542695 L42.7483688,49.2022695 Z" id="Shape"></path>
                                        <path d="M58.7058156,43.8831206 L48.0675177,43.8831206 L48.0675177,51.861844 L58.7058156,51.861844 L58.7058156,43.8831206 Z M56.0462411,49.2022695 L50.7270922,49.2022695 L50.7270922,46.542695 L56.0462411,46.542695 L56.0462411,49.2022695 Z" id="Shape"></path>
                                        <path d="M72.0036879,43.8831206 L61.3653901,43.8831206 L61.3653901,51.861844 L72.0036879,51.861844 L72.0036879,43.8831206 Z M69.3441135,49.2022695 L64.0249645,49.2022695 L64.0249645,46.542695 L69.3441135,46.542695 L69.3441135,49.2022695 Z" id="Shape"></path>
                                        <path d="M45.4079433,33.2448227 L34.7696454,33.2448227 L34.7696454,41.2235461 L45.4079433,41.2235461 L45.4079433,33.2448227 Z M42.7483688,38.5639716 L37.4292199,38.5639716 L37.4292199,35.9043972 L42.7483688,35.9043972 L42.7483688,38.5639716 Z" id="Shape"></path>
                                        <path d="M58.7058156,33.2448227 L48.0675177,33.2448227 L48.0675177,41.2235461 L58.7058156,41.2235461 L58.7058156,33.2448227 Z M56.0462411,38.5639716 L50.7270922,38.5639716 L50.7270922,35.9043972 L56.0462411,35.9043972 L56.0462411,38.5639716 Z" id="Shape"></path>
                                        <path d="M72.0036879,33.2448227 L61.3653901,33.2448227 L61.3653901,41.2235461 L72.0036879,41.2235461 L72.0036879,33.2448227 Z M69.3441135,38.5639716 L64.0249645,38.5639716 L64.0249645,35.9043972 L69.3441135,35.9043972 L69.3441135,38.5639716 Z" id="Shape"></path>
                                        <path d="M45.4079433,22.6065248 L34.7696454,22.6065248 L34.7696454,30.5852482 L45.4079433,30.5852482 L45.4079433,22.6065248 Z M42.7483688,27.9256738 L37.4292199,27.9256738 L37.4292199,25.2660993 L42.7483688,25.2660993 L42.7483688,27.9256738 Z" id="Shape"></path>
                                        <path d="M58.7058156,22.6065248 L48.0675177,22.6065248 L48.0675177,30.5852482 L58.7058156,30.5852482 L58.7058156,22.6065248 Z M56.0462411,27.9256738 L50.7270922,27.9256738 L50.7270922,25.2660993 L56.0462411,25.2660993 L56.0462411,27.9256738 Z" id="Shape"></path>
                                        <path d="M72.0036879,22.6065248 L61.3653901,22.6065248 L61.3653901,30.5852482 L72.0036879,30.5852482 L72.0036879,22.6065248 Z M69.3441135,27.9256738 L64.0249645,27.9256738 L64.0249645,25.2660993 L69.3441135,25.2660993 L69.3441135,27.9256738 Z" id="Shape"></path>
                                        <path d="M8.17361702,46.542695 L18.8119149,46.542695 L18.8119149,38.5639716 L8.17361702,38.5639716 L8.17361702,46.542695 Z M10.8331915,41.2235461 L16.1523404,41.2235461 L16.1523404,43.8831206 L10.8331915,43.8831206 L10.8331915,41.2235461 Z" id="Shape"></path>
                                        <path d="M8.17361702,35.9043972 L18.8119149,35.9043972 L18.8119149,27.9256738 L8.17361702,27.9256738 L8.17361702,35.9043972 Z M10.8331915,30.5852482 L16.1523404,30.5852482 L16.1523404,33.2448227 L10.8331915,33.2448227 L10.8331915,30.5852482 Z" id="Shape"></path>
                                        <path d="M8.17361702,25.2660993 L18.8119149,25.2660993 L18.8119149,17.2873759 L8.17361702,17.2873759 L8.17361702,25.2660993 Z M10.8331915,19.9469504 L16.1523404,19.9469504 L16.1523404,22.6065248 L10.8331915,22.6065248 L10.8331915,19.9469504 Z" id="Shape"></path>
                                        <path d="M8.17361702,14.6278014 L18.8119149,14.6278014 L18.8119149,6.64907801 L8.17361702,6.64907801 L8.17361702,14.6278014 Z M10.8331915,9.30865248 L16.1523404,9.30865248 L16.1523404,11.968227 L10.8331915,11.968227 L10.8331915,9.30865248 Z" id="Shape"></path>
                                        <path d="M21.4714894,14.6278014 L32.1097872,14.6278014 L32.1097872,6.64907801 L21.4714894,6.64907801 L21.4714894,14.6278014 Z M24.1310638,9.30865248 L29.4502128,9.30865248 L29.4502128,11.968227 L24.1310638,11.968227 L24.1310638,9.30865248 Z" id="Shape"></path>
                                    </g>
                                </g>
                            </g>
                        </g>
                    </g>
                </g>
            </g>
        </g>
    </g>
</svg>