<?xml version="1.0" encoding="UTF-8"?>
<svg width="81px" height="92px" viewBox="0 0 81 92" version="1.1" xmlns="http://www.w3.org/2000/svg" xmlns:xlink="http://www.w3.org/1999/xlink">
    <!-- Generator: Sketch 51.1 (57501) - http://www.bohemiancoding.com/sketch -->
    <title>icon_2</title>
    <desc>Created with Sketch.</desc>
    <defs></defs>
    <g id="Page-1" stroke="none" stroke-width="1" fill="none" fill-rule="evenodd">
        <g id="Main-HD-SMM-(2)" transform="translate(-763.000000, -2185.000000)" fill="#2F80ED" fill-rule="nonzero">
            <g id="3rd-screen-copy-2" transform="translate(0.000000, 1954.000000)">
                <g id="content" transform="translate(341.000000, 216.000000)">
                    <g id="Group-2+" transform="translate(49.000000, 0.000000)">
                        <g id="1/2/3/4">
                            <g id="Group-2" transform="translate(302.666667, 0.000000)">
                                <g id="icon_2" transform="translate(66.000000, 15.000000)">
                                    <g id="hair-cut-(1)" transform="translate(5.000000, 0.000000)">
                                        <path d="M39.9998222,0 C22.3176889,0 7.93226667,14.3854222 7.93226667,32.0677333 L7.93226667,68.5123556 L10.6120889,68.5123556 L10.6120889,32.0677333 C10.6120889,15.8631111 23.7953778,2.67982222 40,2.67982222 C56.2046222,2.67982222 69.3879111,15.8631111 69.3879111,32.0677333 L69.3879111,68.5123556 L72.0677333,68.5123556 L72.0677333,32.0677333 C72.0675556,14.3854222 57.6821333,0 39.9998222,0 Z" id="Shape"></path>
                                        <path d="M22.5811556,23.5745778 L22.5811556,45.8238222 L22.5815111,45.8238222 C22.5815111,51.7470222 25.5541333,56.9880889 30.0848,60.1363556 L30.0848,66.5752889 L6.09102222,73.5512889 C2.49066667,74.6448 0.0716444444,77.9079111 0.0716444444,81.6705778 L0.0716444444,91.0222222 L2.75146667,91.0222222 L2.75146667,81.6704 C2.75146667,79.0958222 4.4064,76.8632889 6.85457778,76.1198222 L32.7648,68.5868444 L32.7648,61.6712889 C33.4305778,61.9756444 34.1146667,62.2357333 34.8120889,62.4531556 C34.8184889,62.4551111 34.8247111,62.4572444 34.8312889,62.4592 C34.9415111,62.4935111 35.0522667,62.5262222 35.1632,62.5582222 C35.2008889,62.5690667 35.2385778,62.5802667 35.2764444,62.5909333 C35.368,62.6167111 35.4595556,62.6412444 35.5516444,62.6654222 C35.6097778,62.6807111 35.6677333,62.696 35.7262222,62.7107556 C35.8040889,62.7304889 35.8821333,62.7495111 35.9603556,62.7681778 C36.0336,62.7857778 36.1068444,62.8026667 36.1804444,62.8190222 C36.2481778,62.8341333 36.3159111,62.8490667 36.3838222,62.8632889 C36.4679111,62.8810667 36.5525333,62.8981333 36.6369778,62.9146667 C36.6972444,62.9264 36.7573333,62.9383111 36.8176,62.9493333 C36.9102222,62.9664 37.0030222,62.9825778 37.096,62.9982222 C37.1504,63.0074667 37.2049778,63.0168889 37.2593778,63.0254222 C37.3582222,63.0410667 37.4572444,63.0554667 37.5566222,63.0695111 C37.6067556,63.0766222 37.6568889,63.0839111 37.7072,63.0906667 C37.8104889,63.1043556 37.9143111,63.1166222 38.0183111,63.1283556 C38.0657778,63.1336889 38.1132444,63.1395556 38.1607111,63.1445333 C38.2666667,63.1557333 38.3729778,63.1653333 38.4792889,63.1744 C38.5255111,63.1783111 38.5717333,63.1831111 38.6179556,63.1866667 C38.7258667,63.1950222 38.8343111,63.2017778 38.9427556,63.2085333 C38.9877333,63.2112 39.0325333,63.2147556 39.0776889,63.2170667 C39.1907556,63.2229333 39.3043556,63.2270222 39.4181333,63.2307556 C39.4583111,63.2321778 39.4984889,63.2343111 39.5386667,63.2353778 C39.6919111,63.2392889 39.8456889,63.2416 40.0001778,63.2416 C40.1544889,63.2416 40.3080889,63.2394667 40.4616889,63.2353778 C40.5018667,63.2343111 40.5420444,63.2321778 40.5822222,63.2307556 C40.6958222,63.2270222 40.8096,63.2231111 40.9226667,63.2170667 C40.9676444,63.2147556 41.0124444,63.2112 41.0576,63.2085333 C41.1660444,63.2021333 41.2744889,63.1953778 41.3824,63.1866667 C41.4286222,63.1829333 41.4750222,63.1783111 41.5210667,63.1744 C41.6275556,63.1651556 41.7338667,63.1555556 41.8396444,63.1445333 C41.8871111,63.1395556 41.9345778,63.1336889 41.9820444,63.1283556 C42.0860444,63.1166222 42.1896889,63.1043556 42.2931556,63.0906667 C42.3432889,63.0840889 42.3936,63.0766222 42.4437333,63.0695111 C42.5431111,63.0554667 42.6421333,63.0410667 42.7409778,63.0254222 C42.7955556,63.0167111 42.8499556,63.0072889 42.9043556,62.9982222 C42.9975111,62.9825778 43.0901333,62.9664 43.1827556,62.9493333 C43.2432,62.9381333 43.3031111,62.9264 43.3633778,62.9146667 C43.448,62.8981333 43.5324444,62.8810667 43.6165333,62.8632889 C43.6844444,62.8490667 43.7521778,62.8341333 43.8199111,62.8190222 C43.8935111,62.8024889 43.9667556,62.7854222 44.04,62.7681778 C44.1182222,62.7496889 44.1962667,62.7306667 44.2741333,62.7107556 C44.3324444,62.696 44.3905778,62.6807111 44.4487111,62.6654222 C44.5406222,62.6412444 44.6323556,62.6167111 44.7239111,62.5909333 C44.7617778,62.5802667 44.7994667,62.5690667 44.8371556,62.5582222 C44.9480889,62.5262222 45.0588444,62.4933333 45.1690667,62.4592 C45.1754667,62.4572444 45.1816889,62.4551111 45.1880889,62.4531556 C45.8855111,62.2357333 46.5696,61.9756444 47.2353778,61.6712889 L47.2353778,67.5809778 L49.9152,67.5809778 L49.9152,60.1363556 C54.4458667,56.9880889 57.4184889,51.7470222 57.4184889,45.8238222 L57.4184889,39.0576 L22.5811556,23.5745778 Z M54.7384889,45.8238222 C54.7384889,52.4135111 50.3911111,58.0062222 44.4138667,59.8864 C44.3857778,59.8951111 44.3575111,59.9036444 44.3296,59.9123556 C44.1310222,59.9736889 43.9304889,60.0305778 43.7285333,60.0835556 C43.7056,60.0894222 43.6830222,60.0961778 43.6599111,60.1020444 C43.4460444,60.1569778 43.2300444,60.2064 43.0124444,60.2517333 C42.9642667,60.2616889 42.9155556,60.2705778 42.8673778,60.2801778 C42.696,60.3141333 42.5237333,60.3448889 42.3504,60.3728 C42.2917333,60.3822222 42.2332444,60.3921778 42.1745778,60.4008889 C41.9614222,60.4325333 41.7470222,60.4606222 41.5310222,60.4828444 C41.4928,60.4867556 41.4545778,60.4892444 41.4163556,60.4928 C41.2307556,60.5105778 41.0440889,60.5248 40.8565333,60.5354667 C40.7950222,60.5390222 40.7335111,60.5424 40.6718222,60.5450667 C40.4488889,60.5550222 40.2252444,60.5619556 40,60.5619556 C39.7747556,60.5619556 39.5511111,60.5550222 39.3281778,60.5450667 C39.2664889,60.5422222 39.2051556,60.5390222 39.1434667,60.5354667 C38.9559111,60.5246222 38.7692444,60.5104 38.5836444,60.4928 C38.5454222,60.4890667 38.5070222,60.4867556 38.4689778,60.4828444 C38.2529778,60.4604444 38.0387556,60.4325333 37.8256,60.4008889 C37.7667556,60.3921778 37.7082667,60.3824 37.6496,60.3728 C37.4762667,60.3448889 37.304,60.3141333 37.1326222,60.2801778 C37.0842667,60.2707556 37.0357333,60.2616889 36.9875556,60.2517333 C36.7699556,60.2064 36.5541333,60.1568 36.3400889,60.1020444 C36.3171556,60.0961778 36.2945778,60.0896 36.2714667,60.0835556 C36.0693333,60.0307556 35.8689778,59.9736889 35.6702222,59.9123556 C35.6419556,59.9038222 35.6138667,59.8952889 35.5859556,59.8864 C29.6088889,58.0060444 25.2613333,52.4133333 25.2613333,45.8238222 L25.2613333,27.6981333 L54.7386667,40.7991111 L54.7386667,45.8238222 L54.7384889,45.8238222 Z" id="Shape"></path>
                                        <rect id="Rectangle-path" transform="translate(39.999243, 21.050453) rotate(-66.039256) translate(-39.999243, -21.050453) " x="38.6594557" y="3.45615775" width="2.6795743" height="35.18859"></rect>
                                        <rect id="Rectangle-path" transform="translate(40.001170, 26.917984) rotate(-66.039256) translate(-40.001170, -26.917984) " x="38.6613832" y="9.32368929" width="2.6795743" height="35.18859"></rect>
                                        <rect id="Rectangle-path" x="62.8672" y="34.5687111" width="2.67982222" height="51.0938667"></rect>
                                        <rect id="Rectangle-path" x="62.8672" y="88.3424" width="2.67982222" height="2.67982222"></rect>
                                        <rect id="Rectangle-path" x="13.5596444" y="43.3226667" width="2.67982222" height="22.1525333"></rect>
                                        <rect id="Rectangle-path" x="19.1872" y="56.1854222" width="2.67982222" height="6.61013333"></rect>
                                        <rect id="Rectangle-path" x="53.9345778" y="63.6887111" width="2.67982222" height="21.9740444"></rect>
                                        <rect id="Rectangle-path" x="53.9345778" y="88.3424" width="2.67982222" height="2.67982222"></rect>
                                        <path d="M73.8935111,73.5464889 L69.9406222,72.3969778 L69.1923556,74.9703111 L73.1299556,76.1148444 C75.5934222,76.8631111 77.2483556,79.0958222 77.2483556,81.6704 L77.2483556,91.0222222 L79.9281778,91.0222222 L79.9281778,81.6704 C79.9281778,77.9077333 77.5091556,74.6446222 73.8935111,73.5464889 Z" id="Shape"></path>
                                    </g>
                                </g>
                            </g>
                        </g>
                    </g>
                </g>
            </g>
        </g>
    </g>
</svg>