<?xml version="1.0" encoding="UTF-8"?>
<svg width="90px" height="76px" viewBox="0 0 90 76" version="1.1" xmlns="http://www.w3.org/2000/svg" xmlns:xlink="http://www.w3.org/1999/xlink">
    <!-- Generator: Sketch 51.1 (57501) - http://www.bohemiancoding.com/sketch -->
    <title>icon_1</title>
    <desc>Created with Sketch.</desc>
    <defs></defs>
    <g id="Page-1" stroke="none" stroke-width="1" fill="none" fill-rule="evenodd">
        <g id="Main-HD-SMM-(2)" transform="translate(-463.000000, -2195.000000)" fill="#2F80ED" fill-rule="nonzero">
            <g id="3rd-screen-copy-2" transform="translate(0.000000, 1954.000000)">
                <g id="content" transform="translate(341.000000, 216.000000)">
                    <g id="Group-2+" transform="translate(49.000000, 0.000000)">
                        <g id="1/2/3/4">
                            <g id="Group-1">
                                <g id="icon_1" transform="translate(73.000000, 15.000000)">
                                    <g id="online-shop-(1)" transform="translate(0.000000, 10.000000)">
                                        <path d="M84.4542773,0 L5.54572266,0 C2.48765625,0 0,2.49063769 0,5.55219318 L0,59.1616208 C0,62.2231763 2.48765625,64.713814 5.54572266,64.713814 L32.2338867,64.713814 L31.1544141,73.3601212 L26.6818359,73.3601212 C25.9535742,73.3601212 25.3634766,73.951102 25.3634766,74.6800606 C25.3634766,75.4090191 25.9535742,76 26.6818359,76 L63.3181641,76 C64.0464258,76 64.6365234,75.4090191 64.6365234,74.6800606 C64.6365234,73.951102 64.0464258,73.3601212 63.3181641,73.3601212 L58.8457617,73.3601212 L57.7661133,64.713814 L84.4542773,64.713814 C87.512168,64.713814 90,62.2231763 90,59.1616208 L90,5.55219318 C90,2.49063769 87.5123437,0 84.4542773,0 Z M33.8116992,73.3601212 L34.8913477,64.713814 L39.7434375,64.713814 L40.2194531,66.6198065 C40.7689453,68.8202335 42.7348828,70.356819 45.0001758,70.356819 C47.2654688,70.356819 49.2314063,68.8202335 49.7808984,66.6198065 L50.2569141,64.713814 L55.1090039,64.713814 L56.1883008,73.3601212 L33.8116992,73.3601212 Z M42.4611914,64.713814 L47.5386328,64.713814 L47.2225781,65.9795479 C46.967168,67.0025889 46.0532813,67.7169401 44.9998242,67.7169401 C43.9463672,67.7169401 43.0326563,67.0024129 42.7770703,65.9795479 L42.4611914,64.713814 Z M87.3632812,59.1616208 C87.3632812,60.7675471 86.0582812,62.0739351 84.4542773,62.0739351 L5.54572266,62.0739351 C3.94171875,62.0739351 2.63671875,60.7675471 2.63671875,59.1616208 L2.63671875,5.55219318 C2.63671875,3.94626689 3.94171875,2.63987884 5.54572266,2.63987884 L84.4542773,2.63987884 C86.0582812,2.63987884 87.3632812,3.94626689 87.3632812,5.55219318 L87.3632812,59.1616208 Z" id="Shape"></path>
                                        <path d="M74.686758,6 L7.31324198,6 C6.58780711,6 6,6.58607616 6,7.30937479 L6,57.6906252 C6,58.4139238 6.58780711,59 7.31324198,59 L10.1206031,59 C10.846038,59 11.4338451,58.4139238 11.4338451,57.6906252 C11.4340202,56.9675012 10.846038,56.3812504 10.1207782,56.3812504 L8.62665906,56.3812504 L8.62665906,8.61874959 L74.686758,8.61874959 C75.4121929,8.61874959 76,8.03249885 76,7.30937479 C76,6.58607616 75.4121929,6 74.686758,6 Z" id="Shape"></path>
                                        <path d="M82.6869298,6 L79.8795616,6 C79.1541249,6 78.5663163,6.58607616 78.5663163,7.30937479 C78.5663163,8.03249885 79.1541249,8.61874959 79.8795616,8.61874959 L81.3736845,8.61874959 L81.3736845,56.3812504 L15.3132453,56.3812504 C14.5878086,56.3812504 14,56.9675012 14,57.6906252 C14,58.4139238 14.5878086,59 15.3132453,59 L82.6867547,59 C83.4121914,59 84,58.4139238 84,57.6906252 L84,7.30937479 C84.0001751,6.58607616 83.4121914,6 82.6869298,6 Z" id="Shape"></path>
                                        <path d="M62.7218055,20.065733 C62.4864974,19.7666386 62.1316151,19.584717 61.7503741,19.5675316 L30.9658621,18.1758659 C30.9417727,18.1748243 30.9182069,18.1743036 30.893943,18.1746507 C30.7117014,17.5797601 30.3266201,17.0638525 29.8053812,16.7180626 L26.0353896,14.2187232 C25.4338527,13.8199885 24.6209227,13.9816002 24.2199563,14.5799626 C23.8189899,15.1783251 23.9815061,15.9865571 24.5830429,16.3852918 L28.35286,18.884284 C28.3706652,18.896088 28.3837573,18.9139677 28.3896924,18.9344513 L33.191688,35.6478068 C33.3414613,36.168922 33.5879413,36.637266 33.9044202,37.0417292 L32.1474648,40.5360826 C31.7245037,41.377123 31.7688422,42.3566877 32.2659916,43.1565874 C32.446313,43.4466551 32.6749878,43.6936728 32.9377019,43.8915646 C32.593817,44.4885384 32.3960395,45.1790768 32.3960395,45.9150956 C32.3960395,48.1675909 34.2388788,50 36.5038065,50 C38.7687341,50 40.6115734,48.1674173 40.6115734,45.9150956 C40.6115734,45.3927653 40.5113755,44.8935223 40.3308795,44.4340313 L52.2668298,44.4340313 C52.0863338,44.8935223 51.9861359,45.3927653 51.9861359,45.9150956 C51.9861359,48.1675909 53.8289753,50 56.0939029,50 C58.3588305,50 60.2016698,48.1674173 60.2016698,45.9150956 C60.2016698,45.2617053 60.045787,44.644248 59.7703299,44.0960529 C60.0346151,43.8578883 60.2016698,43.5148758 60.2016698,43.1321113 C60.2016698,42.4131042 59.6156689,41.8301912 58.8924631,41.8301912 L34.5694972,41.8301912 C34.5508192,41.8301912 34.5192236,41.8301912 34.4928649,41.7876618 C34.4665063,41.745306 34.4806457,41.7173581 34.4890246,41.70052 L36.1075532,38.4816528 C36.4369496,38.5658436 36.7801363,38.611324 37.1313529,38.611324 C37.2931708,38.611324 37.4565598,38.6017766 37.6209962,38.5826818 L56.0172706,36.4305211 C58.393219,36.152431 60.3048353,34.3984843 60.774055,32.0654435 L62.9745697,21.1234129 C63.0494563,20.7510638 62.9571136,20.3648275 62.7218055,20.065733 Z M56.0935537,44.4343785 C56.9148628,44.4343785 57.5829073,45.0988785 57.5829073,45.9154428 C57.5829073,46.7321806 56.9148628,47.396507 56.0935537,47.396507 C55.2722447,47.396507 54.6042002,46.7321806 54.6042002,45.9154428 C54.6042002,45.0987049 55.2722447,44.4343785 56.0935537,44.4343785 Z M36.5034573,44.4343785 C37.3247663,44.4343785 37.9928109,45.0987049 37.9928109,45.9154428 C37.9928109,46.7321806 37.3247663,47.396507 36.5034573,47.396507 C35.6821483,47.396507 35.0141038,46.7321806 35.0141038,45.9154428 C35.0141038,45.0987049 35.6821483,44.4343785 36.5034573,44.4343785 Z M33.2929334,26.5237773 L31.6522355,20.8135559 L36.8864439,21.0501582 L37.793986,26.5237773 L33.2929334,26.5237773 Z M37.3151655,35.9967213 C36.5851518,36.0821273 35.910474,35.6344404 35.7090307,34.9326187 L34.0411013,29.1276175 L38.2256751,29.1276175 L39.3255833,35.7615078 L37.3151655,35.9967213 Z M44.9893861,35.0989173 L41.9289845,35.4570321 L40.879699,29.1277911 L44.9893861,29.1277911 L44.9893861,35.0989173 Z M44.9893861,26.5237773 L40.4478353,26.5237773 L39.5603677,21.17115 L44.9893861,21.4166053 L44.9893861,26.5237773 Z M51.619558,34.3231465 L47.6077995,34.7925321 L47.6077995,29.1276175 L52.0924435,29.1276175 L51.619558,34.3231465 Z M52.3294972,26.5237773 L47.6077995,26.5237773 L47.6077995,21.5348196 L52.7624082,21.7677765 L52.3294972,26.5237773 Z M58.2062643,31.5550908 C57.9601334,32.7785485 56.9574556,33.6987456 55.7112654,33.8445607 L54.2768985,34.0124216 L54.7215051,29.1277911 L58.6943365,29.1277911 L58.2062643,31.5550908 Z M59.2181938,26.5237773 L54.9587334,26.5237773 L55.3808216,21.8861645 L60.1079306,22.0998529 L59.2181938,26.5237773 Z" id="Shape"></path>
                                    </g>
                                </g>
                            </g>
                        </g>
                    </g>
                </g>
            </g>
        </g>
    </g>
</svg>