<?xml version="1.0" encoding="UTF-8"?>
<svg width="91px" height="79px" viewBox="0 0 91 79" version="1.1" xmlns="http://www.w3.org/2000/svg" xmlns:xlink="http://www.w3.org/1999/xlink">
    <!-- Generator: Sketch 51.1 (57501) - http://www.bohemiancoding.com/sketch -->
    <title>icon_7</title>
    <desc>Created with Sketch.</desc>
    <defs></defs>
    <g id="Page-1" stroke="none" stroke-width="1" fill="none" fill-rule="evenodd">
        <g id="Main-HD-SMM-(2)" transform="translate(-1170.000000, -2402.000000)" fill="#2F80ED" fill-rule="nonzero">
            <g id="3rd-screen-copy-2" transform="translate(0.000000, 1954.000000)">
                <g id="content" transform="translate(341.000000, 216.000000)">
                    <g id="Group-2+" transform="translate(49.000000, 0.000000)">
                        <g id="5/6/7/8" transform="translate(155.000000, 217.000000)">
                            <g id="Group-3" transform="translate(595.333333, 0.000000)">
                                <g id="icon_7" transform="translate(30.000000, 15.000000)">
                                    <g id="graduation-hat">
                                        <path d="M55.4881935,74.937871 C51.9896129,75.5103871 48.45,75.7937419 44.9049677,75.7848387 C37.7038065,75.9418065 30.5465806,74.6245161 23.8732258,71.913871 L22.581871,74.7288387 C29.6547097,77.6452258 37.2565161,79.0594839 44.9049677,78.8816129 C48.6210968,78.8905161 52.3318065,78.5932258 55.9991613,77.9928387 L55.4881935,74.937871 Z" id="Shape"></path>
                                        <path d="M18.2417419,67.9515484 L15.8262581,69.890129 C16.8127742,71.0754194 17.9789032,72.0989032 19.2822581,72.9234194 L20.9854839,70.3345161 C19.9530968,69.6869032 19.0275484,68.8830968 18.2417419,67.9515484 Z" id="Shape"></path>
                                        <path d="M89.6471613,24.0052258 C89.4971613,23.7042581 89.2530968,23.4601935 88.952129,23.3101935 L88.952129,23.3024516 L45.5972903,1.62503226 C45.1616129,1.40729032 44.6487097,1.40729032 44.2130323,1.62503226 L0.858193548,23.3024516 C0.0929032258,23.6839355 -0.218322581,24.6135484 0.16316129,25.3790323 C0.31316129,25.68 0.557225806,25.9240645 0.858193548,26.0740645 L17.0341935,34.1612903 L17.0341935,58.7527742 C17.0341935,66.5674839 29.2772903,72.6882581 44.9051613,72.6882581 C60.5330323,72.6882581 72.776129,66.5674839 72.776129,58.7527742 L72.776129,34.1610968 L80.5180645,30.290129 L80.5180645,51.2955484 C78.1072258,52.1398065 76.8375484,54.7786452 77.6818065,57.1894839 C77.9115484,57.8454194 78.2860645,58.4409677 78.7776774,58.9321935 L75.9905806,65.9200645 C75.6733548,66.7141935 76.059871,67.6151613 76.854,67.9323871 C77.0345806,68.0045806 77.2269677,68.0419355 77.4212903,68.0429032 L86.7116129,68.0429032 C87.5667097,68.0432903 88.2601935,67.3501935 88.2605806,66.4950968 C88.2605806,66.2980645 88.2232258,66.1029677 88.1500645,65.9200645 L85.3629677,58.9321935 C87.1687742,57.1256129 87.168,54.1972258 85.3614194,52.3914194 C84.8690323,51.8994194 84.272129,51.5247097 83.6148387,51.2955484 L83.6148387,28.7417419 L88.952129,26.0816129 C89.7174194,25.700129 90.0286452,24.7705161 89.6471613,24.0052258 Z M69.6791613,58.7525806 C69.6791613,63.9876774 59.7245806,69.5912903 44.9049677,69.5912903 C30.0853548,69.5912903 20.1307742,63.9876774 20.1307742,58.7525806 L20.1307742,57.4736129 C24.7186452,61.9469032 33.9749032,64.946129 44.9049677,64.946129 C55.8350323,64.946129 65.0912903,61.9469032 69.6791613,57.4736129 L69.6791613,58.7525806 Z M69.6791613,51.0106452 C69.6791613,56.2457419 59.7245806,61.8493548 44.9049677,61.8493548 C30.0853548,61.8493548 20.1307742,56.2457419 20.1307742,51.0106452 L20.1307742,35.7094839 L44.2128387,47.7590323 C44.6485161,47.9767742 45.1614194,47.9767742 45.5970968,47.7590323 L69.6791613,35.7094839 L69.6791613,51.0106452 Z M82.0662581,54.1074194 C82.9213548,54.1074194 83.6146452,54.8007097 83.6146452,55.6558065 C83.6146452,56.5109032 82.9213548,57.2041935 82.0662581,57.2041935 C81.2111613,57.2041935 80.517871,56.5109032 80.517871,55.6558065 C80.517871,54.8007097 81.2111613,54.1074194 82.0662581,54.1074194 Z M84.4244516,64.946129 L79.7080645,64.946129 L81.5862581,60.2529677 C81.7410968,60.2684516 81.8959355,60.3009677 82.0662581,60.3009677 C82.2365806,60.3009677 82.3867742,60.2684516 82.5462581,60.2529677 L84.4244516,64.946129 Z M81.7751613,26.1992903 L52.2567097,23.2480645 C51.2874194,21.3543871 48.4662581,20.0429032 44.9049677,20.0429032 C40.4905161,20.0429032 37.1630323,22.0403226 37.1630323,24.6880645 C37.1630323,27.3358065 40.4905161,29.3332258 44.9049677,29.3332258 C48.3284516,29.3332258 51.0768387,28.1239355 52.1483226,26.3494839 L76.5865161,28.7928387 L44.9049677,44.6343871 L5.01232258,24.6880645 L44.9049677,4.74174194 L84.7976129,24.6880645 L81.7751613,26.1992903 Z M49.550129,24.6880645 C49.550129,25.0736129 47.9026452,26.2364516 44.9049677,26.2364516 C41.9072903,26.2364516 40.2598065,25.0736129 40.2598065,24.6880645 C40.2598065,24.3025161 41.9072903,23.1396774 44.9049677,23.1396774 C47.9026452,23.1396774 49.550129,24.3025161 49.550129,24.6880645 Z" id="Shape"></path>
                                        <rect id="Rectangle-path" transform="translate(82.064828, 15.391253) rotate(-63.434949) translate(-82.064828, -15.391253) " x="80.5164878" y="13.6602091" width="3.09668005" height="3.4620883"></rect>
                                        <rect id="Rectangle-path" transform="translate(65.807349, 7.267982) rotate(-63.434949) translate(-65.807349, -7.267982) " x="64.259009" y="-5.71562365" width="3.09668005" height="25.9672106"></rect>
                                    </g>
                                </g>
                            </g>
                        </g>
                    </g>
                </g>
            </g>
        </g>
    </g>
</svg>