<?xml version="1.0" encoding="UTF-8"?>
<svg width="90px" height="65px" viewBox="0 0 90 65" version="1.1" xmlns="http://www.w3.org/2000/svg" xmlns:xlink="http://www.w3.org/1999/xlink">
    <!-- Generator: Sketch 51.1 (57501) - http://www.bohemiancoding.com/sketch -->
    <title>icon_3</title>
    <desc>Created with Sketch.</desc>
    <defs></defs>
    <g id="Page-1" stroke="none" stroke-width="1" fill="none" fill-rule="evenodd">
        <g id="Main-HD-SMM-(2)" transform="translate(-813.000000, -3320.000000)" fill="#2F80ED" fill-rule="nonzero">
            <g id="4th-screen" transform="translate(0.000000, 2634.000000)">
                <g id="content-3.2++" transform="translate(320.000000, 196.000000)">
                    <g id="card-#5" transform="translate(430.000000, 430.000000)">
                        <g id="icon_3" transform="translate(59.000000, 59.000000)">
                            <g id="marketing" transform="translate(4.000000, 1.000000)">
                                <path d="M88.794375,18.02925 L82.5,16.770375 L82.5,15 C82.5,14.171625 81.829125,13.5 81,13.5 L51.382125,13.5 L36,5.10975 L36,4.5 C36,2.018625 33.981375,0 31.5,0 C29.018625,0 27,2.018625 27,4.5 L27,19.7295 L19.2538125,21.0204375 C18.53025,21.140625 18,21.766875 18,22.5 L18,31.5 C18,32.233125 18.53025,32.859375 19.254,32.9795625 L27,34.2705 L27,49.5 C27,51.981375 29.018625,54 31.5,54 C33.981375,54 36,51.981375 36,49.5 L36,48.89025 L51.382125,40.5 L57.7254375,40.5 L49.6216875,59.409 C49.456125,59.7950625 49.460625,60.2323125 49.632,60.614625 C49.803375,60.9969375 50.1285,61.2905625 50.525625,61.4233125 L59.525625,64.4233125 C59.682375,64.47525 59.8434375,64.5001875 60.0001875,64.5001875 C60.6095625,64.5001875 61.179375,64.1274375 61.4049375,63.526875 L70.0396875,40.5 L81,40.5 C81.829125,40.5 82.5,39.828375 82.5,39 L82.5,37.229625 L88.794375,35.97075 C89.4945,35.830875 90,35.2149375 90,34.5 L90,19.5 C90,18.78525 89.4946875,18.169125 88.794375,18.02925 Z M27,31.2294375 L21,30.2293125 L21,23.770875 L27,22.77075 L27,31.2294375 Z M33,6 L33,48 L33,49.5 C33,50.326875 32.327625,51 31.5,51 C30.672375,51 30,50.326875 30,49.5 L30,4.5 C30,3.673125 30.672375,3 31.5,3 C32.327625,3 33,3.673125 33,4.5 L33,6 Z M49.5,38.109375 L36,45.4730625 L36,8.5269375 L49.5,15.890625 L49.5,38.109375 Z M59.1035625,61.1199375 L53.0214375,59.0925 L60.988875,40.5 L66.8353125,40.5 L59.1035625,61.1199375 Z M79.5,37.5 L52.5,37.5 L52.5,16.5 L79.5,16.5 L79.5,37.5 Z M87,33.2701875 L82.5,34.170375 L82.5,19.829625 L87,20.7298125 L87,33.2701875 Z" id="Shape"></path>
                                <rect id="Rectangle-path" x="0" y="25.5" width="15" height="3"></rect>
                                <rect id="Rectangle-path" transform="translate(11.248804, 8.248799) rotate(-45.000000) translate(-11.248804, -8.248799) " x="9.74881849" y="0.824619868" width="2.99997123" height="14.8483576"></rect>
                                <rect id="Rectangle-path" transform="translate(11.246517, 44.250703) rotate(-45.000000) translate(-11.246517, -44.250703) " x="3.82233781" y="42.7507173" width="14.8483576" height="2.99997123"></rect>
                            </g>
                        </g>
                    </g>
                </g>
            </g>
        </g>
    </g>
</svg>