<?xml version="1.0" encoding="UTF-8"?>
<svg width="90px" height="90px" viewBox="0 0 90 90" version="1.1" xmlns="http://www.w3.org/2000/svg" xmlns:xlink="http://www.w3.org/1999/xlink">
    <!-- Generator: Sketch 51.1 (57501) - http://www.bohemiancoding.com/sketch -->
    <title>icon_2</title>
    <desc>Created with Sketch.</desc>
    <defs></defs>
    <g id="Page-1" stroke="none" stroke-width="1" fill="none" fill-rule="evenodd">
        <g id="Main-HD-SMM-(2)" transform="translate(-810.000000, -2890.000000)" fill="#2F80ED" fill-rule="nonzero">
            <g id="4th-screen" transform="translate(0.000000, 2634.000000)">
                <g id="content-3.2++" transform="translate(320.000000, 196.000000)">
                    <g id="card-#2" transform="translate(430.000000, 0.000000)">
                        <g id="icon_2" transform="translate(60.000000, 60.000000)">
                            <g id="social-media">
                                <rect id="Rectangle-path" x="30" y="7.5" width="30" height="3"></rect>
                                <path d="M74.25,56.25 C74.25,53.355375 71.8944375,51 69,51 L66,51 L66,30 L63,30 L63,51 L59.25,51 C56.355375,51 54,53.3555625 54,56.25 C54,57.719625 54.610875,59.046 55.587375,60 C54.610875,60.954 54,62.280375 54,63.75 C54,64.7611875 54.3009375,65.698125 54.7985625,66.50025 C53.0041875,67.3359375 51.75,69.144 51.75,71.25 C51.75,72.0583125 51.9489375,72.8154375 52.2766875,73.5 L40.5,73.5 C40.5,68.9135625 38.201625,64.8545625 34.6963125,62.4140625 C38.0859375,61.122 40.5,57.8379375 40.5,54 C40.5,53.171625 39.829125,52.5 39,52.5 L27,52.5 L27,37.5 L24,37.5 L24,52.5 C21.518625,52.5 19.5,54.518625 19.5,57 L19.5,90 L22.5,90 L22.5,57 C22.5,56.173125 23.172375,55.5 24,55.5 L37.3095,55.5 C36.6429375,58.0846875 34.290375,60 31.5,60 L27,60 C26.170875,60 25.5,60.671625 25.5,61.5 C25.5,62.328375 26.170875,63 27,63 C32.7890625,63 37.5,67.7101875 37.5,73.5 L37.5,75 C37.5,75.828375 38.170875,76.5 39,76.5 L47.7766875,76.5 C47.4489375,77.1845625 47.25,77.9416875 47.25,78.75 C47.25,81.644625 49.6055625,84 52.5,84 L52.5,90 L55.5,90 L55.5,84 L61.5,84 L62.25,84 C65.144625,84 67.5,81.6444375 67.5,78.75 C67.5,77.9330625 67.2961875,77.1688125 66.9616875,76.478625 C69.756375,76.364625 72,74.0720625 72,71.25 C72,70.2388125 71.6990625,69.301875 71.2014375,68.49975 C72.9958125,67.6640625 74.25,65.856 74.25,63.75 C74.25,62.280375 73.639125,60.954 72.662625,60 C73.639125,59.046 74.25,57.719625 74.25,56.25 Z M62.25,81 L61.5,81 L54,81 L52.5,81 C51.2593125,81 50.25,79.9906875 50.25,78.75 C50.25,77.5093125 51.2593125,76.5 52.5,76.5 L57,76.5 L62.25,76.5 C63.4906875,76.5 64.5,77.5093125 64.5,78.75 C64.5,79.9906875 63.4906875,81 62.25,81 Z M66.75,73.5 L62.25,73.5 L57,73.5 C55.7593125,73.5 54.75,72.4906875 54.75,71.25 C54.75,70.0093125 55.7593125,69 57,69 L59.25,69 L66.75,69 C67.9906875,69 69,70.0093125 69,71.25 C69,72.4906875 67.9906875,73.5 66.75,73.5 Z M69,66 L66.75,66 L59.25,66 C58.0093125,66 57,64.9906875 57,63.75 C57,62.5093125 58.0093125,61.5 59.25,61.5 L69,61.5 C70.2406875,61.5 71.25,62.5093125 71.25,63.75 C71.25,64.9906875 70.2406875,66 69,66 Z M69,58.5 L59.25,58.5 C58.0093125,58.5 57,57.4906875 57,56.25 C57,55.0093125 58.0093125,54 59.25,54 L69,54 C70.2406875,54 71.25,55.0093125 71.25,56.25 C71.25,57.4906875 70.2406875,58.5 69,58.5 Z" id="Shape"></path>
                                <path d="M22.4956875,19.09275 C22.4649375,18.6620625 22.251,18.265125 21.90675,18.0043125 L20.34525,16.820625 C19.97175,14.9296875 18.312,13.5 16.327125,13.5 C14.0874375,13.5 12.260625,15.3208125 12.231375,17.5700625 C11.0330625,17.360625 9.887625,16.9006875 8.8621875,16.2099375 L8.33925,15.856875 C7.8808125,15.547125 7.2860625,15.513375 6.795375,15.7755 C6.3061875,16.0355625 6,16.545375 6,17.0998125 L6,18.330375 C6,20.1380625 6.544875,21.862125 7.5556875,23.3101875 L6.4336875,24.4455 C6.0075,24.8754375 5.8828125,25.5193125 6.115875,26.0780625 C6.3485625,26.6360625 6.8949375,27 7.5,27 L14.768625,27 C17.6675625,27 20.064,24.7903125 20.3863125,21.954375 L22.0665,20.2545 C22.3696875,19.9475625 22.5264375,19.5241875 22.4956875,19.09275 Z M17.856375,20.2456875 C17.578125,20.5261875 17.4226875,20.9056875 17.4226875,21.300375 C17.4226875,22.78875 16.2316875,24 14.7684375,24 L10.952625,24 C11.19,23.453625 11.0874375,22.794375 10.643625,22.3455 C9.9435,21.6365625 9.4425,20.7444375 9.189,19.78275 C10.6201875,20.3863125 12.15825,20.6998125 13.7315625,20.6998125 C14.5606875,20.6998125 15.2315625,20.0281875 15.2315625,19.1998125 L15.2315625,17.625 C15.2315625,17.0045625 15.72375,16.5 16.3273125,16.5 C16.930875,16.5 17.4230625,17.0045625 17.4230625,17.625 C17.4230625,18.0945 17.6428125,18.5368125 18.0163125,18.8203125 L18.73125,19.361625 L17.856375,20.2456875 Z" id="Shape"></path>
                                <path d="M49.5,25.5 L49.5,22.5 L45,22.5 C44.170875,22.5 43.5,23.171625 43.5,24 L43.5,28.5 L40.5,28.5 L40.5,31.5 L43.5,31.5 L43.5,37.5 L46.5,37.5 L46.5,31.5 L49.5,31.5 L49.5,28.5 L46.5,28.5 L46.5,25.5 L49.5,25.5 Z" id="Shape"></path>
                                <path d="M54,16.5 L36,16.5 C33.518625,16.5 31.5,18.518625 31.5,21 L31.5,39 C31.5,41.481375 33.518625,43.5 36,43.5 L54,43.5 C56.481375,43.5 58.5,41.481375 58.5,39 L58.5,21 C58.5,18.518625 56.481375,16.5 54,16.5 Z M55.5,39 C55.5,39.826875 54.827625,40.5 54,40.5 L36,40.5 C35.172375,40.5 34.5,39.826875 34.5,39 L34.5,21 C34.5,20.173125 35.172375,19.5 36,19.5 L54,19.5 C54.827625,19.5 55.5,20.173125 55.5,21 L55.5,39 Z" id="Shape"></path>
                                <path d="M22.5,7.5 L4.5,7.5 C2.018625,7.5 0,9.518625 0,12 L0,30 C0,32.481375 2.018625,34.5 4.5,34.5 L22.5,34.5 C24.981375,34.5 27,32.481375 27,30 L27,12 C27,9.518625 24.981375,7.5 22.5,7.5 Z M24,30 C24,30.826875 23.327625,31.5 22.5,31.5 L4.5,31.5 C3.672375,31.5 3,30.826875 3,30 L3,12 C3,11.173125 3.672375,10.5 4.5,10.5 L22.5,10.5 C23.327625,10.5 24,11.173125 24,12 L24,30 Z" id="Shape"></path>
                                <path d="M85.5,0 L67.5,0 C65.018625,0 63,2.018625 63,4.5 L63,22.5 C63,24.981375 65.018625,27 67.5,27 L85.5,27 C87.981375,27 90,24.981375 90,22.5 L90,4.5 C90,2.018625 87.981375,0 85.5,0 Z M87,22.5 C87,23.326875 86.327625,24 85.5,24 L67.5,24 C66.672375,24 66,23.326875 66,22.5 L66,15 L69.1516875,15 C69.848625,18.418875 72.8784375,21 76.5,21 C80.1215625,21 83.151375,18.418875 83.8483125,15 L87,15 L87,22.5 Z M72,13.5 C72,11.018625 74.018625,9 76.5,9 C78.981375,9 81,11.018625 81,13.5 C81,15.981375 78.981375,18 76.5,18 C74.018625,18 72,15.981375 72,13.5 Z M87,12 L83.8483125,12 C83.151375,8.581125 80.1215625,6 76.5,6 C72.8784375,6 69.848625,8.581125 69.1516875,12 L66,12 L66,4.5 C66,3.673125 66.672375,3 67.5,3 L85.5,3 C86.327625,3 87,3.673125 87,4.5 L87,12 Z" id="Shape"></path>
                                <rect id="Rectangle-path" x="43.5" y="61.5" width="3" height="3"></rect>
                            </g>
                        </g>
                    </g>
                </g>
            </g>
        </g>
    </g>
</svg>