<?xml version="1.0" encoding="UTF-8"?>
<svg width="90px" height="91px" viewBox="0 0 90 91" version="1.1" xmlns="http://www.w3.org/2000/svg" xmlns:xlink="http://www.w3.org/1999/xlink">
    <!-- Generator: Sketch 51.1 (57501) - http://www.bohemiancoding.com/sketch -->
    <title>icon_1</title>
    <desc>Created with Sketch.</desc>
    <defs></defs>
    <g id="Page-1" stroke="none" stroke-width="1" fill="none" fill-rule="evenodd">
        <g id="Main-HD-SMM-(2)" transform="translate(-380.000000, -2890.000000)" fill="#2F80ED" fill-rule="nonzero">
            <g id="4th-screen" transform="translate(0.000000, 2634.000000)">
                <g id="content-3.2++" transform="translate(320.000000, 196.000000)">
                    <g id="card-#1">
                        <g id="card-#1-(idle)">
                            <g id="icon_1" transform="translate(60.000000, 60.000000)">
                                <g id="branding">
                                    <path d="M73.9005668,44.367085 C72.3035223,41.9717004 71.2304453,38.7663158 71.2304453,36.3900607 C71.2304453,33.6949798 69.3794332,31.4247571 66.8579757,30.7821862 L66.8579757,27.685749 C66.8579757,26.8808502 66.2053846,26.2282591 65.4004858,26.2282591 L62.3388462,26.2282591 C61.6620243,22.9062753 58.717166,20.3982996 55.1980567,20.3982996 C50.7423279,20.3982996 47.4159717,19.0646964 46.2993522,16.8314575 C45.8054453,15.8436437 44.1856275,15.8436437 43.6917206,16.8314575 C42.5751012,19.0646964 39.2487449,20.3982996 34.7930162,20.3982996 C31.2739069,20.3982996 28.3290486,22.9062753 27.6522267,26.2282591 L24.590587,26.2282591 C23.7856883,26.2282591 23.1330972,26.8808502 23.1330972,27.685749 L23.1330972,30.7758097 C20.6238462,31.4098178 18.7606275,33.6865992 18.7606275,36.3900607 C18.7606275,38.7663158 17.6873684,41.9717004 16.0905061,44.367085 C15.7638462,44.8568016 15.7638462,45.4944534 16.0905061,45.9839879 C17.6875506,48.3793725 18.7606275,51.5847571 18.7606275,53.9610121 C18.7606275,56.6560931 20.6116397,58.9263158 23.1330972,59.5688866 L23.1330972,62.6653239 C23.1330972,63.4702227 23.7856883,64.1228138 24.590587,64.1228138 L27.6522267,64.1228138 C28.3290486,67.4447976 31.2739069,69.9527733 34.7930162,69.9527733 C39.849413,69.9527733 42.5373887,70.1028947 43.6126518,73.3288664 C43.8112348,73.9238866 44.3678138,74.3252429 44.9954453,74.3252429 C45.6230769,74.3252429 46.1796559,73.9238866 46.3782389,73.3288664 C47.453502,70.1028947 50.1414777,69.9527733 55.1978745,69.9527733 C58.7169838,69.9527733 61.6618421,67.4447976 62.338664,64.1228138 L65.4003036,64.1228138 C66.2052024,64.1228138 66.8577935,63.4702227 66.8577935,62.6653239 L66.8577935,59.5752632 C69.3670445,58.9412551 71.2302632,56.6644737 71.2302632,53.9610121 C71.2302632,51.5847571 72.3035223,48.3793725 73.9003846,45.9839879 C74.2272267,45.4942713 74.2272267,44.8566194 73.9005668,44.367085 Z M68.3154656,53.9610121 C68.3154656,55.5458502 67.0259514,56.8353644 65.4004858,56.8353644 C64.595587,56.8353644 63.942996,57.4879555 63.942996,58.2928543 L63.942996,61.207834 L61.0280162,61.207834 C60.2231174,61.207834 59.5705263,61.8604251 59.5705263,62.6653239 C59.5705263,65.0763765 57.6091093,67.0377935 55.1980567,67.0377935 C51.3194939,67.0377935 47.3348988,67.0377935 44.9956275,69.8425506 C42.6563563,67.0377935 38.6717611,67.0377935 34.7931984,67.0377935 C32.3821457,67.0377935 30.4207287,65.0763765 30.4207287,62.6653239 C30.4207287,61.8604251 29.7681377,61.207834 28.9632389,61.207834 L26.0482591,61.207834 L26.0482591,58.2928543 C26.0482591,57.4879555 25.3550405,56.8353644 24.5501417,56.8353644 C22.9653036,56.8353644 21.6757895,55.5458502 21.6757895,53.9610121 C21.6757895,51.2808704 20.6517206,47.9260931 19.0240688,45.1754453 C20.6517206,42.4247976 21.6757895,39.0700202 21.6757895,36.3898785 C21.6757895,34.8050405 22.9653036,33.5155263 24.5907692,33.5155263 C25.395668,33.5155263 26.0482591,32.8629352 26.0482591,32.0580364 L26.0482591,29.1430567 L28.9632389,29.1430567 C29.7681377,29.1430567 30.4207287,28.4904656 30.4207287,27.6855668 C30.4207287,25.2745142 32.3821457,23.3130972 34.7931984,23.3130972 C39.3130567,23.3130972 42.8955668,22.1124899 44.9956275,19.9568623 C47.0956883,22.1124899 50.6781984,23.3130972 55.1980567,23.3130972 C57.6091093,23.3130972 59.5705263,25.2745142 59.5705263,27.6855668 C59.5705263,28.4904656 60.2231174,29.1430567 61.0280162,29.1430567 L63.942996,29.1430567 L63.942996,32.0580364 C63.942996,32.8629352 64.6362146,33.5155263 65.4411134,33.5155263 C67.0259514,33.5155263 68.3154656,34.8050405 68.3154656,36.3898785 C68.3154656,39.0700202 69.3395344,42.4247976 70.9671862,45.1754453 C69.3395344,47.9260931 68.3154656,51.2808704 68.3154656,53.9610121 Z" id="Shape"></path>
                                    <rect id="Rectangle-path" x="43.5381377" y="8.73819838" width="2.91497976" height="4.37246964"></rect>
                                    <rect id="Rectangle-path" transform="translate(84.345768, 5.819593) rotate(-45.000000) translate(-84.345768, -5.819593) " x="80.223297" y="4.36211743" width="8.24494117" height="2.9149518"></rect>
                                    <rect id="Rectangle-path" x="82.8903644" y="43.7179555" width="5.82995951" height="2.91497976"></rect>
                                    <rect id="Rectangle-path" x="43.5381377" y="1.45074899" width="2.91497976" height="4.37246964"></rect>
                                    <rect id="Rectangle-path" x="77.0604049" y="43.7179555" width="2.91497976" height="2.91497976"></rect>
                                    <rect id="Rectangle-path" transform="translate(75.966541, 32.346621) rotate(-22.507915) translate(-75.966541, -32.346621) " x="74.5090927" y="30.8891731" width="2.91489563" height="2.91489563"></rect>
                                    <rect id="Rectangle-path" transform="translate(73.851833, 16.317397) rotate(-45.000000) translate(-73.851833, -16.317397) " x="70.9368807" y="14.8599208" width="5.8299036" height="2.9149518"></rect>
                                    <rect id="Rectangle-path" transform="translate(68.698041, 21.476622) rotate(-45.000000) translate(-68.698041, -21.476622) " x="67.2405655" y="20.0191465" width="2.9149518" height="2.9149518"></rect>
                                    <rect id="Rectangle-path" transform="translate(57.824234, 14.207485) rotate(-67.492085) translate(-57.824234, -14.207485) " x="56.3667859" y="12.7500369" width="2.91489563" height="2.91489563"></rect>
                                    <rect id="Rectangle-path" transform="translate(84.716760, 28.720564) rotate(-22.507915) translate(-84.716760, -28.720564) " x="79.6156922" y="27.2631163" width="10.2021347" height="2.91489563"></rect>
                                    <rect id="Rectangle-path" transform="translate(61.448442, 5.455061) rotate(-67.492085) translate(-61.448442, -5.455061) " x="56.3473744" y="3.99761284" width="10.2021347" height="2.91489563"></rect>
                                    <rect id="Rectangle-path" transform="translate(5.643858, 5.823839) rotate(-45.000000) translate(-5.643858, -5.823839) " x="4.1863821" y="1.70136887" width="2.9149518" height="8.24494117"></rect>
                                    <rect id="Rectangle-path" x="1.27093117" y="43.7179555" width="5.82995951" height="2.91497976"></rect>
                                    <rect id="Rectangle-path" x="10.0158704" y="43.7179555" width="2.91497976" height="2.91497976"></rect>
                                    <rect id="Rectangle-path" transform="translate(14.028155, 32.343653) rotate(-67.499572) translate(-14.028155, -32.343653) " x="12.5706286" y="30.8861265" width="2.91505336" height="2.91505336"></rect>
                                    <rect id="Rectangle-path" transform="translate(16.144164, 16.318565) rotate(-45.000000) translate(-16.144164, -16.318565) " x="14.6866878" y="13.4036127" width="2.9149518" height="5.8299036"></rect>
                                    <rect id="Rectangle-path" transform="translate(21.292023, 21.471336) rotate(-45.000000) translate(-21.292023, -21.471336) " x="19.8345469" y="20.0138604" width="2.9149518" height="2.9149518"></rect>
                                    <rect id="Rectangle-path" transform="translate(32.169282, 14.203690) rotate(-22.507915) translate(-32.169282, -14.203690) " x="30.7118346" y="12.7462425" width="2.91489563" height="2.91489563"></rect>
                                    <rect id="Rectangle-path" transform="translate(5.273546, 28.722332) rotate(-67.499572) translate(-5.273546, -28.722332) " x="3.81601969" y="23.6209887" width="2.91505336" height="10.2026868"></rect>
                                    <rect id="Rectangle-path" transform="translate(28.542358, 5.452648) rotate(-22.500428) translate(-28.542358, -5.452648) " x="27.0848315" y="0.351304726" width="2.91505336" height="10.2026868"></rect>
                                    <rect id="Rectangle-path" x="43.5381377" y="77.2402227" width="2.91497976" height="4.37246964"></rect>
                                    <rect id="Rectangle-path" transform="translate(84.345093, 84.526235) rotate(-45.000000) translate(-84.345093, -84.526235) " x="82.8876175" y="80.4037649" width="2.9149518" height="8.24494117"></rect>
                                    <rect id="Rectangle-path" x="43.5381377" y="84.5276721" width="2.91497976" height="4.37246964"></rect>
                                    <rect id="Rectangle-path" transform="translate(75.966713, 57.997231) rotate(-67.499572) translate(-75.966713, -57.997231) " x="74.509186" y="56.539704" width="2.91505336" height="2.91505336"></rect>
                                    <rect id="Rectangle-path" transform="translate(73.851603, 74.032069) rotate(-45.000000) translate(-73.851603, -74.032069) " x="72.3941266" y="71.1171171" width="2.9149518" height="5.8299036"></rect>
                                    <rect id="Rectangle-path" transform="translate(68.692329, 68.873985) rotate(-45.000000) translate(-68.692329, -68.873985) " x="67.2348529" y="67.416509" width="2.9149518" height="2.9149518"></rect>
                                    <rect id="Rectangle-path" transform="translate(57.823383, 76.146264) rotate(-22.507915) translate(-57.823383, -76.146264) " x="56.3659349" y="74.6888165" width="2.91489563" height="2.91489563"></rect>
                                    <rect id="Rectangle-path" transform="translate(84.717653, 61.638443) rotate(-67.499572) translate(-84.717653, -61.638443) " x="83.2601267" y="56.5370997" width="2.91505336" height="10.2026868"></rect>
                                    <rect id="Rectangle-path" transform="translate(61.453025, 84.904769) rotate(-22.500428) translate(-61.453025, -84.904769) " x="59.995498" y="79.8034254" width="2.91505336" height="10.2026868"></rect>
                                    <rect id="Rectangle-path" transform="translate(5.650552, 84.526648) rotate(-45.000000) translate(-5.650552, -84.526648) " x="1.5280812" y="83.0691725" width="8.24494117" height="2.9149518"></rect>
                                    <rect id="Rectangle-path" transform="translate(14.025299, 58.003694) rotate(-22.507915) translate(-14.025299, -58.003694) " x="12.5678515" y="56.5462464" width="2.91489563" height="2.91489563"></rect>
                                    <rect id="Rectangle-path" transform="translate(16.144070, 74.032262) rotate(-45.000000) translate(-16.144070, -74.032262) " x="13.2291185" y="72.5747862" width="5.8299036" height="2.9149518"></rect>
                                    <rect id="Rectangle-path" transform="translate(21.287848, 68.871109) rotate(-45.000000) translate(-21.287848, -68.871109) " x="19.8303724" y="67.4136329" width="2.9149518" height="2.9149518"></rect>
                                    <rect id="Rectangle-path" transform="translate(32.167576, 76.150047) rotate(-67.492085) translate(-32.167576, -76.150047) " x="30.7101285" y="74.692599" width="2.91489563" height="2.91489563"></rect>
                                    <rect id="Rectangle-path" transform="translate(5.273050, 61.628648) rotate(-22.507915) translate(-5.273050, -61.628648) " x="0.17198313" y="60.1712" width="10.2021347" height="2.91489563"></rect>
                                    <rect id="Rectangle-path" transform="translate(28.534030, 84.895261) rotate(-67.492085) translate(-28.534030, -84.895261) " x="23.4329625" y="83.4378132" width="10.2021347" height="2.91489563"></rect>
                                    <path d="M54.3049798,45.1754453 L59.1677126,38.5334818 C59.508583,38.0672672 59.5421053,37.4440081 59.2538866,36.9435425 C58.9649393,36.4432591 58.4076316,36.1650607 57.8341093,36.2233603 L49.6499393,37.1137045 L46.3292308,29.5821255 C46.0965789,29.0534211 45.5735223,28.7125506 44.9956275,28.7125506 C44.4177328,28.7125506 43.8946761,29.0534211 43.6620243,29.5821255 L40.3413158,37.1137045 L32.1571457,36.2233603 C31.59,36.1650607 31.0270445,36.4432591 30.7373684,36.9435425 C30.4491498,37.4438259 30.4826721,38.0672672 30.8235425,38.5334818 L35.6862753,45.1754453 L30.8235425,51.8174089 C30.4826721,52.2836235 30.4491498,52.9068826 30.7373684,53.4073482 C31.0270445,53.9076316 31.59,54.1923887 32.1571457,54.1275304 L40.3413158,53.2371862 L43.6620243,60.7687652 C43.8946761,61.2974696 44.4177328,61.6383401 44.9956275,61.6383401 C45.5735223,61.6383401 46.0965789,61.2974696 46.3292308,60.7687652 L49.6499393,53.2371862 L57.8341093,54.1275304 C58.4076316,54.1922065 58.9649393,53.9076316 59.2538866,53.4073482 C59.5421053,52.9070648 59.508583,52.2836235 59.1677126,51.8174089 L54.3049798,45.1754453 Z M48.9040688,50.2240081 C48.27917,50.1542308 47.6701215,50.503664 47.4130567,51.0852024 L44.9954453,56.5686437 L42.577834,51.0852024 C42.342996,50.5521255 41.8170243,50.2156275 41.2449595,50.2156275 C41.1923077,50.2156275 41.1396559,50.2185425 41.087004,50.2241903 L35.1282389,50.8725911 L38.6688462,46.0368219 C39.0439676,45.5237854 39.0439676,44.8276518 38.6688462,44.3146154 L35.1282389,39.4788462 L41.087004,40.127247 C41.7097166,40.1913765 42.3209514,39.8468623 42.5780162,39.2660526 L44.9956275,33.7826113 L47.4132389,39.2660526 C47.6701215,39.8481377 48.2815385,40.1933806 48.904251,40.127247 L54.8630162,39.4788462 L51.3224089,44.3146154 C50.9472874,44.8276518 50.9472874,45.5237854 51.3224089,46.0368219 L54.8630162,50.8725911 L48.9040688,50.2240081 Z" id="Shape"></path>
                                </g>
                            </g>
                        </g>
                    </g>
                </g>
            </g>
        </g>
    </g>
</svg>