<?xml version="1.0" encoding="UTF-8"?>
<svg width="90px" height="69px" viewBox="0 0 90 69" version="1.1" xmlns="http://www.w3.org/2000/svg" xmlns:xlink="http://www.w3.org/1999/xlink">
    <!-- Generator: Sketch 51.1 (57501) - http://www.bohemiancoding.com/sketch -->
    <title>icon_4</title>
    <desc>Created with Sketch.</desc>
    <defs></defs>
    <g id="Page-1" stroke="none" stroke-width="1" fill="none" fill-rule="evenodd">
        <g id="Main-HD-SMM-(2)" transform="translate(-1240.000000, -3320.000000)" fill="#2F80ED" fill-rule="nonzero">
            <g id="4th-screen" transform="translate(0.000000, 2634.000000)">
                <g id="content-3.2++" transform="translate(320.000000, 196.000000)">
                    <g id="card-#6" transform="translate(860.000000, 430.000000)">
                        <g id="icon_4" transform="translate(60.000000, 60.000000)">
                            <g id="customer">
                                <path d="M57,17.9994375 L51,17.9994375 L51,15.7063125 C52.891125,14.007 54,11.5535625 54,8.9994375 C54,6.304875 52.8061875,3.774375 50.7245625,2.056125 C48.6436875,0.337875 45.9103125,-0.349875 43.2215625,0.1708125 C39.7198125,0.84825 36.8911875,3.6615 36.18375,7.1713125 C35.5385625,10.3741875 36.6121875,13.5770625 39,15.707625 L39,17.9994375 L33,17.9994375 C30.518625,17.9994375 28.5,20.0180625 28.5,22.4994375 L28.5,38.9994375 C28.5,39.8278125 29.171625,40.4994375 30,40.4994375 L60,40.4994375 C60.828375,40.4994375 61.5,39.8278125 61.5,38.9994375 L61.5,22.4994375 C61.5,20.017875 59.481375,17.9994375 57,17.9994375 Z M58.5,37.4994375 L31.5,37.4994375 L31.5,22.4994375 C31.5,21.6725625 32.173125,20.9994375 33,20.9994375 L40.5,20.9994375 C41.328375,20.9994375 42,20.3278125 42,19.4994375 L42,14.9994375 C42,14.5276875 41.778,14.083875 41.4016875,13.800375 C39.5304375,12.393375 38.658,10.080375 39.12525,7.7645625 C39.59475,5.4331875 41.46975,3.5655 43.7908125,3.116625 C45.62475,2.7635625 47.40675,3.208125 48.81525,4.369875 C50.203875,5.5160625 51,7.2035625 51,8.9994375 C51,10.8744375 50.1020625,12.6695625 48.5983125,13.800375 C48.2218125,14.083875 48,14.5276875 48,14.9994375 L48,19.4994375 C48,20.3278125 48.671625,20.9994375 49.5,20.9994375 L57,20.9994375 C57.826875,20.9994375 58.5,21.6725625 58.5,22.4994375 L58.5,37.4994375 Z" id="Shape"></path>
                                <path d="M18.5983125,19.800375 C18.2218125,20.083875 18,20.5276875 18,20.9994375 L18,25.4994375 C18,26.3278125 18.671625,26.9994375 19.5,26.9994375 L25.5,26.9994375 L25.5,23.9994375 L21,23.9994375 L21,21.7063125 C22.891125,20.007 24,17.5535625 24,14.9994375 C24,12.304875 22.8061875,9.774375 20.7245625,8.056125 C18.6436875,6.337875 15.9103125,5.650875 13.2215625,6.1708125 C9.7198125,6.84825 6.8911875,9.6615 6.18375,13.1713125 C5.5385625,16.3741875 6.6121875,19.5770625 9,21.707625 L9,23.9994375 L4.5,23.9994375 C2.018625,23.9994375 0,26.0180625 0,28.4994375 L0,38.9994375 C0,39.8278125 0.671625,40.4994375 1.5,40.4994375 L25.5,40.4994375 L25.5,37.4994375 L3,37.4994375 L3,28.4994375 C3,27.6725625 3.673125,26.9994375 4.5,26.9994375 L10.5,26.9994375 C11.328375,26.9994375 12,26.3278125 12,25.4994375 L12,20.9994375 C12,20.5276875 11.778,20.083875 11.4016875,19.800375 C9.5304375,18.393375 8.658,16.080375 9.12525,13.7645625 C9.59475,11.4331875 11.46975,9.5655 13.7908125,9.116625 C15.62625,8.7628125 17.4075,9.208125 18.81525,10.369875 C20.203875,11.5160625 21,13.2035625 21,14.9994375 C21,16.8744375 20.1020625,18.6695625 18.5983125,19.800375 Z" id="Shape"></path>
                                <path d="M85.5,23.9994375 L81,23.9994375 L81,21.707625 C83.387625,19.5770625 84.4614375,16.3741875 83.81625,13.1713125 C83.1088125,9.6615 80.2801875,6.84825 76.7776875,6.1708125 C74.09475,5.6521875 71.3555625,6.338625 69.2754375,8.056125 C67.1938125,9.7741875 66,12.304875 66,14.9994375 C66,17.553375 67.108875,20.007 69,21.7063125 L69,23.9994375 L64.5,23.9994375 L64.5,26.9994375 L70.5,26.9994375 C71.328375,26.9994375 72,26.3278125 72,25.4994375 L72,20.9994375 C72,20.5276875 71.778,20.083875 71.4016875,19.800375 C69.8979375,18.6695625 69,16.8744375 69,14.9994375 C69,13.2035625 69.796125,11.5160625 71.18475,10.369875 C72.5925,9.2083125 74.37225,8.76225 76.2084375,9.116625 C78.53025,9.5656875 80.40525,11.4331875 80.87475,13.7645625 C81.342,16.0805625 80.46975,18.3935625 78.5983125,19.800375 C78.2218125,20.083875 78,20.5276875 78,20.9994375 L78,25.4994375 C78,26.3278125 78.671625,26.9994375 79.5,26.9994375 L85.5,26.9994375 C86.326875,26.9994375 87,27.6725625 87,28.4994375 L87,37.4994375 L64.5,37.4994375 L64.5,40.4994375 L88.5,40.4994375 C89.328375,40.4994375 90,39.8278125 90,38.9994375 L90,28.4994375 C90,26.017875 87.981375,23.9994375 85.5,23.9994375 Z" id="Shape"></path>
                                <path d="M81,46.4994375 L81,43.4994375 L45,43.4994375 C44.171625,43.4994375 43.5,44.1710625 43.5,44.9994375 C43.5,49.13475 46.8646875,52.4994375 51,52.4994375 L55.5,52.4994375 L55.5,54.1753125 L45.0718125,55.479 L32.2515,52.6299375 L29.5605,49.9389375 C26.4945,46.8729375 21.5053125,46.8729375 18.4393125,49.9389375 C17.853375,50.524875 17.853375,51.4741875 18.4393125,52.060125 L28.9393125,62.560125 C29.0829375,62.70375 29.2543125,62.8171875 29.4425625,62.8925625 L44.4425625,68.8925625 C44.6205,68.963625 44.8095,68.9994375 45,68.9994375 C45.082125,68.9994375 45.1648125,68.992875 45.24675,68.979 L63.12375,65.9994375 L81,65.9994375 L81,62.9994375 L69,62.9994375 L69,46.4994375 L81,46.4994375 Z M66,62.9994375 L63,62.9994375 C62.9173125,62.9994375 62.8351875,63.006 62.75325,63.019875 L45.1678125,65.9510625 L30.8431875,60.22125 L21.789,51.1663125 C23.616375,50.234625 25.9125,50.5335 27.4396875,52.0599375 L30.4396875,55.0599375 C30.6410625,55.2620625 30.8960625,55.4019375 31.1750625,55.4634375 L44.6750625,58.4634375 C44.8434375,58.50075 45.0170625,58.5103125 45.186375,58.487625 L57.186375,56.987625 C57.937125,56.893875 58.500375,56.256 58.500375,55.49925 L58.500375,50.99925 C58.500375,50.170875 57.82875,49.49925 57.000375,49.49925 L51.000375,49.49925 C49.04475,49.49925 47.376375,48.24525 46.7574375,46.49925 L66,46.49925 L66,62.9994375 Z" id="Shape"></path>
                            </g>
                        </g>
                    </g>
                </g>
            </g>
        </g>
    </g>
</svg>