<?xml version="1.0" encoding="utf-8"?><svg xmlns="http://www.w3.org/2000/svg" xmlns:xlink="http://www.w3.org/1999/xlink"><symbol viewBox="0 0 10 19" id="Facebook" xmlns="http://www.w3.org/2000/svg"><path d="M9.63 1L7.23.99a4.158 4.158 0 0 0-4.44 4.44v2.04H.37a.363.363 0 0 0-.37.37v2.95a.363.363 0 0 0 .37.37h2.42v7.47a.376.376 0 0 0 .37.37h3.15a.378.378 0 0 0 .38-.37v-7.47h2.82a.371.371 0 0 0 .38-.37V7.84a.39.39 0 0 0-.11-.27.427.427 0 0 0-.27-.1H6.69V5.74c0-.84.2-1.26 1.32-1.26h1.62a.369.369 0 0 0 .37-.37V1.37A.363.363 0 0 0 9.63 1z" fill-rule="evenodd"/></symbol><symbol viewBox="0 0 16 16" id="Instagram" xmlns="http://www.w3.org/2000/svg"><path d="M2.05 0h11.9A2 2 0 0 1 16 2.05v11.89A2.006 2.006 0 0 1 13.95 16H2.05A2.006 2.006 0 0 1 0 13.94V2.05A2 2 0 0 1 2.05 0zm9.61 1.77a.723.723 0 0 0-.72.72v1.73a.723.723 0 0 0 .72.72h1.8a.723.723 0 0 0 .72-.72V2.49a.723.723 0 0 0-.72-.72h-1.8zm2.53 4.99h-1.41c.14.443.211.905.21 1.37a4.977 4.977 0 0 1-9.95 0c-.001-.465.07-.927.21-1.37H1.78v6.76c-.002.35.28.637.63.64h11.15a.636.636 0 0 0 .63-.64V6.76zM8.01 4.85a3.112 3.112 0 1 0 3.22 3.11 3.161 3.161 0 0 0-3.22-3.11z" fill-rule="evenodd"/></symbol><symbol viewBox="0 0 20 16" id="Twitter" xmlns="http://www.w3.org/2000/svg"><path d="M19.99 1.89a8.333 8.333 0 0 1-2.35.64 4.04 4.04 0 0 0 1.8-2.24 8.322 8.322 0 0 1-2.6.98 4.158 4.158 0 0 0-3-1.27 4.065 4.065 0 0 0-4.1 4.03c0 .31.037.619.11.92A11.657 11.657 0 0 1 1.39.73a4 4 0 0 0 1.27 5.4A4.039 4.039 0 0 1 .8 5.62v.05a4.06 4.06 0 0 0 3.29 3.96c-.35.102-.715.152-1.08.15a3.945 3.945 0 0 1-.77-.08 4.093 4.093 0 0 0 3.83 2.81A8.316 8.316 0 0 1 0 14.18 11.7 11.7 0 0 0 6.29 16 11.5 11.5 0 0 0 17.96 4.5c0-.17 0-.35-.01-.52a8.27 8.27 0 0 0 2.04-2.09z" fill-rule="evenodd"/></symbol><symbol viewBox="0 0 20 12" id="Vkontakte" xmlns="http://www.w3.org/2000/svg"><path d="M19.14 9.35a20.249 20.249 0 0 0-1.41-1.5c-.17-.16-.35-.34-.52-.51a.752.752 0 0 1-.12-1.24c.27-.39.55-.77.82-1.15.25-.34.51-.69.75-1.04l.06-.07a8.213 8.213 0 0 0 1.21-2.22 1.021 1.021 0 0 0-.02-.82.938.938 0 0 0-.7-.39 1.816 1.816 0 0 0-.32-.03h-3.1a.957.957 0 0 0-.96.7c-.17.44-.36.92-.58 1.37a10.994 10.994 0 0 1-1.76 2.81l-.03.03a.587.587 0 0 1-.27.23.227.227 0 0 1-.04-.01.852.852 0 0 1-.27-.66V1.11A1.068 1.068 0 0 0 10.97 0H7.71a1.293 1.293 0 0 0-1.08.54.555.555 0 0 0-.15.5.53.53 0 0 0 .41.29c.388.06.677.388.69.78.11.856.124 1.721.04 2.58-.013.232-.06.461-.14.68a.319.319 0 0 1-.14.18.357.357 0 0 1-.18-.08 3 3 0 0 1-.65-.74 18.062 18.062 0 0 1-1.85-3.56A1.1 1.1 0 0 0 3.64.39c-.51 0-.97-.01-1.41-.01C1.74.38 1.3.39.86.4a.839.839 0 0 0-.77.34.9.9 0 0 0 .03.87 35.418 35.418 0 0 0 3.62 6.7 9.1 9.1 0 0 0 2.81 2.72 7.039 7.039 0 0 0 3.72.96c.16 0 .32 0 .49-.01a1.026 1.026 0 0 0 1.16-1.18c-.002-.431.09-.858.27-1.25a.324.324 0 0 1 .28-.24c.097.01.19.044.27.1.167.128.321.272.46.43.12.13.23.27.35.41.25.29.52.59.79.88a2.4 2.4 0 0 0 2.01.85h2.84a.814.814 0 0 0 .67-.45 1.18 1.18 0 0 0-.01-1.11 6.619 6.619 0 0 0-.71-1.07z" fill-rule="evenodd"/></symbol><symbol viewBox="0 0 90 91" id="adv-icon_1" xmlns="http://www.w3.org/2000/svg"><path d="M88.47 19.02H66.019V2.556c0-.826-.67-1.497-1.497-1.497H25.6c-.826 0-1.496.67-1.496 1.497v16.466H1.652c-.827 0-1.497.67-1.497 1.497v23.95c0 .827.67 1.497 1.497 1.497H16l4.052 4.052a1.496 1.496 0 0 0 2.117 0l4.052-4.052h8.361c.827 0 1.497-.67 1.497-1.497V28.002h3.871l4.052 4.052a1.491 1.491 0 0 0 2.117 0l4.052-4.052h3.846v16.619c0 .4.16.784.445 1.064.286.282.69.454 1.07.432l11.37-.144 4.044 4.044a1.496 1.496 0 0 0 2.117 0l4.052-4.052H88.47c.827 0 1.497-.67 1.497-1.497v-23.95c0-.827-.67-1.497-1.497-1.497zM33.087 42.972h-7.484c-.397 0-.778.158-1.058.439l-3.433 3.432-3.432-3.432a1.497 1.497 0 0 0-1.058-.439H3.149V22.015h29.937V42.97zm16.466-17.963c-.397 0-.778.158-1.058.439l-3.433 3.432-3.432-3.432a1.497 1.497 0 0 0-1.058-.439h-4.49v-4.49c0-.827-.671-1.497-1.498-1.497H27.1V4.052h35.925v20.956H49.552zm37.422 17.963H76.496c-.397 0-.778.158-1.058.439l-3.433 3.432-3.432-3.432c-.285-.285-.667-.416-1.077-.439l-10.484.134V28.002h7.509c.826 0 1.497-.67 1.497-1.497v-4.49h20.956V42.97z"/><path d="M86.226 83.387H83.98a4.496 4.496 0 0 0-4.49-4.49h-7.485a1.499 1.499 0 0 1-1.497-1.498v-1.497c0-5.777-4.7-10.478-10.478-10.478h-8.98v-1.609c3.716-2.126 5.987-6.016 5.987-10.366 0-3.25-1.277-6.291-3.598-8.562-2.32-2.27-5.355-3.468-8.644-3.41-6.263.136-11.512 5.34-11.702 11.598a11.968 11.968 0 0 0 5.982 10.739v1.61H31.59c-5.778 0-10.479 4.7-10.479 10.478V77.4c0 .825-.671 1.497-1.496 1.497a1.499 1.499 0 0 1-1.497-1.497V54.197a3.747 3.747 0 0 0-3.743-3.742 3.747 3.747 0 0 0-3.742 3.742v2.246a4.496 4.496 0 0 0-4.49 4.49v19.46c0 5.778 4.7 10.478 10.478 10.478h5.987a10.45 10.45 0 0 0 7.485-3.152v3.152h2.994V80.393a1.497 1.497 0 0 0-2.994 0c0 4.127-3.358 7.484-7.485 7.484h-5.987c-4.127 0-7.485-3.357-7.485-7.484v-19.46a1.5 1.5 0 0 1 1.497-1.497h1.497c.827 0 1.497-.67 1.497-1.496v-3.743a.749.749 0 0 1 1.497 0V77.4a4.496 4.496 0 0 0 4.49 4.49 4.496 4.496 0 0 0 4.491-4.49v-1.497c0-4.127 3.358-7.484 7.485-7.484h8.98c.828 0 1.498-.67 1.498-1.497V62.91c0-.579-.334-1.106-.858-1.353a8.97 8.97 0 0 1-5.125-8.39c.141-4.692 4.078-8.594 8.775-8.695a8.893 8.893 0 0 1 6.484 2.556 8.912 8.912 0 0 1 2.699 6.422c0 3.505-1.966 6.612-5.13 8.106a1.498 1.498 0 0 0-.858 1.354v4.012c0 .826.67 1.497 1.497 1.497H60.03c4.127 0 7.485 3.357 7.485 7.484V77.4a4.496 4.496 0 0 0 4.49 4.49h7.485a1.5 1.5 0 0 1 1.497 1.497v1.497c0 .827.67 1.497 1.496 1.497h3.743a.749.749 0 0 1 0 1.497H69.01c-4.126 0-7.484-3.358-7.484-7.484a1.497 1.497 0 0 0-2.994 0V90.87h2.994v-3.152a10.45 10.45 0 0 0 7.484 3.152h17.215a3.747 3.747 0 0 0 3.742-3.742 3.746 3.746 0 0 0-3.742-3.742zM20.673 4.49L16.182 0l-2.117 2.117 1.936 1.935H9.136c-.826 0-1.497.67-1.497 1.497v10.478h2.994V7.046h5.368l-1.936 1.935 2.117 2.117 4.49-4.49a1.497 1.497 0 0 0 0-2.117zm63.746 4.491l-1.936 1.936V5.549c0-.827-.67-1.497-1.496-1.497H69.01v2.994h10.48v3.87l-1.936-1.935-2.117 2.117 4.491 4.49a1.491 1.491 0 0 0 2.117 0l4.49-4.49-2.116-2.117zM7.639 30.996h2.994v2.994H7.639zm5.988 0h2.994v2.994h-2.994zm5.987 0h2.994v2.994h-2.994zm5.988 0h2.994v2.994h-2.994zm8.981-17.963h2.994v2.994h-2.994zm5.988 0h2.994v2.994h-2.994zm5.987 0h2.994v2.994h-2.994zm5.988 0h2.994v2.994h-2.994zm8.981 17.963h2.994v2.994h-2.994zm5.988 0h2.994v2.994h-2.994zm5.987 0h2.994v2.994h-2.994zm5.988 0h2.994v2.994H79.49z"/></symbol><symbol viewBox="0 0 90 90" id="adv-icon_2" xmlns="http://www.w3.org/2000/svg"><path d="M74.207 44.01h5.926v2.963h-5.926zm-1.046-6.978l4.445-4.445 2.095 2.095-4.445 4.445zm-.001 16.916l2.095-2.095 4.445 4.445-2.095 2.095zm-3.397-14.382H66.8V33.64a4.45 4.45 0 0 0-4.445-4.444c-1.335 0-2.52.603-3.335 1.538a1.45 1.45 0 0 0-.45.192l-8.515 5.677H25.318c-.02 0-.035.01-.055.011a1.476 1.476 0 0 0-.453.091c-.033.013-.067.02-.1.035-.018.008-.037.01-.054.02a9.711 9.711 0 0 0-5.397 8.732 9.711 9.711 0 0 0 5.397 8.732c.013.007.027.004.04.01.19.089.398.147.622.147h7.395l-.12 14.803a1.483 1.483 0 0 0 1.48 1.493H40c.813 0 1.474-.655 1.481-1.47l.121-14.826h8.453l8.515 5.677c.14.093.294.153.452.194.815.933 2 1.536 3.333 1.536a4.45 4.45 0 0 0 4.445-4.444v-5.926h2.963a1.48 1.48 0 0 0 1.481-1.482v-8.889a1.48 1.48 0 0 0-1.481-1.481zM23.837 49.92c-1.036-1.2-1.615-2.74-1.615-4.428 0-1.688.579-3.23 1.615-4.429v8.857zM38.53 67.714h-2.963l.11-13.333h2.963l-.11 13.333zm10.492-16.296H26.8V39.566h22.222v11.852zm8.889 4.64l-5.926-3.952V38.877l5.926-3.95v21.13zm5.926-15.01v16.296a1.482 1.482 0 0 1-2.963 0V33.64a1.482 1.482 0 0 1 2.963 0v7.407zm4.444 7.407H66.8v-5.926h1.481v5.926z"/><path d="M73.896 59.46l-2.677-1.27c-4.387 9.246-13.3 15.575-23.4 16.714l-2.104-3.506c-.536-.894-2.006-.894-2.54 0l-2.105 3.506a29.462 29.462 0 0 1-13.556-5.095l-1.695 2.43a32.468 32.468 0 0 0 13.585 5.441l-.674 1.124A1.48 1.48 0 0 0 40 81.048h8.889a1.48 1.48 0 0 0 1.27-2.244l-.674-1.123c10.562-1.641 19.779-8.458 24.41-18.22zM42.619 78.084l1.825-3.044 1.826 3.044h-3.651zm28.567-51.218l-2.43 1.696a29.626 29.626 0 0 1 2.462 4.233l2.676-1.273a32.756 32.756 0 0 0-2.708-4.656zM49.49 13.294l.669-1.115a1.48 1.48 0 0 0-1.27-2.243h-8.89a1.48 1.48 0 0 0-1.27 2.244l.682 1.136a32.327 32.327 0 0 0-27.143 27.143l-1.135-.682a1.48 1.48 0 1 0-2.244 1.27v8.89a1.48 1.48 0 0 0 2.244 1.27l1.123-.675a32.47 32.47 0 0 0 5.44 13.585l2.431-1.695a29.462 29.462 0 0 1-5.094-13.556l3.506-2.104a1.48 1.48 0 0 0 0-2.54l-3.497-2.098C16.578 28.366 27.32 17.625 41.076 16.09l2.098 3.496a1.48 1.48 0 0 0 2.54.002l2.113-3.521a29.699 29.699 0 0 1 13.549 5.1l1.693-2.433a32.666 32.666 0 0 0-13.579-5.44zM11.852 47.318v-3.652l3.044 1.826-3.044 1.826zm32.594-31.372L42.619 12.9h3.655l-1.828 3.047z"/><path d="M54.015 60.467a17.689 17.689 0 0 1-9.57 2.803v2.963a20.65 20.65 0 0 0 11.17-3.272l-1.6-2.494zm-9.571-35.716c-7.093 0-13.624 3.578-17.47 9.57l2.495 1.6c3.297-5.138 8.896-8.207 14.975-8.207 3.405 0 6.713.97 9.57 2.803l1.6-2.495a20.652 20.652 0 0 0-11.17-3.27zM87.407 8.455h-3.83l6.36-6.36L87.84 0l-6.36 6.36V2.529a1.48 1.48 0 0 0-2.529-1.048l-10.37 10.37a1.48 1.48 0 0 0-.434 1.048v6.794l-5.492 5.492 2.095 2.095 5.492-5.492h6.794c.394 0 .77-.156 1.047-.434l10.37-10.37a1.48 1.48 0 0 0-1.047-2.53zm-16.296 5.058l7.407-7.408v3.218l-7.407 7.407v-3.217zm5.313 5.312h-3.218l7.407-7.407h3.218l-7.407 7.407zM15.105 82.558l-4.693-.939 18.783-18.783-2.094-2.095L8.317 79.524l-.939-4.693a1.482 1.482 0 0 0-1.36-1.188c-.693-.027-1.284.373-1.497 1.01L.076 87.986A1.481 1.481 0 0 0 1.95 89.86l13.333-4.445a1.48 1.48 0 0 0-.178-2.857zM3.824 86.113l1.743-5.23.388 1.937a1.481 1.481 0 0 0 1.161 1.161l1.938.388-5.23 1.744z"/></symbol><symbol viewBox="0 0 90 63" id="adv-icon_3" xmlns="http://www.w3.org/2000/svg"><path d="M85.5 0h-81A4.505 4.505 0 0 0 0 4.5v54C0 60.981 2.019 63 4.5 63h81c2.481 0 4.5-2.019 4.5-4.5v-54C90 2.019 87.981 0 85.5 0zM87 58.5c0 .828-.673 1.5-1.5 1.5h-81c-.827 0-1.5-.672-1.5-1.5V36.927l24.83 12.415a1.501 1.501 0 0 0 1.393-.028L47.976 39H48l-.001-.013L87 17.537V58.5zM12.09 38.117A4.505 4.505 0 0 1 16.5 34.5v5.823l-4.41-2.206zM30.19 15A6.01 6.01 0 0 0 36 19.5h4.5a1.501 1.501 0 0 1 0 3H39a1.5 1.5 0 0 0-1.5 1.5v7.5H33a1.5 1.5 0 0 0-1.5 1.5c0 1.654-1.346 3-3 3s-3-1.346-3-3a1.5 1.5 0 0 0-1.5-1.5h-4.5V24a1.5 1.5 0 0 0-1.5-1.5h-1.5a1.501 1.501 0 0 1 0-3H18a1.5 1.5 0 0 0 1.5-1.5v-3h10.69zM19.5 12v-1.5c0-.828.673-1.5 1.5-1.5h10.5c.827 0 1.5.672 1.5 1.5 0 .83.672 1.5 1.5 1.5H36c.827 0 1.5.672 1.5 1.5v3H36c-1.654 0-3-1.346-3-3a1.5 1.5 0 0 0-1.5-1.5h-12zm21 22.5c1.91 0 3.536 1.202 4.188 2.885L40.5 39.688V34.5zm-3 0v6.839l-9.033 4.968-8.967-4.484V34.5h3.19A6.01 6.01 0 0 0 28.5 39a6.01 6.01 0 0 0 5.81-4.5h3.19zM87 14.113l-39.672 21.82C46.152 33.326 43.54 31.5 40.5 31.5v-6c2.481 0 4.5-2.019 4.5-4.5s-2.019-4.5-4.5-4.5v-3c0-2.481-2.019-4.5-4.5-4.5h-.257A4.508 4.508 0 0 0 31.5 6H21a4.505 4.505 0 0 0-4.5 4.5v6A4.505 4.505 0 0 0 12 21c0 2.481 2.019 4.5 4.5 4.5v6c-3.35 0-6.162 2.224-7.12 5.262L3 33.572V4.5C3 3.672 3.673 3 4.5 3h81c.827 0 1.5.672 1.5 1.5v9.613z"/><path d="M45 9h16.5v3H45zm19.5 0H81v3H64.5zm-6 7.5h9v3h-9zM45 54h36v3H45zm21-6H45v3h36v-3zm-7.5-6H81v3H58.5zm-42 3h-9A1.5 1.5 0 0 0 6 46.5v9c0 .83.672 1.5 1.5 1.5h9a1.5 1.5 0 0 0 1.5-1.5v-9a1.5 1.5 0 0 0-1.5-1.5zM15 54H9v-6h6v6zm16.5-31.5h3v3h-3zm-9 0h3v3h-3zm3 4.5h6v3h-6z"/></symbol><symbol viewBox="0 0 90 90" id="adv-icon_4" xmlns="http://www.w3.org/2000/svg"><path d="M13.5 75V42h3v-3H12a1.5 1.5 0 0 0-1.5 1.5v36c0 .828.67 1.5 1.5 1.5h24v-3H13.5zM78 39h-4.5v3h3v33H54v3h24a1.5 1.5 0 0 0 1.5-1.5v-36A1.5 1.5 0 0 0 78 39z"/><path d="M88.5 81H51V56.121l5.56-5.56A1.5 1.5 0 0 0 57 49.5V42a1.5 1.5 0 0 0-.44-1.061l-6-6A1.501 1.501 0 0 0 48 36v7.5h-6V36a1.5 1.5 0 0 0-2.56-1.06l-6 6A1.5 1.5 0 0 0 33 42v7.5c0 .398.158.78.44 1.06L39 56.121V81H1.5A1.5 1.5 0 0 0 0 82.5v3C0 87.981 2.019 90 4.5 90h81c2.481 0 4.5-2.019 4.5-4.5v-3a1.5 1.5 0 0 0-1.5-1.5zM36 48.879v-6.258l3-3V45c0 .828.67 1.5 1.5 1.5h9A1.5 1.5 0 0 0 51 45v-5.379l3 3v6.258l-5.56 5.56A1.5 1.5 0 0 0 48 55.5V81h-6V55.5a1.5 1.5 0 0 0-.44-1.06L36 48.879zM87 85.5c0 .827-.672 1.5-1.5 1.5h-81c-.828 0-1.5-.673-1.5-1.5V84h84v1.5z"/><path d="M71.373 49.325l-2.522-1.584v-1.897l2.522-1.584a1.5 1.5 0 0 0 .665-1.599c-.341-1.52-.416-1.84-.649-2.846l-.237-1.032a1.5 1.5 0 0 0-1.302-1.154l-2.95-.316-.824-1.711 1.598-2.538a1.5 1.5 0 0 0-.096-1.735l-2.476-3.105a1.5 1.5 0 0 0-1.671-.479l-2.827.997-.2-.16c-.448-.361-.795-.64-1.279-1.024l.34-2.952a1.499 1.499 0 0 0-.836-1.522l-3.577-1.727a1.502 1.502 0 0 0-1.708.293l-2.112 2.112-1.848-.424-.987-2.832A1.499 1.499 0 0 0 46.98 19.5h-3.96a1.5 1.5 0 0 0-1.417 1.006l-.987 2.832-1.848.425-2.113-2.114a1.504 1.504 0 0 0-1.708-.292l-3.576 1.727c-.574.278-.91.889-.836 1.522l.34 2.952c-.484.385-.83.663-1.28 1.025l-.198.16-2.827-.997a1.5 1.5 0 0 0-1.672.478l-2.475 3.105a1.5 1.5 0 0 0-.098 1.735l1.6 2.538-.826 1.71-2.949.317a1.5 1.5 0 0 0-1.302 1.154l-.237 1.032c-.233 1.006-.308 1.327-.65 2.846a1.5 1.5 0 0 0 .666 1.6l2.522 1.583v1.897l-2.522 1.584a1.5 1.5 0 0 0-.665 1.599c.337 1.501.414 1.832.64 2.81l.246 1.068a1.5 1.5 0 0 0 1.296 1.153l2.957.33.821 1.699-1.598 2.536a1.5 1.5 0 0 0 .098 1.735l2.476 3.106a1.498 1.498 0 0 0 1.671.478l2.827-.996.2.16c.448.361.795.64 1.279 1.025l-.34 2.966a1.498 1.498 0 0 0 .843 1.524l2.472 1.184 1.3-2.704-1.514-.725.313-2.732a1.497 1.497 0 0 0-.56-1.347c-.87-.69-1.291-1.028-1.912-1.528l-.853-.685a1.49 1.49 0 0 0-1.438-.245l-2.608.92-1.147-1.438 1.473-2.34c.277-.437.307-.987.082-1.453l-1.546-3.194a1.5 1.5 0 0 0-1.185-.837l-2.723-.302-.007-.033c-.16-.695-.245-1.061-.403-1.759l2.326-1.46a1.5 1.5 0 0 0 .702-1.27v-3.555c0-.517-.265-.997-.702-1.27l-2.326-1.46c.16-.708.245-1.074.41-1.787l2.718-.292a1.501 1.501 0 0 0 1.194-.843l1.542-3.205a1.496 1.496 0 0 0-.082-1.452l-1.472-2.339 1.145-1.438 2.61.92c.488.175 1.033.08 1.438-.244l.852-.686c.621-.5 1.042-.839 1.913-1.528.407-.321.62-.832.56-1.347l-.314-2.723 1.651-.797 1.948 1.947c.365.364.895.515 1.394.402l3.464-.795a1.501 1.501 0 0 0 1.084-.969l.909-2.609h1.828l.91 2.609c.17.488.58.854 1.084.969l3.46.794a1.505 1.505 0 0 0 1.397-.402l1.947-1.947 1.652.797-.313 2.723c-.06.516.152 1.027.56 1.348.87.69 1.291 1.028 1.912 1.528l.853.685c.403.325.946.42 1.439.245l2.607-.92 1.145 1.437-1.472 2.34a1.5 1.5 0 0 0-.08 1.452l1.545 3.21c.225.467.675.783 1.19.838l2.718.292c.166.713.25 1.08.41 1.786l-2.326 1.46a1.5 1.5 0 0 0-.701 1.27v3.556c0 .515.265.996.701 1.27l2.326 1.46c-.158.697-.243 1.064-.402 1.759l-2.731.335a1.5 1.5 0 0 0-1.185.837l-1.545 3.194a1.501 1.501 0 0 0 .08 1.453l1.472 2.34-1.145 1.438-2.607-.92a1.488 1.488 0 0 0-1.439.244l-.852.686c-.622.5-1.042.839-1.913 1.528-.408.321-.62.831-.56 1.347l.314 2.732-1.515.725 1.3 2.704 2.472-1.183c.577-.276.917-.889.844-1.525l-.34-2.966c.483-.386.83-.664 1.279-1.026l.199-.16 2.827.997c.605.214 1.273.02 1.671-.478l2.476-3.106a1.502 1.502 0 0 0 .097-1.735l-1.597-2.536.822-1.7 2.956-.329a1.5 1.5 0 0 0 1.296-1.153l.246-1.068c.226-.978.304-1.309.64-2.81a1.502 1.502 0 0 0-.665-1.6z"/><path d="M45 28.5c-9.926 0-18 8.21-18 18.3 0 5.468 2.382 10.604 6.535 14.094l1.93-2.297C31.992 55.679 30 51.379 30 46.8c0-8.437 6.73-15.3 15-15.3s15 6.863 15 15.3c0 4.58-1.992 8.879-5.465 11.797l1.93 2.297C60.618 57.404 63 52.268 63 46.8c0-10.09-8.074-18.3-18-18.3zM46.06.44a1.5 1.5 0 0 0-2.12 0l-4.5 4.5 2.12 2.12 1.94-1.939V16.5h3V5.121l1.94 1.94 2.12-2.122-4.5-4.5zm30.76 12.74h-6.364v3h2.742l-8.045 8.046 2.121 2.122 8.045-8.046v2.742h3V14.68a1.5 1.5 0 0 0-1.5-1.5zm-60.019 3h2.743v-3H13.18a1.5 1.5 0 0 0-1.5 1.5v6.364h3V18.3l8.045 8.046 2.12-2.12-8.045-8.047z"/></symbol><symbol viewBox="0 0 90 90" id="adv-icon_5" xmlns="http://www.w3.org/2000/svg"><path d="M10.5 16.5H51v3H10.5zm4.5 6h36v3H15zm-4.5 6h18v3h-18zm21 0H51v3H31.5zm-21 6h9v3h-9zm12 0H51v3H22.5z"/><path d="M88.5 16.5h-27v-15C61.5.67 60.83 0 60 0H1.5C.67 0 0 .67 0 1.5V42c0 .83.67 1.5 1.5 1.5H15V72c0 .83.67 1.5 1.5 1.5H45V81H34.5c-.83 0-1.5.67-1.5 1.5v6c0 .83.67 1.5 1.5 1.5h36c.83 0 1.5-.67 1.5-1.5v-6c0-.83-.67-1.5-1.5-1.5H60v-7.5h28.5c.83 0 1.5-.67 1.5-1.5V18c0-.83-.67-1.5-1.5-1.5zM3 3h55.5v7.5H21v-3c0-.83-.67-1.5-1.5-1.5H3V3zm0 37.5V9h15v3c0 .83.67 1.5 1.5 1.5h39v27H3zM69 84v3H36v-3h10.5c.83 0 1.5-.67 1.5-1.5v-9h9v9c0 .83.67 1.5 1.5 1.5H69zm18-25.5h-3v3h3v9H18v-9h42v-3H18v-15h42c.83 0 1.5-.67 1.5-1.5V19.5H87v39z"/><path d="M82.06 57.44l-4.939-4.94 3.44-3.44A1.498 1.498 0 0 0 79.5 46.5h-15c-.83 0-1.5.67-1.5 1.5v15a1.499 1.499 0 0 0 2.56 1.06L69 60.622l4.94 4.94a1.494 1.494 0 0 0 2.121 0l6-6a1.5 1.5 0 0 0 0-2.121zM75 62.379l-4.94-4.94A1.494 1.494 0 0 0 69 57c-.384 0-.768.146-1.06.44L66 59.379V49.5h9.879l-1.94 1.94a1.5 1.5 0 0 0 0 2.12l4.94 4.94L75 62.379zM28.5 46.5h3v9h-3zm6 0h15v3h-15zm18 0H60v3h-7.5zm-18 6h9v3h-9zm12 0H60v3H46.5zm4.5 12h3v3h-3z"/></symbol><symbol viewBox="0 0 90 85" id="icon_1" xmlns="http://www.w3.org/2000/svg"><path class="ajcls-1" d="M8.178 15.05H78.4v2.67H8.178v-2.67zM30.16 0H0v85h90V0H30.16zm57.167 82.33H2.674V22.86h84.653v59.47zm0-62.15H2.674V2.67h25.752l4.3 9.61h54.606v7.9zm0-10.57H34.455l-3.1-6.94h55.972v6.94zm-25.575-4.8H67.9v2.67h-6.149V4.81zm8.689 0h6.148v2.67h-6.148V4.81zm8.688 0h6.148v2.67h-6.148V4.81zm5.287 21.4H5.584V41h78.832V26.21zM8.257 38.33v-9.45h73.485v9.45H8.257zm24.713 5.26H5.584v35.39H32.97V43.59zM30.3 76.3H8.26V46.26H30.3V76.3zm5.139 2.68h48.98V43.59h-48.98v35.39zm2.673-32.72h43.633V76.3H38.109V46.26zm25.381 10.58H78.21v2.67H63.49v-2.67zm-6.336 6.88H78.21v2.67H57.154v-2.67zm2.943 6.06h18.11v2.68H60.1v-2.68zm-6.789 0h4.634v2.68h-4.634v-2.68zM11.5 50.5h12.832v2.68H11.5V50.5zm0 5.87h6v2.68h-6v-2.68zm43.371-24.1H77.9v2.67H54.866v-2.67zm-7.906 0h4.812v2.67H46.96v-2.67z"/></symbol><symbol viewBox="0 0 90 85" id="icon_2" xmlns="http://www.w3.org/2000/svg"><path class="akcls-1" d="M8.178 15.04H78.4v2.68H8.178v-2.68zM30.16 0H0v84.98h38.947l.009.02.007-.02h12.072l.007.02.009-.02H90V0H30.16zm8.443 77.86l-2.546-5.52-5.411 2.76 3.529-10.18 3.6-.81-2.134 5.69 2.5.94 2.22-5.92 1.982 2.25zm-5.719-22.52l-6.431-2.77 3.574-6.03-3.574-6.02 6.431-2.78.654-6.97 6.833 1.53L45 27.05l4.629 5.25 6.833-1.53.654 6.97 6.431 2.78-3.574 6.03 3.574 6.02-6.431 2.78-.654 6.97-3.846-.86-2.987-.67-2.424 2.75L45 66.04l-2.205-2.5-2.424-2.75-2.987.67-3.846.86zm7.006 26.97l4.483-12.93.627.71.627-.71 4.483 12.93H39.89zm7.768-15.24l1.982-2.25 2.22 5.92 2.5-.94-2.134-5.69 3.6.81 3.53 10.18-5.412-2.76-2.546 5.52zm39.669 15.24h-35.04l2.918-6.32 8.847 4.5-5.2-15.01.779-8.31 7.767-3.35-4.316-7.28 4.316-7.27-7.767-3.35-.789-8.42-8.252 1.84L45 23l-5.589 6.34-8.252-1.84-.789 8.42-7.767 3.35 4.316 7.27-4.316 7.28 7.767 3.35.779 8.31-5.2 15.01 8.847-4.5 2.918 6.32H2.674V22.85h84.653v59.46zm0-62.13H2.674V2.67h25.753l4.295 9.61h54.605v7.9zm0-10.57H34.455l-3.1-6.94h55.972v6.94zM61.752 4.8H67.9v2.68h-6.149V4.8zm8.689 0h6.148v2.68h-6.148V4.8zm8.688 0h6.148v2.68h-6.148V4.8zM59.253 46.54A14.253 14.253 0 1 0 45 60.8a14.273 14.273 0 0 0 14.253-14.26zm-25.833 0A11.58 11.58 0 1 1 45 58.12a11.6 11.6 0 0 1-11.58-11.58zm18.938 0h2.674A10.043 10.043 0 0 0 45 36.51v2.68a7.364 7.364 0 0 1 7.358 7.35z"/></symbol><symbol viewBox="0 0 90 70" id="icon_3" xmlns="http://www.w3.org/2000/svg"><path class="alcls-1" d="M80.6 33.23a19.2 19.2 0 1 0-32.24-15.65 25.467 25.467 0 0 0-9.22-1.73.433.433 0 0 1-.05.01v-1.62L26.01 1.12H4.67V44.3A14.877 14.877 0 0 0 14.83 70H70.2a19.878 19.878 0 0 0 10.4-36.77zM67.46 2.68A16.563 16.563 0 0 1 78.07 31.9a19.6 19.6 0 0 0-7.87-1.63c-.27 0-.53 0-.79.01a19.478 19.478 0 0 0-6.58 1.41c-.02-.06-.05-.11-.07-.16-.07-.17-.14-.33-.22-.5a25.742 25.742 0 0 0-8.07-10.07c-.06-.05-.13-.09-.19-.14-.09-.07-.18-.13-.27-.19a24.38 24.38 0 0 0-3.04-1.88A16.539 16.539 0 0 1 67.46 2.68zM26.79 5.7l7.74 7.75h-7.74V5.7zM7.35 3.8h16.77v12.33h11.23a.048.048 0 0 1-.04.01l-.54.09h-.03a25.309 25.309 0 0 0-5.62 1.66h-18.4v2.68h13.61a25.945 25.945 0 0 0-5.44 5.23h-8.17v2.68h6.35a25.649 25.649 0 0 0-2.35 5.23h-4v2.68h3.3a.292.292 0 0 0-.02.09l-.03.16c-.03.14-.06.28-.08.42a1.286 1.286 0 0 1-.04.19l-.06.4-.03.21c-.02.13-.04.26-.05.39l-.03.22c-.02.13-.03.26-.05.39a1.5 1.5 0 0 1-.02.22c-.01.14-.02.28-.04.41 0 .07-.01.14-.01.21-.02.18-.03.37-.04.56v.05c-.03 0-.06.01-.09.01-.16.01-.32.03-.47.05l-.23.03c-.16.03-.32.05-.47.08-.1.02-.2.03-.3.05s-.18.04-.26.06c-.17.04-.34.07-.5.12-.06.01-.13.03-.19.04-.19.06-.38.11-.57.17a.88.88 0 0 0-.15.05c-.11.03-.23.07-.34.11-.06.02-.13.05-.19.07-.16.06-.33.12-.49.19-.08.03-.16.07-.25.1l-.33.15c-.12.05-.24.11-.37.17l-.18.09c-.17.09-.33.17-.49.26l-.09.06a2.247 2.247 0 0 0-.21.12V3.8zM70.2 67.32H14.83a12.2 12.2 0 0 1-7.78-21.56.865.865 0 0 0 .1-.07c.11-.1.23-.19.35-.28a1.063 1.063 0 0 1 .11-.09c.11-.08.22-.16.34-.24.04-.03.09-.06.14-.1.1-.06.21-.13.31-.2.06-.04.12-.07.18-.11.09-.05.18-.11.28-.16.07-.04.15-.09.23-.13.06-.03.13-.07.19-.1a11.9 11.9 0 0 1 1.81-.75.01.01 0 0 1 .01-.01c.15-.05.3-.09.45-.13l.09-.03c.14-.04.28-.07.42-.1l.13-.03c.13-.03.26-.06.39-.08a1.062 1.062 0 0 1 .19-.04c.11-.02.23-.04.35-.05l.24-.03c.11-.02.21-.03.31-.04s.22-.02.33-.02a1.942 1.942 0 0 1 .24-.02c.2-.01.39-.02.58-.02h1.34v-1.34c0-.19 0-.39.01-.58a1.275 1.275 0 0 1 .01-.19c0-.13 0-.26.01-.39 0-.07.01-.14.01-.21l.03-.37c0-.07.01-.14.01-.21.02-.12.03-.24.04-.36a1.492 1.492 0 0 1 .02-.21c.01-.12.03-.25.04-.37l.03-.19c.01-.13.03-.25.05-.38l.03-.17.06-.4.03-.15c.03-.14.05-.28.08-.42l.03-.12c.03-.15.06-.3.09-.44l.03-.1c.03-.15.07-.31.11-.47a.142.142 0 0 1 .02-.06c.04-.17.08-.34.13-.5a.035.035 0 0 1 .01-.02 23.045 23.045 0 0 1 18.59-16.47 1.435 1.435 0 0 1 .22-.04c.1-.01.21-.03.32-.04.13-.02.26-.03.39-.05a.875.875 0 0 0 .16-.02c.16-.01.32-.03.48-.04a.148.148 0 0 0 .07-.01l.53-.03a.227.227 0 0 0 .04-.01l.17-.01c.37-.01.75-.02 1.13-.02a22.9 22.9 0 0 1 12.53 3.73.351.351 0 0 0 .08.05c.18.12.36.25.54.37.13.09.25.18.38.27.09.07.18.14.27.2a23.467 23.467 0 0 1 6.97 8.56c.04.09.09.18.13.27.05.11.1.23.15.35.1.21.19.43.28.64a1.8 1.8 0 0 0 .08.21c.09.25.19.49.27.74l.5 1.42 1.35-.66a17.044 17.044 0 0 1 7.53-1.74c.15 0 .3 0 .46.01h.24a1.408 1.408 0 0 0 .2.01c.11.01.22.02.33.02a.41.41 0 0 0 .11.01c.13.01.26.02.39.04h.02a17.188 17.188 0 0 1-1.75 34.28zm-55.37-6.8H70.2v2.69H14.83v-2.69zM70.2 35.87v2.68a11.579 11.579 0 0 1 11.54 11.58h2.68A14.259 14.259 0 0 0 70.2 35.87zm-18.5-1.94l2.53-.89a16.027 16.027 0 0 0-15.09-10.71v2.68a13.341 13.341 0 0 1 12.56 8.92zm9.94-22.96v16.52l16.47-8.26zm2.67 4.34l7.82 3.92-7.82 3.92v-7.84zm15.14 3.92h2.68A14.722 14.722 0 0 0 67.46 4.51V7.2a12.027 12.027 0 0 1 11.99 12.03z"/></symbol><symbol viewBox="0 0 97 92" id="icon_4" xmlns="http://www.w3.org/2000/svg"><path data-name="icon (97x92)+" class="amcls-1" d="M64.6 43.62a30.7 30.7 0 0 0-13.8-21.69 30.189 30.189 0 0 0-16.337-4.79v2.89a27.3 27.3 0 0 1 14.8 4.34 27.754 27.754 0 0 1 12.5 19.64zm-48.682 4.2l-2.865-.04a21.535 21.535 0 0 0 5.464 14.59l.055.06a22.9 22.9 0 0 0 9.555 5.99l.821-2.77a19.988 19.988 0 0 1-8.322-5.23 18.677 18.677 0 0 1-4.705-12.6zm26.709-5.39a9.923 9.923 0 0 1 1.154 2.48l2.739-.84a12.635 12.635 0 0 0-12.058-8.98v2.89a9.851 9.851 0 0 1 8.168 4.45zm54.37-4.78H79l-2.78 8.71H68.9a34.741 34.741 0 1 0 0 2.88h7.324l2.78 8.71h18L93.763 47.8zm-65.94 28.43v5.03a23.609 23.609 0 0 1-14.594-38.33h1.973v-2.12a23.192 23.192 0 0 1 16.025-6.42 23.483 23.483 0 0 1 23.333 22.12H51.57a17.311 17.311 0 1 0 0 2.88h6.23a23.483 23.483 0 0 1-23.333 22.12h-.538v-5.28H31.06zm8.158-16.84a4.984 4.984 0 0 1-4.754 3.57c-.182 0-.361-.02-.538-.03V50h-2.865v1.44a4.982 4.982 0 1 1 8.157-5.08h-4.754v2.88h4.754zm-4.754-9.33a7.89 7.89 0 1 0 7.7 9.33H48.7a14.368 14.368 0 0 1-14.232 12.98c-.181 0-.359-.01-.538-.02v-5.54h-2.87v5.14a14.4 14.4 0 1 1 17.636-15.44h-6.535a7.854 7.854 0 0 0-7.697-6.45zm0-18.56a26 26 0 0 0-16.964 6.29h-1.926v1.82a26.337 26.337 0 1 0 45.094 19.78h5.361a31.75 31.75 0 0 1-31.565 30.41c-.18 0-.359-.01-.538-.01v-4.13H31.06v3.95a31.91 31.91 0 0 1-15.486-57.18v1.93h2.865v-3.85a31.22 31.22 0 0 1 16.025-4.41 31.75 31.75 0 0 1 31.565 30.41h-5.361a26.367 26.367 0 0 0-26.204-25.01zm56.6 19.19h2l-1.857 5.82h-2zm-9.974 0h2l-1.858 5.82h-2zm0 14.52l-1.858-5.82h2.006l1.857 5.82h-2zm5.015 0l-1.858-5.82h1.95l1.857 5.82H86.1zm.092-8.7h-1.949l1.857-5.82h1.949zm4.867 8.7l-1.857-5.82h2l1.857 5.82h-2zM15.573 36.21h2.865v2.89h-2.865v-2.89zm0-25.72h2.865v5.15h-2.865v-5.15zm2.865-4.87h1.433V2.73h-4.3v4.34h2.865V5.62zm5.213-2.89h5.671v2.89h-5.671V2.73zm9.452 0h5.671v2.89H33.1V2.73zm9.452 0h5.671v2.89h-5.671V2.73zm9.452 0h5.671v2.89h-5.671V2.73zm21.74 0h13.815v2.89H73.748V2.73zm0 10.34h9.97v2.88h-9.97v-2.88zm0-4.96h7v2.88h-7V8.11zm-6.709.25a4.18 4.18 0 1 0-3.89-5.63H61.46v2.89h1.688a4.151 4.151 0 0 0 3.891 2.74zm0-5.47a1.29 1.29 0 1 1-1.28 1.29 1.287 1.287 0 0 1 1.281-1.29zm.456 80.75a4.151 4.151 0 0 0-3.89 2.74h-1.019v2.88h1.019a4.152 4.152 0 1 0 3.896-5.62zm0 5.47a1.29 1.29 0 1 1 1.281-1.29 1.287 1.287 0 0 1-1.275 1.29zm17.86-76.04h4.566v2.88h-4.566v-2.88zm-11.015 69.3h13.815v2.89H74.34v-2.89zm0 4.96h9.97v2.89h-9.97v-2.89zm0-9.92h7v2.89h-7v-2.89zm11.607 9.92h4.566v2.89h-4.566v-2.89zm-52.021-2.4H31.06v4.33h4.3v-2.88h-1.433v-1.45zm17.316 1.45h6.807v2.88h-6.807v-2.88zm-11.345 0H46.7v2.88h-6.8v-2.88z"/></symbol><symbol viewBox="0 0 90 90" id="icon_5" xmlns="http://www.w3.org/2000/svg"><path class="ancls-1" d="M74.548 49.41L90 29.82 74.548 10.23H21.673a7.274 7.274 0 1 0-10.834 3.01v61.1H3.95v6.51H0V90h30.042v-9.15h-3.95v-6.51H19.2V49.41h55.346zm-1.276-36.54l13.371 16.95-13.371 16.95H19.2V13.25c.169-.12.333-.25.492-.38h53.577zM27.407 83.49v3.87H2.634v-3.87h24.773zm-3.95-6.51v3.87H6.585v-3.87h16.872zM13.474 74V14.4s.01.01.015.01l.355.06s.01.01.015.01a7.54 7.54 0 0 0 2.323 0c.007 0 .013-.01.02-.01l.35-.06s.011-.01.016-.01V74h-3.094zm4.723-63.33l-.105.09-.1.09a.985.985 0 0 1-.121.1c-.059.05-.119.09-.18.14a.671.671 0 0 0-.1.07.956.956 0 0 0-.128.08l-.106.06c-.091.05-.183.1-.278.15a.09.09 0 0 1-.045.02l-.127.06a.612.612 0 0 1-.12.05c-.036.02-.072.03-.109.05l-.163.06c-.026.01-.051.01-.077.02a4.761 4.761 0 0 1-.524.14.1.1 0 0 0-.053.01l-.214.03c-.024 0-.048.01-.072.01-.068.01-.137.01-.2.02h-.071a3.691 3.691 0 0 1-.543 0h-.07c-.069-.01-.137-.01-.206-.02-.023 0-.047-.01-.071-.01l-.214-.03a.1.1 0 0 0-.054-.01 4.685 4.685 0 0 1-.523-.14c-.026-.01-.051-.01-.077-.02l-.164-.06c-.036-.02-.072-.03-.108-.05a.6.6 0 0 1-.122-.05c-.042-.02-.084-.03-.125-.05l-.054-.03a4.643 4.643 0 1 1 5.227-.78zm39.078 3.96h3.091v2.63h-3.091v-2.63zm15.991 5.32l2.067-1.63-2.912-3.69H63.75v2.63h7.395zm6.34 11.7l2.067 1.63 2.731-3.46-4.142-5.25-2.067 1.63 2.852 3.62zm-8.461 10.72h-8.426v2.64h9.7l3.169-4.02-2.067-1.63zm-26.819 0h2.649v2.64h-2.649v-2.64zm-3.974 0H23.593V40.5h-2.634v4.51h19.393v-2.64zM23.593 17.26h3.075v-2.63h-5.709v9.81h2.634v-7.18zm1.362 20.13a4.289 4.289 0 1 0 8.1-1.95l9.429-9.45a4.193 4.193 0 0 0 1.835.42 4.315 4.315 0 0 0 2.677-.94l11.028 7.2a4.213 4.213 0 0 0-.15 1.12 4.289 4.289 0 1 0 8.578 0 4.25 4.25 0 0 0-.39-1.78l4.941-4.54v3.57l2.635.01.011-8.09-8.071-.01v2.64l3.583.01-4.87 4.46a4.279 4.279 0 0 0-4.817.4l-11.015-7.19a4.365 4.365 0 0 0 .158-1.16 4.289 4.289 0 1 0-8.044 2.08l-9.372 9.38a4.29 4.29 0 0 0-6.246 3.82zm37.213-5.25a1.655 1.655 0 1 1-1.655 1.65 1.655 1.655 0 0 1 1.655-1.65zM44.324 20.45a1.66 1.66 0 1 1-1.654 1.66 1.663 1.663 0 0 1 1.654-1.66zm-15.08 15.29a1.655 1.655 0 1 1-1.655 1.65 1.654 1.654 0 0 1 1.655-1.65z"/></symbol><symbol viewBox="0 0 90 85" id="icon_6" xmlns="http://www.w3.org/2000/svg"><path class="aocls-1" d="M8.18 15.05H78.4v2.67H8.18v-2.67zM30.16 0H0v85h90V0H30.16zm57.17 82.33H2.67V22.86h84.66v59.47zm0-62.15H2.67V2.67h25.76l4.29 9.61h54.61v7.9zm0-10.57H34.45l-3.1-6.94h55.98v6.94zm-25.58-4.8h6.15v2.67h-6.15V4.81zm8.69 0h6.15v2.67h-6.15V4.81zm8.69 0h6.15v2.67h-6.15V4.81zm5.29 21.4H5.58V41h78.84V26.21zM8.26 38.33v-9.45h73.48v9.45H8.26zm31.6 5.26H5.58v35.39h34.28V43.59zM37.19 76.3H8.26V46.26h28.93V76.3zm-25.7-25.8h12.84v2.68H11.49V50.5zm0 5.87h6.01v2.68h-6.01v-2.68zm43.38-24.1H77.9v2.67H54.87v-2.67zm-7.91 0h4.81v2.67h-4.81v-2.67zm22.46 29.25a4.055 4.055 0 1 0-4.05 4.06 4.054 4.054 0 0 0 4.05-4.06zm-5.43 0a1.38 1.38 0 1 1 1.38 1.38 1.383 1.383 0 0 1-1.38-1.38zm1.38-8.99v-2.68A11.689 11.689 0 0 0 53.7 61.52h2.68a9 9 0 0 1 8.99-8.99zm0 17.99v2.67a11.689 11.689 0 0 0 11.67-11.67h-2.68a9.005 9.005 0 0 1-8.99 9zm8.03-9a8.03 8.03 0 1 0-8.03 8.03 8.036 8.036 0 0 0 8.03-8.03zm-13.38 0a5.35 5.35 0 1 1 5.35 5.35 5.356 5.356 0 0 1-5.35-5.35zm19.04-7.16l3.05-3.04-6.54-6.54-3.04 3.04a15.618 15.618 0 0 0-2.54-1.05v-4.3h-9.24v4.3a15.258 15.258 0 0 0-2.54 1.05l-3.04-3.04-6.54 6.54 3.05 3.04a15.3 15.3 0 0 0-1.06 2.54h-4.3v9.24h4.3a15.3 15.3 0 0 0 1.06 2.54l-3.05 3.04 6.54 6.54 3.04-3.04a15.258 15.258 0 0 0 2.54 1.05v4.3h9.24v-4.3a15.618 15.618 0 0 0 2.54-1.05l3.04 3.04 6.54-6.54-3.05-3.04a15.3 15.3 0 0 0 1.06-2.54h4.3V56.9h-4.3a15.3 15.3 0 0 0-1.06-2.54zm2.68 9.11h-3.7l-.24 1.03a12.566 12.566 0 0 1-1.54 3.71l-.55.9 2.61 2.61-2.75 2.76-2.62-2.62-.9.55a12.566 12.566 0 0 1-3.71 1.54l-1.02.25v3.7h-3.9v-3.7l-1.03-.25a12.509 12.509 0 0 1-3.7-1.54l-.9-.55-2.62 2.62-2.76-2.76 2.62-2.61-.55-.9a12.566 12.566 0 0 1-1.54-3.71l-.24-1.03H49v-3.9h3.7l.24-1.03a12.678 12.678 0 0 1 1.54-3.71l.55-.89-2.62-2.62 2.76-2.76 2.62 2.62.9-.55a12.509 12.509 0 0 1 3.7-1.54l1.03-.25v-3.7h3.9v3.7l1.02.25a12.457 12.457 0 0 1 3.71 1.54l.9.55 2.62-2.62 2.75 2.76-2.61 2.62.55.89a12.678 12.678 0 0 1 1.54 3.71l.24 1.03h3.7v3.9z"/></symbol><symbol viewBox="0 0 90 76" id="inst-icon_1" xmlns="http://www.w3.org/2000/svg"><path d="M84.454 0H5.546A5.555 5.555 0 0 0 0 5.552v53.61a5.555 5.555 0 0 0 5.546 5.552h26.688l-1.08 8.646h-4.472a1.32 1.32 0 0 0 0 2.64h36.636a1.32 1.32 0 0 0 0-2.64h-4.472l-1.08-8.646h26.688A5.555 5.555 0 0 0 90 59.162V5.552A5.555 5.555 0 0 0 84.454 0zM33.812 73.36l1.08-8.646h4.851l.476 1.906A4.922 4.922 0 0 0 45 70.357a4.922 4.922 0 0 0 4.78-3.737l.477-1.906h4.852l1.08 8.646H33.811zm8.65-8.646h5.077l-.316 1.266A2.288 2.288 0 0 1 45 67.717a2.288 2.288 0 0 1-2.223-1.737l-.316-1.266zm44.901-5.552a2.914 2.914 0 0 1-2.909 2.912H5.546a2.914 2.914 0 0 1-2.91-2.912V5.552a2.914 2.914 0 0 1 2.91-2.912h78.908a2.914 2.914 0 0 1 2.91 2.912v53.61z"/><path d="M74.687 6H7.313C6.588 6 6 6.586 6 7.31v50.38c0 .724.588 1.31 1.313 1.31h2.808c.725 0 1.313-.586 1.313-1.31 0-.722-.588-1.309-1.313-1.309H8.627V8.62h66.06c.725 0 1.313-.587 1.313-1.31C76 6.586 75.412 6 74.687 6zm8 0H79.88c-.726 0-1.314.586-1.314 1.31 0 .722.588 1.309 1.314 1.309h1.494V56.38h-66.06c-.726 0-1.314.587-1.314 1.31 0 .723.588 1.309 1.313 1.309h67.374c.725 0 1.313-.586 1.313-1.31V7.31A1.31 1.31 0 0 0 82.687 6z"/><path d="M62.722 20.066c-.236-.3-.59-.481-.972-.498l-30.784-1.392a1.24 1.24 0 0 0-.072-.001 2.699 2.699 0 0 0-1.089-1.457l-3.77-2.5a1.314 1.314 0 0 0-1.815.362 1.297 1.297 0 0 0 .363 1.805l3.77 2.5a.09.09 0 0 1 .037.05l4.802 16.713c.15.52.396.99.712 1.394l-1.757 3.494a2.663 2.663 0 0 0 .119 2.62c.18.29.409.538.672.736a4.041 4.041 0 0 0-.542 2.023c0 2.253 1.843 4.085 4.108 4.085 2.265 0 4.108-1.833 4.108-4.085 0-.522-.1-1.021-.281-1.481h11.936c-.18.46-.28.959-.28 1.481 0 2.253 1.842 4.085 4.107 4.085s4.108-1.833 4.108-4.085a4.04 4.04 0 0 0-.432-1.819c.265-.238.432-.581.432-.964 0-.719-.586-1.302-1.31-1.302H34.57c-.018 0-.05 0-.076-.042-.026-.043-.012-.07-.004-.087l1.619-3.22a4.131 4.131 0 0 0 1.513.102l18.396-2.152a5.482 5.482 0 0 0 4.757-4.366l2.2-10.942a1.297 1.297 0 0 0-.252-1.057zm-6.628 24.368c.82 0 1.489.665 1.489 1.481 0 .817-.668 1.482-1.49 1.482-.82 0-1.489-.665-1.489-1.482 0-.816.668-1.48 1.49-1.48zm-19.59 0c.82 0 1.489.665 1.489 1.481 0 .817-.668 1.482-1.49 1.482-.82 0-1.489-.665-1.489-1.482 0-.816.668-1.48 1.49-1.48zm-3.211-17.91l-1.64-5.71 5.233.236.908 5.474h-4.501zm4.022 9.473a1.483 1.483 0 0 1-1.606-1.064l-1.668-5.805h4.185l1.1 6.634-2.01.235zm7.674-.898l-3.06.358-1.05-6.33h4.11V35.1zm0-8.575h-4.541l-.888-5.353 5.43.246v5.107zm6.63 7.8l-4.011.469v-5.665h4.484l-.472 5.195zm.71-7.8h-4.721v-4.99l5.154.234-.433 4.756zm5.877 5.031a2.876 2.876 0 0 1-2.495 2.29l-1.434.167.445-4.884h3.972l-.488 2.427zm1.012-5.031h-4.26l.423-4.638 4.727.214-.89 4.424z"/></symbol><symbol viewBox="0 0 81 92" id="inst-icon_2" xmlns="http://www.w3.org/2000/svg"><path d="M40.666 0C22.984 0 8.6 14.385 8.6 32.068v36.444h2.68V32.068c0-16.205 13.183-29.388 29.388-29.388 16.204 0 29.388 13.183 29.388 29.388v36.444h2.68V32.068C72.734 14.385 58.348 0 40.665 0z"/><path d="M23.248 23.575v22.249c0 5.923 2.973 11.164 7.503 14.312v6.44L6.758 73.55a8.438 8.438 0 0 0-6.02 8.12v9.351h2.68V81.67a5.768 5.768 0 0 1 4.103-5.55l25.91-7.533V61.67c.666.305 1.35.565 2.048.782l.019.006c.11.035.22.067.332.1l.113.032c.092.026.183.05.275.074l.175.046a17.287 17.287 0 0 0 .91.204l.181.034.279.05.163.026.297.045.15.02c.104.014.208.027.312.038l.142.017.319.03.139.012.324.022.135.008c.113.006.227.01.34.014l.121.004a18.08 18.08 0 0 0 .923 0c.04 0 .08-.003.12-.004.114-.004.228-.008.341-.014l.135-.008.325-.022.139-.013c.106-.009.213-.018.318-.03.048-.004.095-.01.143-.016.104-.011.207-.024.31-.037l.151-.021c.1-.015.199-.029.298-.045l.163-.027c.093-.015.186-.032.278-.049.06-.01.12-.023.181-.034a16.78 16.78 0 0 0 1.36-.324l.114-.033c.11-.032.222-.065.332-.099l.019-.006a17.324 17.324 0 0 0 2.047-.782v5.91h2.68v-7.445c4.53-3.148 7.503-8.389 7.503-14.312v-6.766L23.248 23.575zm32.157 22.249c0 6.59-4.347 12.182-10.324 14.062-.029.01-.057.018-.085.026-.198.062-.399.119-.6.172-.024.005-.046.012-.07.018-.213.055-.43.104-.647.15l-.145.028c-.171.034-.344.065-.517.093-.059.01-.117.02-.176.028a13.6 13.6 0 0 1-.643.082l-.115.01a14.516 14.516 0 0 1-.745.052c-.222.01-.446.017-.671.017a15.04 15.04 0 0 1-1.417-.07c-.038-.003-.076-.005-.114-.01a15.3 15.3 0 0 1-.644-.081l-.176-.028a14.609 14.609 0 0 1-.517-.093l-.145-.028a14.75 14.75 0 0 1-.647-.15l-.069-.018a14.267 14.267 0 0 1-.685-.198c-5.977-1.88-10.325-7.473-10.325-14.062V27.698L55.405 40.8v5.025zM24.043 15.13l1.089-2.45 32.156 14.291-1.088 2.45zm.003 5.868l1.088-2.45L57.291 32.84l-1.089 2.45zm39.488 13.571h2.68v51.094h-2.68zm0 53.773h2.68v2.68h-2.68z"/><path d="M14.227 43.323h2.68v22.153h-2.68zm5.627 12.862h2.68v6.61h-2.68zm34.748 7.504h2.68v21.974h-2.68zm0 24.653h2.68v2.68h-2.68zM74.56 73.546l-3.953-1.149-.748 2.573 3.938 1.145a5.774 5.774 0 0 1 4.118 5.555v9.352h2.68V81.67c0-3.762-2.42-7.025-6.035-8.124z"/></symbol><symbol viewBox="0 0 91 82" id="inst-icon_3" xmlns="http://www.w3.org/2000/svg"><path d="M89.439 19.326a1.441 1.441 0 0 0-1.64 1.212L83.66 48.14h-9.997l-.208-4.805h.416a1.442 1.442 0 0 0 1.44-1.504l-.501-11.532a1.442 1.442 0 0 0-1.44-1.38H61.356v-5.052a4.332 4.332 0 0 0 2.883-4.076v-4.805c0-.797-.645-1.442-1.441-1.442h-5.766c-.796 0-1.442.645-1.442 1.442v4.805a4.331 4.331 0 0 0 2.883 4.076v5.053h-7.688V14.986a5.294 5.294 0 0 0-3.844-5.084v-8.37a1.441 1.441 0 1 0-2.882 0v8.37a5.294 5.294 0 0 0-3.844 5.084V28.92h-7.688v-5.053a4.332 4.332 0 0 0 2.883-4.076v-4.805c0-.797-.646-1.442-1.442-1.442h-5.766c-.796 0-1.441.645-1.441 1.442v4.805a4.331 4.331 0 0 0 2.883 4.076v5.053H17.63c-.772 0-1.406.608-1.44 1.379l-.5 11.531a1.442 1.442 0 0 0 1.44 1.504h.417l-.21 4.805H7.342L3.2 20.538a1.44 1.44 0 1 0-2.851.427L4.658 49.69v30.644a1.441 1.441 0 1 0 2.883 0V56.788h9.42l-.77 17.716a1.442 1.442 0 0 0 1.44 1.504c1.781 0 3.168-.24 4.325-.593v4.918a1.441 1.441 0 1 0 2.883 0v-6.176l.456-.25c1.409-.777 2.66-1.465 4.83-1.675v8.1a1.441 1.441 0 1 0 2.882 0v-8.1c2.17.21 3.421.898 4.83 1.675 1.785.985 3.809 2.101 7.664 2.101 3.854 0 5.878-1.116 7.663-2.101 1.408-.777 2.66-1.464 4.828-1.675v8.1a1.441 1.441 0 1 0 2.883 0v-8.1c2.17.21 3.422.898 4.83 1.675l.456.25v6.176a1.441 1.441 0 1 0 2.883 0v-4.918c1.156.353 2.543.593 4.325.593a1.442 1.442 0 0 0 1.44-1.504l-.77-17.715h9.42v23.544a1.441 1.441 0 1 0 2.883 0V49.689l4.308-28.724a1.441 1.441 0 0 0-1.211-1.639zm-72.352 34.58H7.54v-2.883h9.671l-.125 2.883zm41.386-37.479h2.883v3.364c0 .795-.646 1.441-1.441 1.441a1.443 1.443 0 0 1-1.442-1.441v-3.364zm-15.375-1.441a2.405 2.405 0 0 1 2.402-2.403 2.405 2.405 0 0 1 2.402 2.403V28.92h-4.804V14.986zm-13.454 1.441h2.883v3.364c0 .795-.647 1.441-1.442 1.441a1.443 1.443 0 0 1-1.441-1.441v-3.364zm36.533 26.908h4.391l1.292 29.718c-2.13-.218-3.367-.9-4.762-1.67-1.785-.985-3.808-2.102-7.663-2.102-3.856 0-5.879 1.117-7.664 2.102-1.695.935-3.158 1.742-6.27 1.742-3.113 0-4.577-.807-6.271-1.742-1.786-.985-3.81-2.102-7.664-2.102-3.855 0-5.879 1.117-7.664 2.102-.402.221-.79.435-1.191.633a9.87 9.87 0 0 1-3.571 1.037l1.292-29.718H60.41a1.441 1.441 0 1 0 0-2.883H18.636l.376-8.649h52.976l.377 8.649h-6.188a1.441 1.441 0 1 0 0 2.883zm17.282 10.57h-9.546l-.125-2.882h9.671v2.883z"/></symbol><symbol viewBox="0 0 81 78" id="inst-icon_4" xmlns="http://www.w3.org/2000/svg"><path d="M78.292 13C75.332 5.719 69.085.907 61.583.129A24.347 24.347 0 0 0 59.09 0C51.606 0 44.614 3.48 40 9.405 35.386 3.48 28.394 0 20.91 0c-.833 0-1.673.044-2.493.128-7.502.777-13.749 5.59-16.71 12.873C-1.433 20.73-.18 29.49 4.98 35.865l7.76 9.586a1.472 1.472 0 0 0 2.088.208 1.515 1.515 0 0 0 .205-2.113l-7.76-9.586C2.806 28.443 1.724 20.85 4.45 14.145 6.988 7.9 12.323 3.778 18.721 3.115a21.544 21.544 0 0 1 2.191-.112c7.19 0 13.863 3.66 17.854 9.791.273.422.738.675 1.236.675.497 0 .962-.253 1.236-.675C45.228 6.663 51.9 3.003 59.09 3.003c.732 0 1.47.037 2.19.112 6.4.663 11.733 4.786 14.272 11.03 2.726 6.705 1.644 14.298-2.822 19.815l-5.168 6.383a1.515 1.515 0 0 0 .206 2.113 1.467 1.467 0 0 0 2.084-.208l5.168-6.383c5.16-6.374 6.414-15.135 3.271-22.864zm-22.84 46.333a1.523 1.523 0 0 0-2.112.203L41 74.225 28.66 59.539a1.523 1.523 0 0 0-2.111-.204 1.442 1.442 0 0 0-.208 2.062L39.84 77.464c.284.339.71.536 1.16.536.448 0 .874-.197 1.157-.536L55.66 61.395a1.44 1.44 0 0 0-.207-2.062z"/><path d="M60.536 47H22.464c-.808 0-1.464.647-1.464 1.444v10.112c0 .797.656 1.444 1.464 1.444h38.072c.809 0 1.464-.646 1.464-1.444V48.444c0-.797-.656-1.444-1.464-1.444zm-1.464 10.111H23.929V49.89h35.143v7.222zM7.6 47H3.4c-.773 0-1.4.647-1.4 1.444v10.112C2 59.353 2.627 60 3.4 60h4.2c.774 0 1.4-.646 1.4-1.444V48.444C9 47.647 8.373 47 7.6 47zM6.2 57.111H4.8V49.89h1.4v7.222z"/><path d="M20.906 37h-3.812C15.388 37 14 38.436 14 40.202v27.596C14 69.564 15.388 71 17.094 71h3.812C22.612 71 24 69.564 24 67.798V40.202C24 38.436 22.612 37 20.906 37zm.237 30.798a.242.242 0 0 1-.238.246h-3.811a.242.242 0 0 1-.238-.246V40.202c0-.135.107-.246.238-.246h3.811c.131 0 .238.11.238.246v27.596z"/><path d="M13.172 43H8.828C7.268 43 6 44.302 6 45.903v16.194C6 63.697 7.269 65 8.828 65h4.344C14.732 65 16 63.698 16 62.097V45.903c0-1.6-1.269-2.903-2.828-2.903zm-.03 19.068l-4.285.029-.03-16.164 4.316-.03v16.165zM79.6 47h-4.2c-.773 0-1.4.647-1.4 1.444v10.112c0 .797.627 1.444 1.4 1.444h4.2c.774 0 1.4-.646 1.4-1.444V48.444c0-.797-.627-1.444-1.4-1.444zm-1.4 10.111h-1.4V49.89h1.4v7.222zM66.906 37h-3.812C61.388 37 60 38.436 60 40.202v27.596C60 69.564 61.388 71 63.094 71h3.812C68.612 71 70 69.564 70 67.798V40.202C70 38.436 68.612 37 66.906 37zm.237 30.798a.242.242 0 0 1-.238.246h-3.811a.242.242 0 0 1-.238-.246V40.202c0-.135.107-.246.238-.246h3.811c.131 0 .238.11.238.246v27.596z"/><path d="M74.172 43h-4.344C68.268 43 67 44.302 67 45.903v16.194c0 1.6 1.269 2.903 2.828 2.903h4.344C75.732 65 77 63.698 77 62.097V45.903c0-1.6-1.269-2.903-2.828-2.903zm-4.315 19.066l-.03-16.134 4.316-.03.029 16.164h-4.315zM41.5 47c-.828 0-1.5.647-1.5 1.444v10.112c0 .797.672 1.444 1.5 1.444.829 0 1.5-.646 1.5-1.444V48.444c0-.797-.672-1.444-1.5-1.444zm-7 0c-.828 0-1.5.647-1.5 1.444v10.112c0 .797.672 1.444 1.5 1.444.829 0 1.5-.646 1.5-1.444V48.444c0-.797-.672-1.444-1.5-1.444zm15 0c-.828 0-1.5.647-1.5 1.444v10.112c0 .797.672 1.444 1.5 1.444.829 0 1.5-.646 1.5-1.444V48.444c0-.797-.672-1.444-1.5-1.444z"/></symbol><symbol viewBox="0 0 100 71" id="inst-icon_5" xmlns="http://www.w3.org/2000/svg"><path d="M67.539 3.848c-1.264-.62-2.108-1.473-2.581-2.61a1.889 1.889 0 0 0-1.742-1.16c-.724 0-1.388.416-1.7 1.07-.594 1.243-1.507 2.155-2.793 2.786a1.882 1.882 0 0 0-1.052 1.797c.042.76.532 1.417 1.248 1.674 1.282.46 2.124 1.23 2.575 2.353a1.868 1.868 0 0 0 1.79 1.18 1.87 1.87 0 0 0 1.738-1.256c.447-1.266 1.153-2.006 2.221-2.331a1.89 1.89 0 0 0 1.342-1.666 1.867 1.867 0 0 0-1.046-1.837zm-4.361 3.031a6.689 6.689 0 0 0-1.492-1.354 8.533 8.533 0 0 0 1.499-1.51 7.74 7.74 0 0 0 1.393 1.425 6.099 6.099 0 0 0-1.4 1.44zm33.128 52.155c-1.264-.62-2.108-1.473-2.581-2.61a1.889 1.889 0 0 0-3.443-.09c-.593 1.243-1.507 2.155-2.793 2.787a1.887 1.887 0 0 0 .197 3.47c1.282.46 2.124 1.23 2.575 2.353a1.868 1.868 0 0 0 1.789 1.18 1.87 1.87 0 0 0 1.74-1.256c.446-1.266 1.151-2.006 2.22-2.331a1.89 1.89 0 0 0 1.342-1.666 1.867 1.867 0 0 0-1.046-1.837zm-4.36 3.031a6.689 6.689 0 0 0-1.493-1.354 8.547 8.547 0 0 0 1.499-1.511 7.74 7.74 0 0 0 1.393 1.426 6.104 6.104 0 0 0-1.4 1.44zm-80.572 1.861c-1.264-.619-2.108-1.472-2.58-2.61a1.888 1.888 0 0 0-3.443-.089c-.593 1.243-1.507 2.154-2.793 2.786a1.887 1.887 0 0 0 .197 3.47c1.282.461 2.124 1.23 2.575 2.353a1.868 1.868 0 0 0 1.789 1.18 1.87 1.87 0 0 0 1.739-1.256c.447-1.265 1.152-2.006 2.22-2.33a1.89 1.89 0 0 0 1.343-1.667 1.867 1.867 0 0 0-1.047-1.837zm-4.36 3.032a6.689 6.689 0 0 0-1.492-1.354 8.547 8.547 0 0 0 1.498-1.512 7.74 7.74 0 0 0 1.393 1.426 6.107 6.107 0 0 0-1.4 1.44zm91.421-42.49H88.6a1.468 1.468 0 1 0 0 2.936h9.834a1.468 1.468 0 1 0 0-2.936z"/><path d="M56.8 40.417c0 .81.657 1.468 1.468 1.468h19.13l.01.02a2.07 2.07 0 0 0 1.982 1.307 2.072 2.072 0 0 0 1.903-1.327h17.239a1.468 1.468 0 1 0 0-2.935h-15.37a5.275 5.275 0 0 1 1.934-1.052 2.1 2.1 0 0 0 1.092-3.254h12.344a1.468 1.468 0 1 0 0-2.935H82.408a7.668 7.668 0 0 1-1.171-1.953 2.093 2.093 0 0 0-3.817-.1c-.363.76-.8 1.442-1.316 2.053h-40.76l4.305-4.305H82.73a1.468 1.468 0 1 0 0-2.936H42.585l4.305-4.305h51.544a1.468 1.468 0 1 0 0-2.936H49.826l3.848-3.849c.533-.533.83-1.27.812-2.024a2.798 2.798 0 0 0-.905-1.992A31.913 31.913 0 0 0 31.996.984c-8.54 0-16.559 3.294-22.578 9.274C3.4 16.238.054 24.235.001 32.775c-.055 8.587 3.248 16.67 9.299 22.759 6.051 6.09 14.112 9.443 22.696 9.443a31.91 31.91 0 0 0 21.581-8.374c.56-.512.892-1.24.909-1.997a2.749 2.749 0 0 0-.811-2.022l-3.458-3.458h48.217a1.468 1.468 0 1 0 0-2.936H47.281l-4.305-4.305h9.421a1.468 1.468 0 1 0 0-2.936H40.041l-4.306-4.305h36.538a2.094 2.094 0 0 0 .873 3.346 8.315 8.315 0 0 1 1.907.96H58.268c-.81 0-1.468.657-1.468 1.467zm-5.319 14.125a28.982 28.982 0 0 1-19.485 7.5c-7.797 0-15.118-3.046-20.614-8.577-5.495-5.53-8.495-12.872-8.446-20.672.049-7.759 3.086-15.022 8.552-20.453 5.465-5.43 12.748-8.42 20.508-8.42a28.983 28.983 0 0 1 19.485 7.5L30.958 31.943a1.468 1.468 0 0 0 0 2.076l20.523 20.523zm27.79-22.192c.823 1.35 1.938 2.496 3.335 3.423-1.39.76-2.498 1.897-3.316 3.397-.871-1.36-2.066-2.446-3.573-3.247a12.135 12.135 0 0 0 3.555-3.573z"/><path d="M30.822 10.182a5.78 5.78 0 0 0-5.773 5.773 5.78 5.78 0 0 0 5.773 5.773 5.78 5.78 0 0 0 5.773-5.773 5.78 5.78 0 0 0-5.773-5.773zm0 8.611a2.84 2.84 0 0 1-2.837-2.838 2.84 2.84 0 0 1 2.837-2.837 2.84 2.84 0 0 1 2.838 2.837 2.84 2.84 0 0 1-2.838 2.838z"/></symbol><symbol viewBox="0 0 91 90" id="inst-icon_6" xmlns="http://www.w3.org/2000/svg"><path d="M27.538 16.156a3.01 3.01 0 0 1-4.242 0l-2.121 2.116a5.987 5.987 0 0 0 4.242 1.752 5.987 5.987 0 0 0 4.242-1.752l-2.121-2.116z"/><path d="M90.002 19.712a1.508 1.508 0 0 0-1.407-.14L63.677 29.81l-9.92-4.242a1.512 1.512 0 0 0-1.415.126 1.496 1.496 0 0 0-.675 1.25v28.994l-6.693-7.515a10.522 10.522 0 0 0-7.848-3.517h-7.96V43.41c3.31 0 6-2.686 6-5.988 0-.826-.671-1.497-1.5-1.497a3 3 0 0 1-3-2.994h3c.829 0 1.5-.67 1.5-1.496V28.44h3a1.499 1.499 0 0 0 1.456-1.86l-4.083-16.302c4.066-.86 7.128-4.47 7.128-8.782a1.5 1.5 0 0 0-1.5-1.497h-28.5c-4.136 0-7.5 3.358-7.5 7.484v12.25c-1.742.62-3 2.267-3 4.216a4.5 4.5 0 0 0 4.5 4.49h1.5v8.982c0 3.302 2.69 5.988 6 5.988v1.496h-3c-5.79 0-10.5 4.7-10.5 10.479v32.931a1.5 1.5 0 0 0 1.5 1.497h40.5c.828 0 1.5-.67 1.5-1.497V68.163l2.824 3.02c3.008 3.217 7.425 4.209 11.526 2.6 4.101-1.615 6.65-5.35 6.65-9.75V44.149l23.428 9.626a1.507 1.507 0 0 0 1.407-.14 1.5 1.5 0 0 0 .665-1.243V20.956c0-.498-.25-.965-.665-1.244zM31.24 47.9l-2.655 5.3-2.963-1.972-1.423-1.42L28.02 47.9h3.219zm-4.008 7.998l-1.76 3.513-.715-4.993.1-.1 2.375 1.58zm-5.565-8.174l-4.5-2.246V43.41h9v2.068l-4.5 2.246zm.879 4.667l-.88.877-.878-.877.879-.877.879.877zM8.166 25.447h-1.5a1.5 1.5 0 0 1-1.5-1.497 1.5 1.5 0 0 1 1.5-1.497h1.5v2.994zm1.5-5.988h-1.5V7.484a4.5 4.5 0 0 1 4.5-4.49h26.812a6.012 6.012 0 0 1-5.811 4.49h-16.5a1.5 1.5 0 0 0-1.5 1.497v4.49c0 3.303-2.691 5.988-6 5.988zm1.5 17.963V22.329c.034-.006.062-.02.095-.024.46-.082.91-.2 1.343-.352.075-.025.147-.054.22-.08.432-.164.85-.354 1.25-.577.054-.03.103-.064.156-.094a9.084 9.084 0 0 0 1.192-.83 9.013 9.013 0 0 0 1.016-1c.033-.037.069-.073.102-.112a9.04 9.04 0 0 0 .8-1.115l.118-.194a8.739 8.739 0 0 0 .67-1.446 8.84 8.84 0 0 0 .375-1.346c.012-.058.017-.12.027-.18a9.07 9.07 0 0 0 .137-1.507v-2.994h13.828l3.75 14.969h-2.578c-.828 0-1.5.67-1.5 1.497v2.994h-3c-.828 0-1.5.67-1.5 1.497v1.496c0 2.689 1.785 4.969 4.234 5.723a3.004 3.004 0 0 1-2.734 1.762h-15a3 3 0 0 1-3-2.994zM15.314 47.9l3.822 1.907-1.424 1.42L14.75 53.2l-2.656-5.3h3.219zm3.264 6.518l-.716 4.993-1.76-3.513 2.375-1.58.1.1zm1.59 32.401h-16.5V55.385c0-3.344 2.224-6.15 5.262-7.106l11.238 22.428v16.112zm1.5-19.813l-1.45-2.892 1.048-7.31c.132.037.265.077.402.077.136 0 .27-.04.402-.077l1.047 7.31-1.45 2.892zm40.5-2.972c0 3.757-2.454 6.059-4.75 6.963-2.297.904-5.666.89-8.234-1.856l-5.421-5.796a1.502 1.502 0 0 0-1.647-.371 1.496 1.496 0 0 0-.948 1.392v22.453h-18V70.707L34.594 47.9h2.532c2.14 0 4.183.916 5.605 2.512l9.315 10.457a1.503 1.503 0 0 0 1.655.404c.582-.22.966-.777.966-1.398V49.397h7.5v14.637zm0-22.121v4.49h-7.5V43.41h1.5c.688 0 1.288-.467 1.455-1.134l1.216-4.854h3.329v4.49zm0-7.485h-4.5c-.689 0-1.289.467-1.455 1.133l-1.217 4.855h-.328V29.215l7.5 3.206v2.007zm25.5 15.728l-22.5-9.246v-8.473l22.5-9.246v26.965z"/><path d="M72.667 4.491h3v11.975h-3zm6.339 11.024l7.5-9 2.3 1.917-7.5 9zM59.52 8.444l2.305-1.92 7.485 8.98-2.305 1.921zM29.167 65.863h9v2.994h-9z"/></symbol><symbol viewBox="0 0 91 79" id="inst-icon_7" xmlns="http://www.w3.org/2000/svg"><path d="M55.822 74.938a64.529 64.529 0 0 1-10.584.847 52.828 52.828 0 0 1-21.031-3.871l-1.292 2.815a55.193 55.193 0 0 0 22.323 4.153 67.666 67.666 0 0 0 11.094-.89l-.51-3.054zm-37.247-6.986L16.16 69.89a14.77 14.77 0 0 0 3.456 3.033l1.703-2.588a11.777 11.777 0 0 1-2.744-2.383zM89.98 24.005a1.548 1.548 0 0 0-.695-.695v-.008L45.931 1.625a1.548 1.548 0 0 0-1.385 0L1.192 23.302a1.548 1.548 0 0 0 0 2.772l16.176 8.087v24.592c0 7.814 12.243 13.935 27.87 13.935 15.628 0 27.871-6.12 27.871-13.935V34.16l7.742-3.87v21.005a4.625 4.625 0 0 0-1.74 7.636l-2.787 6.988a1.548 1.548 0 0 0 1.43 2.123h9.29a1.548 1.548 0 0 0 1.44-2.123l-2.788-6.988a4.625 4.625 0 0 0-1.748-7.636V28.742l5.337-2.66a1.548 1.548 0 0 0 .695-2.077zM70.012 58.753c0 5.235-9.954 10.838-24.774 10.838s-24.774-5.603-24.774-10.838v-1.28c4.588 4.474 13.844 7.473 24.774 7.473 10.93 0 20.187-3 24.774-7.472v1.279zm0-7.742c0 5.235-9.954 10.838-24.774 10.838s-24.774-5.603-24.774-10.838V35.709l24.082 12.05c.436.218.949.218 1.384 0l24.082-12.05v15.302zM82.4 54.107a1.548 1.548 0 1 1 0 3.097 1.548 1.548 0 0 1 0-3.097zm2.358 10.84H80.04l1.879-4.694c.154.015.31.048.48.048.17 0 .32-.033.48-.048l1.878 4.693zm-2.65-38.748L52.59 23.25c-.97-1.895-3.79-3.206-7.352-3.206-4.414 0-7.742 1.997-7.742 4.645 0 2.648 3.328 4.645 7.742 4.645 3.424 0 6.172-1.21 7.244-2.984l24.438 2.444-31.682 15.841L5.346 24.688 45.238 4.742l39.893 19.946-3.023 1.511zm-32.225-1.51c0 .385-1.647 1.547-4.645 1.547-2.997 0-4.645-1.162-4.645-1.548 0-.385 1.648-1.548 4.645-1.548 2.998 0 4.645 1.163 4.645 1.548zm30.274-8.687l1.385-2.77 3.097 1.549-1.385 2.77zM53.835 2.846L55.22.076 78.446 11.69l-1.385 2.77z"/></symbol><symbol viewBox="0 0 80 83" id="inst-icon_8" xmlns="http://www.w3.org/2000/svg"><path d="M77.323 79.787v-62.5H72.6L61.963 5.32h-7.246V0H2.854v79.787H.194v2.66h79.79v-2.66h-2.66zM60.77 7.98l8.272 9.308H54.716v-3.99h-2.66v3.99H37.732l8.275-9.308H60.77zm-23.34 3.99V9.31h3.834L38.9 11.97h-1.47zm-7.98 67.818H14.823V59.84H29.45v19.947zm0-35.904h-5.319v-2.66h5.32v2.66zm0-10.638h-5.319v-2.66h5.32v2.66zm0-10.638h-5.319v-2.66h5.32v2.66zm-7.979-5.32v7.98h7.98v2.659h-7.98v7.978h7.98v2.66h-7.98v7.979h7.98v5.319H8.173v2.66H29.45v2.659H8.174v2.66h3.99v19.947h-6.65V2.66h46.543v2.66H44.81l-1.182 1.33h-8.86v7.978h1.768l-2.364 2.66H21.47zm21.277 62.5H37.43V71.81a2.662 2.662 0 0 1 2.66-2.66 2.662 2.662 0 0 1 2.66 2.66v7.978zm13.298 0h-5.319V71.81a2.662 2.662 0 0 1 2.66-2.66 2.662 2.662 0 0 1 2.66 2.66v7.978zm13.298 0h-5.319V71.81a2.662 2.662 0 0 1 2.66-2.66 2.662 2.662 0 0 1 2.66 2.66v7.978zm5.32 0h-2.66V71.81a5.324 5.324 0 0 0-5.32-5.32 5.324 5.324 0 0 0-5.319 5.32v7.978h-2.66V71.81a5.324 5.324 0 0 0-5.318-5.32 5.324 5.324 0 0 0-5.32 5.32v7.978h-2.66V71.81a5.324 5.324 0 0 0-5.318-5.32 5.324 5.324 0 0 0-5.32 5.32v7.978H32.11v-59.84h42.553v59.84z"/><path d="M45.408 54.521H34.77v7.98h10.638v-7.98zm-2.66 5.32H37.43v-2.66h5.32v2.66zm15.958-5.32H48.068v7.98h10.638v-7.98zm-2.66 5.32h-5.319v-2.66h5.32v2.66zm15.958-5.32H61.365v7.98h10.639v-7.98zm-2.66 5.32h-5.319v-2.66h5.32v2.66zM45.408 43.883H34.77v7.979h10.638v-7.979zm-2.66 5.32H37.43v-2.66h5.32v2.66zm15.958-5.32H48.068v7.979h10.638v-7.979zm-2.66 5.32h-5.319v-2.66h5.32v2.66zm15.958-5.32H61.365v7.979h10.639v-7.979zm-2.66 5.32h-5.319v-2.66h5.32v2.66zM45.408 33.245H34.77v7.979h10.638v-7.98zm-2.66 5.319H37.43v-2.66h5.32v2.66zm15.958-5.319H48.068v7.979h10.638v-7.98zm-2.66 5.319h-5.319v-2.66h5.32v2.66zm15.958-5.319H61.365v7.979h10.639v-7.98zm-2.66 5.319h-5.319v-2.66h5.32v2.66zM45.408 22.607H34.77v7.978h10.638v-7.978zm-2.66 5.319H37.43v-2.66h5.32v2.66zm15.958-5.319H48.068v7.978h10.638v-7.978zm-2.66 5.319h-5.319v-2.66h5.32v2.66zm15.958-5.319H61.365v7.978h10.639v-7.978zm-2.66 5.319h-5.319v-2.66h5.32v2.66zM8.174 46.543h10.638v-7.979H8.174v7.979zm2.66-5.32h5.318v2.66h-5.319v-2.66zm-2.66-5.319h10.638v-7.978H8.174v7.978zm2.66-5.319h5.318v2.66h-5.319v-2.66zm-2.66-5.319h10.638v-7.979H8.174v7.98zm2.66-5.319h5.318v2.66h-5.319v-2.66zm-2.66-5.319h10.638V6.649H8.174v7.979zm2.66-5.32h5.318v2.66h-5.319v-2.66zm10.637 5.32H32.11V6.649H21.47v7.979zm2.66-5.32h5.32v2.66h-5.32v-2.66z"/></symbol><symbol viewBox="0 0 90 91" id="task-icon_1" xmlns="http://www.w3.org/2000/svg"><path d="M73.9 44.367c-1.596-2.395-2.67-5.6-2.67-7.977 0-2.695-1.85-4.965-4.372-5.608v-3.096c0-.805-.653-1.458-1.458-1.458h-3.06c-.677-3.322-3.622-5.83-7.14-5.83-4.457 0-7.783-1.333-8.9-3.567-.494-.987-2.113-.987-2.607 0-1.117 2.234-4.443 3.567-8.899 3.567-3.52 0-6.464 2.508-7.14 5.83H24.59c-.805 0-1.458.653-1.458 1.458v3.09a5.8 5.8 0 0 0-4.372 5.614c0 2.376-1.074 5.582-2.67 7.977a1.456 1.456 0 0 0 0 1.617c1.597 2.395 2.67 5.6 2.67 7.977 0 2.695 1.85 4.965 4.372 5.608v3.096c0 .805.653 1.458 1.458 1.458h3.061c.677 3.322 3.622 5.83 7.141 5.83 5.056 0 7.744.15 8.82 3.376a1.458 1.458 0 0 0 2.765 0c1.076-3.226 3.763-3.376 8.82-3.376 3.519 0 6.464-2.508 7.14-5.83H65.4c.805 0 1.458-.653 1.458-1.458v-3.09a5.8 5.8 0 0 0 4.372-5.614c0-2.376 1.074-5.582 2.67-7.977a1.456 1.456 0 0 0 0-1.617zm-5.585 9.594c0 1.585-1.289 2.874-2.915 2.874-.804 0-1.457.653-1.457 1.458v2.915h-2.915c-.805 0-1.457.652-1.457 1.457a4.377 4.377 0 0 1-4.373 4.373c-3.879 0-7.863 0-10.202 2.805-2.34-2.805-6.324-2.805-10.203-2.805a4.377 4.377 0 0 1-4.372-4.373c0-.805-.653-1.457-1.458-1.457h-2.915v-2.915c0-.805-.693-1.458-1.498-1.458a2.878 2.878 0 0 1-2.874-2.874c0-2.68-1.024-6.035-2.652-8.786 1.628-2.75 2.652-6.105 2.652-8.785 0-1.585 1.29-2.874 2.915-2.874.805 0 1.457-.653 1.457-1.458v-2.915h2.915c.805 0 1.458-.653 1.458-1.457a4.377 4.377 0 0 1 4.372-4.373c4.52 0 8.103-1.2 10.203-3.356 2.1 2.155 5.682 3.356 10.202 3.356a4.377 4.377 0 0 1 4.373 4.373c0 .804.652 1.457 1.457 1.457h2.915v2.915c0 .805.693 1.458 1.498 1.458a2.878 2.878 0 0 1 2.874 2.874c0 2.68 1.025 6.035 2.652 8.785-1.627 2.751-2.652 6.106-2.652 8.786zM43.538 8.738h2.915v4.372h-2.915zM80.4 7.704l5.83-5.83 2.061 2.061-5.83 5.83zm2.49 36.014h5.83v2.915h-5.83zM43.538 1.451h2.915v4.372h-2.915zM77.06 43.718h2.915v2.915H77.06zm-2.998-12.16l2.693-1.116 1.116 2.693-2.693 1.116zm-3.302-14.21l4.123-4.122 2.06 2.06-4.122 4.123zm-4.123 4.128l2.061-2.061 2.061 2.061-2.06 2.061zm-10.717-6.48l1.116-2.693 2.693 1.116-1.116 2.693zm23.527 14.331l9.424-3.906 1.116 2.693-9.425 3.906zM58.15 9.61L62.054.185l2.693 1.116-3.906 9.425zM1.698 3.94l2.06-2.062 5.831 5.83L7.528 9.77zm-.427 39.778h5.83v2.915h-5.83zm8.745 0h2.915v2.915h-2.915zm2.108-10.586l1.115-2.693 2.693 1.115-1.115 2.694zm.929-17.844l2.061-2.061 4.123 4.122-2.062 2.061zm6.178 6.183l2.061-2.061 2.062 2.061-2.062 2.061zm11.034-8.056l2.693-1.116 1.116 2.693-2.693 1.116zM.003 28.117l1.115-2.693 9.427 3.904-1.116 2.693zm25.241-26.82L27.937.182l3.904 9.426-2.693 1.115zM43.538 77.24h2.915v4.372h-2.915zM80.4 82.642l2.061-2.062 5.83 5.83-2.061 2.062zm-36.862 1.886h2.915V88.9h-2.915zm30.525-25.742l1.115-2.693 2.693 1.116-1.115 2.693zM70.76 73.001l2.06-2.06 4.123 4.122-2.06 2.06zm-4.128-4.127l2.06-2.061 2.062 2.061-2.061 2.061zM55.92 75.358l2.692-1.116 1.116 2.693-2.693 1.116zm23.527-14.325l1.115-2.693 9.427 3.904-1.116 2.693zM58.154 80.75l2.693-1.116 3.904 9.426-2.693 1.116zM1.705 86.411l5.83-5.83 2.061 2.061-5.83 5.83zm10.416-29.196l2.693-1.116 1.116 2.693-2.693 1.116zm.931 17.848l4.123-4.122L19.236 73l-4.122 4.123zm6.175-6.191l2.06-2.062 2.062 2.062-2.061 2.06zm11.037 8.067l1.115-2.693 2.693 1.116-1.116 2.693zM.003 62.235l9.424-3.906 1.116 2.693-9.425 3.906zM25.235 89.05l3.905-9.425 2.693 1.116-3.905 9.425z"/><path d="M54.305 45.175l4.863-6.642a1.46 1.46 0 0 0 .086-1.59 1.465 1.465 0 0 0-1.42-.72l-8.184.89-3.32-7.53a1.456 1.456 0 0 0-2.668 0l-3.32 7.53-8.185-.89a1.471 1.471 0 0 0-1.42.72 1.46 1.46 0 0 0 .087 1.59l4.862 6.642-4.862 6.642a1.46 1.46 0 0 0 1.333 2.31l8.184-.89 3.321 7.532a1.456 1.456 0 0 0 2.667 0l3.32-7.532 8.185.89a1.46 1.46 0 0 0 1.334-2.31l-4.863-6.642zm-5.4 5.049a1.461 1.461 0 0 0-1.492.861l-2.418 5.484-2.417-5.484a1.457 1.457 0 0 0-1.491-.86l-5.959.648 3.54-4.836a1.458 1.458 0 0 0 0-1.722l-3.54-4.836 5.959.648a1.472 1.472 0 0 0 1.491-.86l2.418-5.484 2.417 5.483c.257.582.869.927 1.491.861l5.959-.648-3.54 4.836a1.458 1.458 0 0 0 0 1.722l3.54 4.836-5.959-.649z"/></symbol><symbol viewBox="0 0 90 90" id="task-icon_2" xmlns="http://www.w3.org/2000/svg"><path d="M30 7.5h30v3H30zm44.25 48.75A5.256 5.256 0 0 0 69 51h-3V30h-3v21h-3.75A5.256 5.256 0 0 0 54 56.25c0 1.47.61 2.796 1.587 3.75A5.229 5.229 0 0 0 54 63.75c0 1.011.3 1.948.799 2.75-1.795.836-3.049 2.644-3.049 4.75 0 .808.199 1.565.527 2.25H40.5c0-4.586-2.298-8.645-5.804-11.086C38.086 61.122 40.5 57.838 40.5 54a1.5 1.5 0 0 0-1.5-1.5H27v-15h-3v15a4.505 4.505 0 0 0-4.5 4.5v33h3V57c0-.827.672-1.5 1.5-1.5h13.31A6.01 6.01 0 0 1 31.5 60H27a1.5 1.5 0 1 0 0 3c5.79 0 10.5 4.71 10.5 10.5V75c0 .828.67 1.5 1.5 1.5h8.777a5.189 5.189 0 0 0-.527 2.25A5.256 5.256 0 0 0 52.5 84v6h3v-6h6.75a5.256 5.256 0 0 0 5.25-5.25 5.19 5.19 0 0 0-.538-2.271C69.756 76.365 72 74.072 72 71.25c0-1.011-.3-1.948-.799-2.75 1.795-.836 3.049-2.644 3.049-4.75 0-1.47-.61-2.796-1.587-3.75a5.229 5.229 0 0 0 1.587-3.75zM62.25 81H52.5c-1.24 0-2.25-1.01-2.25-2.25s1.01-2.25 2.25-2.25h9.75c1.24 0 2.25 1.01 2.25 2.25S63.49 81 62.25 81zm4.5-7.5H57c-1.24 0-2.25-1.01-2.25-2.25S55.76 69 57 69h9.75c1.24 0 2.25 1.01 2.25 2.25s-1.01 2.25-2.25 2.25zM69 66h-9.75C58.01 66 57 64.99 57 63.75s1.01-2.25 2.25-2.25H69c1.24 0 2.25 1.01 2.25 2.25S70.24 66 69 66zm0-7.5h-9.75c-1.24 0-2.25-1.01-2.25-2.25S58.01 54 59.25 54H69c1.24 0 2.25 1.01 2.25 2.25S70.24 58.5 69 58.5zM22.496 19.093a1.499 1.499 0 0 0-.59-1.089l-1.56-1.183c-.374-1.891-2.034-3.321-4.019-3.321-2.24 0-4.066 1.82-4.096 4.07a8.707 8.707 0 0 1-3.369-1.36l-.523-.353A1.498 1.498 0 0 0 6 17.1v1.23c0 1.808.545 3.532 1.556 4.98l-1.122 1.136A1.499 1.499 0 0 0 7.5 27h7.269c2.899 0 5.295-2.21 5.617-5.046l1.68-1.7a1.5 1.5 0 0 0 .43-1.161zm-4.64 1.153c-.278.28-.433.66-.433 1.054 0 1.489-1.191 2.7-2.655 2.7h-3.815a1.502 1.502 0 0 0-.31-1.654 5.737 5.737 0 0 1-1.454-2.563 11.68 11.68 0 0 0 4.543.917 1.5 1.5 0 0 0 1.5-1.5v-1.575c0-.62.492-1.125 1.095-1.125.604 0 1.096.505 1.096 1.125 0 .47.22.912.593 1.195l.715.542-.875.884z"/><path d="M49.5 25.5v-3H45a1.5 1.5 0 0 0-1.5 1.5v4.5h-3v3h3v6h3v-6h3v-3h-3v-3h3z"/><path d="M54 16.5H36a4.505 4.505 0 0 0-4.5 4.5v18c0 2.481 2.019 4.5 4.5 4.5h18c2.481 0 4.5-2.019 4.5-4.5V21c0-2.481-2.019-4.5-4.5-4.5zM55.5 39c0 .827-.672 1.5-1.5 1.5H36c-.828 0-1.5-.673-1.5-1.5V21c0-.827.672-1.5 1.5-1.5h18c.828 0 1.5.673 1.5 1.5v18zm-33-31.5h-18A4.505 4.505 0 0 0 0 12v18c0 2.481 2.019 4.5 4.5 4.5h18c2.481 0 4.5-2.019 4.5-4.5V12c0-2.481-2.019-4.5-4.5-4.5zM24 30c0 .827-.672 1.5-1.5 1.5h-18c-.828 0-1.5-.673-1.5-1.5V12c0-.827.672-1.5 1.5-1.5h18c.828 0 1.5.673 1.5 1.5v18zM85.5 0h-18A4.505 4.505 0 0 0 63 4.5v18c0 2.481 2.019 4.5 4.5 4.5h18c2.481 0 4.5-2.019 4.5-4.5v-18C90 2.019 87.981 0 85.5 0zM87 22.5c0 .827-.672 1.5-1.5 1.5h-18c-.828 0-1.5-.673-1.5-1.5V15h3.152c.697 3.419 3.726 6 7.348 6s6.651-2.581 7.348-6H87v7.5zm-15-9c0-2.481 2.019-4.5 4.5-4.5s4.5 2.019 4.5 4.5-2.019 4.5-4.5 4.5a4.505 4.505 0 0 1-4.5-4.5zM87 12h-3.152c-.697-3.419-3.726-6-7.348-6s-6.651 2.581-7.348 6H66V4.5c0-.827.672-1.5 1.5-1.5h18c.828 0 1.5.673 1.5 1.5V12zM43.5 61.5h3v3h-3z"/></symbol><symbol viewBox="0 0 90 65" id="task-icon_3" xmlns="http://www.w3.org/2000/svg"><path d="M88.794 18.03L82.5 16.77V15a1.5 1.5 0 0 0-1.5-1.5H51.382L36 5.11V4.5C36 2.019 33.981 0 31.5 0A4.505 4.505 0 0 0 27 4.5v15.23l-7.746 1.29A1.5 1.5 0 0 0 18 22.5v9a1.5 1.5 0 0 0 1.254 1.48L27 34.27V49.5c0 2.481 2.019 4.5 4.5 4.5s4.5-2.019 4.5-4.5v-.61l15.382-8.39h6.343l-8.103 18.909a1.501 1.501 0 0 0 .904 2.014l9 3a1.5 1.5 0 0 0 1.88-.896L70.039 40.5H81a1.5 1.5 0 0 0 1.5-1.5v-1.77l6.294-1.26A1.5 1.5 0 0 0 90 34.5v-15a1.5 1.5 0 0 0-1.206-1.47zM27 31.23l-6-1v-6.46l6-1v8.46zM33 6v43.5a1.501 1.501 0 0 1-3 0v-45a1.501 1.501 0 0 1 3 0V6zm16.5 32.11L36 45.472V8.527l13.5 7.364v22.218zm9.604 23.01l-6.083-2.027L60.99 40.5h5.846l-7.731 20.62zM79.5 37.5h-27v-21h27v21zm7.5-4.23l-4.5.9V19.83l4.5.9v12.54zM0 25.5h15v3H0zM4.939 4.06L7.06 1.939l10.5 10.499-2.122 2.121zm-.003 44.38l10.5-10.499 2.12 2.121-10.499 10.5z"/></symbol><symbol viewBox="0 0 90 69" id="task-icon_4" xmlns="http://www.w3.org/2000/svg"><path d="M57 18h-6v-2.294A9.06 9.06 0 0 0 54 9a8.976 8.976 0 0 0-3.275-6.943C48.644.338 45.91-.35 43.222.171c-3.502.677-6.33 3.49-7.038 7-.645 3.203.428 6.406 2.816 8.537v2.291h-6a4.505 4.505 0 0 0-4.5 4.5V39a1.5 1.5 0 0 0 1.5 1.5h30a1.5 1.5 0 0 0 1.5-1.5V22.5c0-2.481-2.019-4.5-4.5-4.5zm1.5 19.5h-27v-15c0-.827.673-1.5 1.5-1.5h7.5a1.5 1.5 0 0 0 1.5-1.5V15c0-.472-.222-.916-.598-1.2-1.872-1.407-2.744-3.72-2.277-6.035.47-2.332 2.345-4.2 4.666-4.648 1.834-.353 3.616.091 5.024 1.253A5.985 5.985 0 0 1 51 9a6.04 6.04 0 0 1-2.402 4.8A1.5 1.5 0 0 0 48 15v4.5a1.5 1.5 0 0 0 1.5 1.5H57c.827 0 1.5.673 1.5 1.5v15zM18.598 19.8A1.5 1.5 0 0 0 18 21v4.5a1.5 1.5 0 0 0 1.5 1.5h6v-3H21v-2.294A9.06 9.06 0 0 0 24 15a8.976 8.976 0 0 0-3.275-6.943c-2.081-1.718-4.815-2.405-7.503-1.885-3.502.677-6.33 3.49-7.038 7-.645 3.203.428 6.406 2.816 8.537V24H4.5A4.505 4.505 0 0 0 0 28.5V39a1.5 1.5 0 0 0 1.5 1.5h24v-3H3v-9c0-.826.673-1.5 1.5-1.5h6a1.5 1.5 0 0 0 1.5-1.5V21c0-.471-.222-.915-.598-1.199-1.872-1.407-2.744-3.72-2.277-6.035.47-2.332 2.345-4.2 4.666-4.648 1.835-.354 3.616.091 5.024 1.253A5.985 5.985 0 0 1 21 15a6.04 6.04 0 0 1-2.402 4.8zM85.5 24H81v-2.292c2.388-2.13 3.461-5.334 2.816-8.537-.707-3.51-3.536-6.323-7.038-7-2.683-.519-5.422.168-7.503 1.885A8.976 8.976 0 0 0 66 15a9.06 9.06 0 0 0 3 6.707V24h-4.5v3h6a1.5 1.5 0 0 0 1.5-1.5V21c0-.471-.222-.915-.598-1.199A6.04 6.04 0 0 1 69 15c0-1.796.796-3.484 2.185-4.63 1.407-1.162 3.187-1.608 5.023-1.253 2.322.449 4.197 2.316 4.667 4.648.467 2.316-.405 4.629-2.277 6.035A1.5 1.5 0 0 0 78 21v4.5a1.5 1.5 0 0 0 1.5 1.5h6c.827 0 1.5.673 1.5 1.5v9H64.5v3h24A1.5 1.5 0 0 0 90 39V28.5c0-2.482-2.019-4.5-4.5-4.5zM81 46.5v-3H45a1.5 1.5 0 0 0-1.5 1.5c0 4.135 3.365 7.5 7.5 7.5h4.5v1.675L45.072 55.48l-12.82-2.85-2.692-2.69c-3.066-3.066-8.055-3.066-11.12 0a1.5 1.5 0 0 0 0 2.121l10.5 10.5c.143.144.314.257.503.333l15 6a1.502 1.502 0 0 0 .804.086L63.124 66H81v-3H69V46.5h12zM66 63h-3c-.083 0-.165.006-.247.02l-17.585 2.93-14.325-5.73-9.054-9.055a4.872 4.872 0 0 1 5.65.894l3 3c.202.202.457.342.736.403l13.5 3c.168.038.342.047.511.025l12-1.5a1.5 1.5 0 0 0 1.314-1.489V51a1.5 1.5 0 0 0-1.5-1.5h-6a4.508 4.508 0 0 1-4.243-3H66V63z"/></symbol></svg>